<svg xmlns="http://www.w3.org/2000/svg" xmlns:xlink="http://www.w3.org/1999/xlink" width="1200" zoomAndPan="magnify" viewBox="0 0 900 299.999988" height="400" preserveAspectRatio="xMidYMid meet" version="1.0"><defs><g/><clipPath id="739f327d39"><path d="M 0 29.34375 L 128 29.34375 L 128 282.09375 L 0 282.09375 Z M 0 29.34375 " clip-rule="nonzero"/></clipPath><clipPath id="fdf778fe65"><path d="M 154.019531 33.386719 L 278.882812 33.386719 L 278.882812 278.726562 L 154.019531 278.726562 Z M 154.019531 33.386719 " clip-rule="nonzero"/></clipPath><clipPath id="c25b2f95bc"><path d="M 154.019531 278.3125 C 222.03125 278.3125 278.882812 222.554688 278.882812 155.851562 C 278.882812 89.148438 222.03125 33.386719 154.019531 33.386719 Z M 154.019531 278.3125 " clip-rule="nonzero"/></clipPath><clipPath id="1cac43bf6c"><path d="M 0.0195312 0.386719 L 124.882812 0.386719 L 124.882812 245.238281 L 0.0195312 245.238281 Z M 0.0195312 0.386719 " clip-rule="nonzero"/></clipPath><clipPath id="993479dcdf"><path d="M 0.0195312 245.3125 C 68.03125 245.3125 124.882812 189.554688 124.882812 122.851562 C 124.882812 56.148438 68.03125 0.386719 0.0195312 0.386719 Z M 0.0195312 245.3125 " clip-rule="nonzero"/></clipPath><linearGradient x1="0.00668256" gradientTransform="matrix(0, 0.487746, -0.487746, 0, 124.881694, 0.385387)" y1="128" x2="502.006696" gradientUnits="userSpaceOnUse" y2="128" id="4e387bf05f"><stop stop-opacity="1" stop-color="rgb(96.080017%, 94.119263%, 90.977478%)" offset="0"/><stop stop-opacity="1" stop-color="rgb(96.092224%, 93.948364%, 90.646362%)" offset="0.00390625"/><stop stop-opacity="1" stop-color="rgb(96.104431%, 93.778992%, 90.316772%)" offset="0.0078125"/><stop stop-opacity="1" stop-color="rgb(96.116638%, 93.608093%, 89.985657%)" offset="0.0117187"/><stop stop-opacity="1" stop-color="rgb(96.128845%, 93.438721%, 89.654541%)" offset="0.015625"/><stop stop-opacity="1" stop-color="rgb(96.141052%, 93.267822%, 89.323425%)" offset="0.0195312"/><stop stop-opacity="1" stop-color="rgb(96.153259%, 93.09845%, 88.993835%)" offset="0.0234375"/><stop stop-opacity="1" stop-color="rgb(96.165466%, 92.927551%, 88.66272%)" offset="0.0273438"/><stop stop-opacity="1" stop-color="rgb(96.177673%, 92.758179%, 88.331604%)" offset="0.03125"/><stop stop-opacity="1" stop-color="rgb(96.18988%, 92.588806%, 88.000488%)" offset="0.0351563"/><stop stop-opacity="1" stop-color="rgb(96.202087%, 92.419434%, 87.670898%)" offset="0.0390625"/><stop stop-opacity="1" stop-color="rgb(96.214294%, 92.248535%, 87.339783%)" offset="0.0429688"/><stop stop-opacity="1" stop-color="rgb(96.226501%, 92.079163%, 87.008667%)" offset="0.046875"/><stop stop-opacity="1" stop-color="rgb(96.238708%, 91.908264%, 86.677551%)" offset="0.0507813"/><stop stop-opacity="1" stop-color="rgb(96.250916%, 91.738892%, 86.346436%)" offset="0.0546875"/><stop stop-opacity="1" stop-color="rgb(96.263123%, 91.567993%, 86.01532%)" offset="0.0585938"/><stop stop-opacity="1" stop-color="rgb(96.27533%, 91.398621%, 85.68573%)" offset="0.0625"/><stop stop-opacity="1" stop-color="rgb(96.287537%, 91.227722%, 85.354614%)" offset="0.0664063"/><stop stop-opacity="1" stop-color="rgb(96.299744%, 91.05835%, 85.023499%)" offset="0.0703125"/><stop stop-opacity="1" stop-color="rgb(96.311951%, 90.888977%, 84.692383%)" offset="0.0742188"/><stop stop-opacity="1" stop-color="rgb(96.324158%, 90.719604%, 84.362793%)" offset="0.078125"/><stop stop-opacity="1" stop-color="rgb(96.336365%, 90.548706%, 84.031677%)" offset="0.0820313"/><stop stop-opacity="1" stop-color="rgb(96.348572%, 90.379333%, 83.700562%)" offset="0.0859375"/><stop stop-opacity="1" stop-color="rgb(96.360779%, 90.208435%, 83.369446%)" offset="0.0898438"/><stop stop-opacity="1" stop-color="rgb(96.372986%, 90.039062%, 83.03833%)" offset="0.09375"/><stop stop-opacity="1" stop-color="rgb(96.385193%, 89.868164%, 82.707214%)" offset="0.0976563"/><stop stop-opacity="1" stop-color="rgb(96.3974%, 89.698792%, 82.377625%)" offset="0.101563"/><stop stop-opacity="1" stop-color="rgb(96.409607%, 89.527893%, 82.046509%)" offset="0.105469"/><stop stop-opacity="1" stop-color="rgb(96.42334%, 89.358521%, 81.715393%)" offset="0.109375"/><stop stop-opacity="1" stop-color="rgb(96.435547%, 89.189148%, 81.384277%)" offset="0.113281"/><stop stop-opacity="1" stop-color="rgb(96.447754%, 89.019775%, 81.054688%)" offset="0.117188"/><stop stop-opacity="1" stop-color="rgb(96.459961%, 88.848877%, 80.723572%)" offset="0.121094"/><stop stop-opacity="1" stop-color="rgb(96.472168%, 88.679504%, 80.392456%)" offset="0.125"/><stop stop-opacity="1" stop-color="rgb(96.484375%, 88.508606%, 80.06134%)" offset="0.128906"/><stop stop-opacity="1" stop-color="rgb(96.496582%, 88.339233%, 79.73175%)" offset="0.132812"/><stop stop-opacity="1" stop-color="rgb(96.508789%, 88.168335%, 79.400635%)" offset="0.136719"/><stop stop-opacity="1" stop-color="rgb(96.520996%, 87.998962%, 79.069519%)" offset="0.140625"/><stop stop-opacity="1" stop-color="rgb(96.533203%, 87.828064%, 78.738403%)" offset="0.144531"/><stop stop-opacity="1" stop-color="rgb(96.54541%, 87.658691%, 78.407288%)" offset="0.148438"/><stop stop-opacity="1" stop-color="rgb(96.557617%, 87.487793%, 78.076172%)" offset="0.152344"/><stop stop-opacity="1" stop-color="rgb(96.569824%, 87.31842%, 77.746582%)" offset="0.15625"/><stop stop-opacity="1" stop-color="rgb(96.582031%, 87.149048%, 77.415466%)" offset="0.160156"/><stop stop-opacity="1" stop-color="rgb(96.594238%, 86.979675%, 77.084351%)" offset="0.164062"/><stop stop-opacity="1" stop-color="rgb(96.606445%, 86.808777%, 76.753235%)" offset="0.167969"/><stop stop-opacity="1" stop-color="rgb(96.618652%, 86.639404%, 76.423645%)" offset="0.171875"/><stop stop-opacity="1" stop-color="rgb(96.630859%, 86.468506%, 76.092529%)" offset="0.175781"/><stop stop-opacity="1" stop-color="rgb(96.643066%, 86.299133%, 75.761414%)" offset="0.179688"/><stop stop-opacity="1" stop-color="rgb(96.655273%, 86.128235%, 75.430298%)" offset="0.183594"/><stop stop-opacity="1" stop-color="rgb(96.66748%, 85.958862%, 75.099182%)" offset="0.1875"/><stop stop-opacity="1" stop-color="rgb(96.679688%, 85.787964%, 74.768066%)" offset="0.191406"/><stop stop-opacity="1" stop-color="rgb(96.691895%, 85.618591%, 74.438477%)" offset="0.195312"/><stop stop-opacity="1" stop-color="rgb(96.704102%, 85.449219%, 74.107361%)" offset="0.199219"/><stop stop-opacity="1" stop-color="rgb(96.716309%, 85.279846%, 73.776245%)" offset="0.203125"/><stop stop-opacity="1" stop-color="rgb(96.728516%, 85.108948%, 73.445129%)" offset="0.207031"/><stop stop-opacity="1" stop-color="rgb(96.740723%, 84.939575%, 73.11554%)" offset="0.210938"/><stop stop-opacity="1" stop-color="rgb(96.75293%, 84.768677%, 72.784424%)" offset="0.214844"/><stop stop-opacity="1" stop-color="rgb(96.766663%, 84.599304%, 72.453308%)" offset="0.21875"/><stop stop-opacity="1" stop-color="rgb(96.77887%, 84.428406%, 72.122192%)" offset="0.222656"/><stop stop-opacity="1" stop-color="rgb(96.791077%, 84.259033%, 71.792603%)" offset="0.226562"/><stop stop-opacity="1" stop-color="rgb(96.803284%, 84.088135%, 71.461487%)" offset="0.230469"/><stop stop-opacity="1" stop-color="rgb(96.815491%, 83.918762%, 71.130371%)" offset="0.234375"/><stop stop-opacity="1" stop-color="rgb(96.827698%, 83.74939%, 70.799255%)" offset="0.238281"/><stop stop-opacity="1" stop-color="rgb(96.839905%, 83.580017%, 70.46814%)" offset="0.242188"/><stop stop-opacity="1" stop-color="rgb(96.852112%, 83.409119%, 70.137024%)" offset="0.246094"/><stop stop-opacity="1" stop-color="rgb(96.864319%, 83.239746%, 69.807434%)" offset="0.25"/><stop stop-opacity="1" stop-color="rgb(96.876526%, 83.068848%, 69.476318%)" offset="0.253906"/><stop stop-opacity="1" stop-color="rgb(96.888733%, 82.899475%, 69.145203%)" offset="0.257812"/><stop stop-opacity="1" stop-color="rgb(96.90094%, 82.728577%, 68.814087%)" offset="0.261719"/><stop stop-opacity="1" stop-color="rgb(96.913147%, 82.559204%, 68.484497%)" offset="0.265625"/><stop stop-opacity="1" stop-color="rgb(96.925354%, 82.388306%, 68.153381%)" offset="0.269531"/><stop stop-opacity="1" stop-color="rgb(96.937561%, 82.218933%, 67.822266%)" offset="0.273438"/><stop stop-opacity="1" stop-color="rgb(96.949768%, 82.049561%, 67.49115%)" offset="0.277344"/><stop stop-opacity="1" stop-color="rgb(96.961975%, 81.880188%, 67.160034%)" offset="0.28125"/><stop stop-opacity="1" stop-color="rgb(96.974182%, 81.70929%, 66.828918%)" offset="0.285156"/><stop stop-opacity="1" stop-color="rgb(96.986389%, 81.539917%, 66.499329%)" offset="0.289062"/><stop stop-opacity="1" stop-color="rgb(96.998596%, 81.369019%, 66.168213%)" offset="0.292969"/><stop stop-opacity="1" stop-color="rgb(97.010803%, 81.199646%, 65.837097%)" offset="0.296875"/><stop stop-opacity="1" stop-color="rgb(97.02301%, 81.028748%, 65.505981%)" offset="0.300781"/><stop stop-opacity="1" stop-color="rgb(97.035217%, 80.859375%, 65.176392%)" offset="0.304688"/><stop stop-opacity="1" stop-color="rgb(97.047424%, 80.688477%, 64.845276%)" offset="0.308594"/><stop stop-opacity="1" stop-color="rgb(97.059631%, 80.519104%, 64.51416%)" offset="0.3125"/><stop stop-opacity="1" stop-color="rgb(97.071838%, 80.349731%, 64.183044%)" offset="0.316406"/><stop stop-opacity="1" stop-color="rgb(97.084045%, 80.180359%, 63.853455%)" offset="0.320312"/><stop stop-opacity="1" stop-color="rgb(97.096252%, 80.00946%, 63.522339%)" offset="0.324219"/><stop stop-opacity="1" stop-color="rgb(97.109985%, 79.840088%, 63.191223%)" offset="0.328125"/><stop stop-opacity="1" stop-color="rgb(97.122192%, 79.669189%, 62.860107%)" offset="0.332031"/><stop stop-opacity="1" stop-color="rgb(97.134399%, 79.499817%, 62.528992%)" offset="0.335938"/><stop stop-opacity="1" stop-color="rgb(97.146606%, 79.328918%, 62.197876%)" offset="0.339844"/><stop stop-opacity="1" stop-color="rgb(97.158813%, 79.159546%, 61.868286%)" offset="0.34375"/><stop stop-opacity="1" stop-color="rgb(97.171021%, 78.988647%, 61.53717%)" offset="0.347656"/><stop stop-opacity="1" stop-color="rgb(97.183228%, 78.819275%, 61.206055%)" offset="0.351562"/><stop stop-opacity="1" stop-color="rgb(97.195435%, 78.649902%, 60.874939%)" offset="0.355469"/><stop stop-opacity="1" stop-color="rgb(97.207642%, 78.48053%, 60.545349%)" offset="0.359375"/><stop stop-opacity="1" stop-color="rgb(97.219849%, 78.309631%, 60.214233%)" offset="0.363281"/><stop stop-opacity="1" stop-color="rgb(97.232056%, 78.140259%, 59.883118%)" offset="0.367188"/><stop stop-opacity="1" stop-color="rgb(97.244263%, 77.96936%, 59.552002%)" offset="0.371094"/><stop stop-opacity="1" stop-color="rgb(97.25647%, 77.799988%, 59.220886%)" offset="0.375"/><stop stop-opacity="1" stop-color="rgb(97.268677%, 77.629089%, 58.889771%)" offset="0.378906"/><stop stop-opacity="1" stop-color="rgb(97.280884%, 77.459717%, 58.560181%)" offset="0.382812"/><stop stop-opacity="1" stop-color="rgb(97.293091%, 77.288818%, 58.229065%)" offset="0.386719"/><stop stop-opacity="1" stop-color="rgb(97.305298%, 77.119446%, 57.897949%)" offset="0.390625"/><stop stop-opacity="1" stop-color="rgb(97.317505%, 76.950073%, 57.566833%)" offset="0.394531"/><stop stop-opacity="1" stop-color="rgb(97.329712%, 76.780701%, 57.237244%)" offset="0.398438"/><stop stop-opacity="1" stop-color="rgb(97.341919%, 76.609802%, 56.906128%)" offset="0.402344"/><stop stop-opacity="1" stop-color="rgb(97.354126%, 76.44043%, 56.575012%)" offset="0.40625"/><stop stop-opacity="1" stop-color="rgb(97.366333%, 76.269531%, 56.243896%)" offset="0.410156"/><stop stop-opacity="1" stop-color="rgb(97.37854%, 76.100159%, 55.914307%)" offset="0.414062"/><stop stop-opacity="1" stop-color="rgb(97.390747%, 75.92926%, 55.583191%)" offset="0.417969"/><stop stop-opacity="1" stop-color="rgb(97.402954%, 75.759888%, 55.252075%)" offset="0.421875"/><stop stop-opacity="1" stop-color="rgb(97.415161%, 75.588989%, 54.920959%)" offset="0.425781"/><stop stop-opacity="1" stop-color="rgb(97.427368%, 75.419617%, 54.589844%)" offset="0.429688"/><stop stop-opacity="1" stop-color="rgb(97.439575%, 75.250244%, 54.258728%)" offset="0.433594"/><stop stop-opacity="1" stop-color="rgb(97.453308%, 75.080872%, 53.929138%)" offset="0.4375"/><stop stop-opacity="1" stop-color="rgb(97.465515%, 74.909973%, 53.598022%)" offset="0.441406"/><stop stop-opacity="1" stop-color="rgb(97.477722%, 74.740601%, 53.266907%)" offset="0.445312"/><stop stop-opacity="1" stop-color="rgb(97.489929%, 74.569702%, 52.935791%)" offset="0.449219"/><stop stop-opacity="1" stop-color="rgb(97.502136%, 74.40033%, 52.606201%)" offset="0.453125"/><stop stop-opacity="1" stop-color="rgb(97.514343%, 74.229431%, 52.275085%)" offset="0.457031"/><stop stop-opacity="1" stop-color="rgb(97.52655%, 74.060059%, 51.94397%)" offset="0.460938"/><stop stop-opacity="1" stop-color="rgb(97.538757%, 73.88916%, 51.612854%)" offset="0.464844"/><stop stop-opacity="1" stop-color="rgb(97.550964%, 73.719788%, 51.281738%)" offset="0.46875"/><stop stop-opacity="1" stop-color="rgb(97.563171%, 73.548889%, 50.950623%)" offset="0.472656"/><stop stop-opacity="1" stop-color="rgb(97.575378%, 73.379517%, 50.621033%)" offset="0.476562"/><stop stop-opacity="1" stop-color="rgb(97.587585%, 73.210144%, 50.289917%)" offset="0.480469"/><stop stop-opacity="1" stop-color="rgb(97.599792%, 73.040771%, 49.958801%)" offset="0.484375"/><stop stop-opacity="1" stop-color="rgb(97.612%, 72.869873%, 49.627686%)" offset="0.488281"/><stop stop-opacity="1" stop-color="rgb(97.624207%, 72.7005%, 49.298096%)" offset="0.492188"/><stop stop-opacity="1" stop-color="rgb(97.636414%, 72.529602%, 48.96698%)" offset="0.496094"/><stop stop-opacity="1" stop-color="rgb(97.648621%, 72.360229%, 48.635864%)" offset="0.5"/><stop stop-opacity="1" stop-color="rgb(97.660828%, 72.189331%, 48.304749%)" offset="0.503906"/><stop stop-opacity="1" stop-color="rgb(97.673035%, 72.019958%, 47.975159%)" offset="0.507812"/><stop stop-opacity="1" stop-color="rgb(97.685242%, 71.84906%, 47.644043%)" offset="0.511719"/><stop stop-opacity="1" stop-color="rgb(97.697449%, 71.679688%, 47.312927%)" offset="0.515625"/><stop stop-opacity="1" stop-color="rgb(97.709656%, 71.510315%, 46.981812%)" offset="0.519531"/><stop stop-opacity="1" stop-color="rgb(97.721863%, 71.340942%, 46.650696%)" offset="0.523437"/><stop stop-opacity="1" stop-color="rgb(97.73407%, 71.170044%, 46.31958%)" offset="0.527344"/><stop stop-opacity="1" stop-color="rgb(97.746277%, 71.000671%, 45.98999%)" offset="0.53125"/><stop stop-opacity="1" stop-color="rgb(97.758484%, 70.829773%, 45.658875%)" offset="0.535156"/><stop stop-opacity="1" stop-color="rgb(97.770691%, 70.6604%, 45.327759%)" offset="0.539062"/><stop stop-opacity="1" stop-color="rgb(97.782898%, 70.489502%, 44.996643%)" offset="0.542969"/><stop stop-opacity="1" stop-color="rgb(97.796631%, 70.320129%, 44.667053%)" offset="0.546875"/><stop stop-opacity="1" stop-color="rgb(97.808838%, 70.149231%, 44.335938%)" offset="0.550781"/><stop stop-opacity="1" stop-color="rgb(97.821045%, 69.979858%, 44.004822%)" offset="0.554687"/><stop stop-opacity="1" stop-color="rgb(97.833252%, 69.810486%, 43.673706%)" offset="0.558594"/><stop stop-opacity="1" stop-color="rgb(97.845459%, 69.641113%, 43.34259%)" offset="0.5625"/><stop stop-opacity="1" stop-color="rgb(97.857666%, 69.470215%, 43.011475%)" offset="0.566406"/><stop stop-opacity="1" stop-color="rgb(97.869873%, 69.300842%, 42.681885%)" offset="0.570312"/><stop stop-opacity="1" stop-color="rgb(97.88208%, 69.129944%, 42.350769%)" offset="0.574219"/><stop stop-opacity="1" stop-color="rgb(97.894287%, 68.960571%, 42.019653%)" offset="0.578125"/><stop stop-opacity="1" stop-color="rgb(97.906494%, 68.789673%, 41.688538%)" offset="0.582031"/><stop stop-opacity="1" stop-color="rgb(97.918701%, 68.6203%, 41.358948%)" offset="0.585937"/><stop stop-opacity="1" stop-color="rgb(97.930908%, 68.449402%, 41.027832%)" offset="0.589844"/><stop stop-opacity="1" stop-color="rgb(97.943115%, 68.280029%, 40.696716%)" offset="0.59375"/><stop stop-opacity="1" stop-color="rgb(97.955322%, 68.110657%, 40.365601%)" offset="0.597656"/><stop stop-opacity="1" stop-color="rgb(97.967529%, 67.941284%, 40.036011%)" offset="0.601562"/><stop stop-opacity="1" stop-color="rgb(97.979736%, 67.770386%, 39.704895%)" offset="0.605469"/><stop stop-opacity="1" stop-color="rgb(97.991943%, 67.601013%, 39.373779%)" offset="0.609375"/><stop stop-opacity="1" stop-color="rgb(98.00415%, 67.430115%, 39.042664%)" offset="0.613281"/><stop stop-opacity="1" stop-color="rgb(98.016357%, 67.260742%, 38.711548%)" offset="0.617187"/><stop stop-opacity="1" stop-color="rgb(98.028564%, 67.089844%, 38.380432%)" offset="0.621094"/><stop stop-opacity="1" stop-color="rgb(98.040771%, 66.920471%, 38.050842%)" offset="0.625"/><stop stop-opacity="1" stop-color="rgb(98.052979%, 66.749573%, 37.719727%)" offset="0.628906"/><stop stop-opacity="1" stop-color="rgb(98.065186%, 66.5802%, 37.388611%)" offset="0.632812"/><stop stop-opacity="1" stop-color="rgb(98.077393%, 66.410828%, 37.057495%)" offset="0.636719"/><stop stop-opacity="1" stop-color="rgb(98.0896%, 66.241455%, 36.727905%)" offset="0.640625"/><stop stop-opacity="1" stop-color="rgb(98.101807%, 66.070557%, 36.39679%)" offset="0.644531"/><stop stop-opacity="1" stop-color="rgb(98.114014%, 65.901184%, 36.065674%)" offset="0.648437"/><stop stop-opacity="1" stop-color="rgb(98.126221%, 65.730286%, 35.734558%)" offset="0.652344"/><stop stop-opacity="1" stop-color="rgb(98.139954%, 65.560913%, 35.404968%)" offset="0.65625"/><stop stop-opacity="1" stop-color="rgb(98.152161%, 65.390015%, 35.073853%)" offset="0.660156"/><stop stop-opacity="1" stop-color="rgb(98.164368%, 65.220642%, 34.742737%)" offset="0.664062"/><stop stop-opacity="1" stop-color="rgb(98.176575%, 65.049744%, 34.411621%)" offset="0.667969"/><stop stop-opacity="1" stop-color="rgb(98.188782%, 64.880371%, 34.080505%)" offset="0.671875"/><stop stop-opacity="1" stop-color="rgb(98.200989%, 64.710999%, 33.74939%)" offset="0.675781"/><stop stop-opacity="1" stop-color="rgb(98.213196%, 64.541626%, 33.4198%)" offset="0.679687"/><stop stop-opacity="1" stop-color="rgb(98.225403%, 64.370728%, 33.088684%)" offset="0.683594"/><stop stop-opacity="1" stop-color="rgb(98.23761%, 64.201355%, 32.757568%)" offset="0.6875"/><stop stop-opacity="1" stop-color="rgb(98.249817%, 64.030457%, 32.426453%)" offset="0.691406"/><stop stop-opacity="1" stop-color="rgb(98.262024%, 63.861084%, 32.096863%)" offset="0.695312"/><stop stop-opacity="1" stop-color="rgb(98.274231%, 63.690186%, 31.765747%)" offset="0.699219"/><stop stop-opacity="1" stop-color="rgb(98.286438%, 63.520813%, 31.434631%)" offset="0.703125"/><stop stop-opacity="1" stop-color="rgb(98.298645%, 63.349915%, 31.103516%)" offset="0.707031"/><stop stop-opacity="1" stop-color="rgb(98.310852%, 63.180542%, 30.7724%)" offset="0.710937"/><stop stop-opacity="1" stop-color="rgb(98.323059%, 63.011169%, 30.441284%)" offset="0.714844"/><stop stop-opacity="1" stop-color="rgb(98.335266%, 62.841797%, 30.111694%)" offset="0.71875"/><stop stop-opacity="1" stop-color="rgb(98.347473%, 62.670898%, 29.780579%)" offset="0.722656"/><stop stop-opacity="1" stop-color="rgb(98.35968%, 62.501526%, 29.449463%)" offset="0.726562"/><stop stop-opacity="1" stop-color="rgb(98.371887%, 62.330627%, 29.118347%)" offset="0.730469"/><stop stop-opacity="1" stop-color="rgb(98.384094%, 62.161255%, 28.788757%)" offset="0.734375"/><stop stop-opacity="1" stop-color="rgb(98.396301%, 61.990356%, 28.457642%)" offset="0.738281"/><stop stop-opacity="1" stop-color="rgb(98.408508%, 61.820984%, 28.126526%)" offset="0.742187"/><stop stop-opacity="1" stop-color="rgb(98.420715%, 61.650085%, 27.79541%)" offset="0.746094"/><stop stop-opacity="1" stop-color="rgb(98.432922%, 61.480713%, 27.46582%)" offset="0.75"/><stop stop-opacity="1" stop-color="rgb(98.445129%, 61.309814%, 27.134705%)" offset="0.753906"/><stop stop-opacity="1" stop-color="rgb(98.457336%, 61.140442%, 26.803589%)" offset="0.757812"/><stop stop-opacity="1" stop-color="rgb(98.469543%, 60.971069%, 26.472473%)" offset="0.761719"/><stop stop-opacity="1" stop-color="rgb(98.483276%, 60.801697%, 26.141357%)" offset="0.765625"/><stop stop-opacity="1" stop-color="rgb(98.495483%, 60.630798%, 25.810242%)" offset="0.769531"/><stop stop-opacity="1" stop-color="rgb(98.50769%, 60.461426%, 25.480652%)" offset="0.773438"/><stop stop-opacity="1" stop-color="rgb(98.519897%, 60.290527%, 25.149536%)" offset="0.777344"/><stop stop-opacity="1" stop-color="rgb(98.532104%, 60.121155%, 24.81842%)" offset="0.78125"/><stop stop-opacity="1" stop-color="rgb(98.544312%, 59.950256%, 24.487305%)" offset="0.785156"/><stop stop-opacity="1" stop-color="rgb(98.556519%, 59.780884%, 24.157715%)" offset="0.789062"/><stop stop-opacity="1" stop-color="rgb(98.568726%, 59.609985%, 23.826599%)" offset="0.792969"/><stop stop-opacity="1" stop-color="rgb(98.580933%, 59.440613%, 23.495483%)" offset="0.796875"/><stop stop-opacity="1" stop-color="rgb(98.59314%, 59.27124%, 23.164368%)" offset="0.800781"/><stop stop-opacity="1" stop-color="rgb(98.605347%, 59.101868%, 22.833252%)" offset="0.804688"/><stop stop-opacity="1" stop-color="rgb(98.617554%, 58.930969%, 22.502136%)" offset="0.808594"/><stop stop-opacity="1" stop-color="rgb(98.629761%, 58.761597%, 22.172546%)" offset="0.8125"/><stop stop-opacity="1" stop-color="rgb(98.641968%, 58.590698%, 21.841431%)" offset="0.816406"/><stop stop-opacity="1" stop-color="rgb(98.654175%, 58.421326%, 21.510315%)" offset="0.820312"/><stop stop-opacity="1" stop-color="rgb(98.666382%, 58.250427%, 21.179199%)" offset="0.824219"/><stop stop-opacity="1" stop-color="rgb(98.678589%, 58.081055%, 20.849609%)" offset="0.828125"/><stop stop-opacity="1" stop-color="rgb(98.690796%, 57.910156%, 20.518494%)" offset="0.832031"/><stop stop-opacity="1" stop-color="rgb(98.703003%, 57.740784%, 20.187378%)" offset="0.835938"/><stop stop-opacity="1" stop-color="rgb(98.71521%, 57.571411%, 19.856262%)" offset="0.839844"/><stop stop-opacity="1" stop-color="rgb(98.727417%, 57.402039%, 19.526672%)" offset="0.84375"/><stop stop-opacity="1" stop-color="rgb(98.739624%, 57.23114%, 19.195557%)" offset="0.847656"/><stop stop-opacity="1" stop-color="rgb(98.751831%, 57.061768%, 18.864441%)" offset="0.851562"/><stop stop-opacity="1" stop-color="rgb(98.764038%, 56.890869%, 18.533325%)" offset="0.855469"/><stop stop-opacity="1" stop-color="rgb(98.776245%, 56.721497%, 18.202209%)" offset="0.859375"/><stop stop-opacity="1" stop-color="rgb(98.788452%, 56.550598%, 17.871094%)" offset="0.863281"/><stop stop-opacity="1" stop-color="rgb(98.800659%, 56.381226%, 17.541504%)" offset="0.867188"/><stop stop-opacity="1" stop-color="rgb(98.812866%, 56.210327%, 17.210388%)" offset="0.871094"/><stop stop-opacity="1" stop-color="rgb(98.826599%, 56.040955%, 16.879272%)" offset="0.875"/><stop stop-opacity="1" stop-color="rgb(98.838806%, 55.871582%, 16.548157%)" offset="0.878906"/><stop stop-opacity="1" stop-color="rgb(98.851013%, 55.702209%, 16.218567%)" offset="0.882812"/><stop stop-opacity="1" stop-color="rgb(98.86322%, 55.531311%, 15.887451%)" offset="0.886719"/><stop stop-opacity="1" stop-color="rgb(98.875427%, 55.361938%, 15.556335%)" offset="0.890625"/><stop stop-opacity="1" stop-color="rgb(98.887634%, 55.19104%, 15.22522%)" offset="0.894531"/><stop stop-opacity="1" stop-color="rgb(98.899841%, 55.021667%, 14.894104%)" offset="0.898438"/><stop stop-opacity="1" stop-color="rgb(98.912048%, 54.850769%, 14.562988%)" offset="0.902344"/><stop stop-opacity="1" stop-color="rgb(98.924255%, 54.681396%, 14.233398%)" offset="0.90625"/><stop stop-opacity="1" stop-color="rgb(98.936462%, 54.510498%, 13.902283%)" offset="0.910156"/><stop stop-opacity="1" stop-color="rgb(98.948669%, 54.341125%, 13.571167%)" offset="0.914062"/><stop stop-opacity="1" stop-color="rgb(98.960876%, 54.171753%, 13.240051%)" offset="0.917969"/><stop stop-opacity="1" stop-color="rgb(98.973083%, 54.00238%, 12.910461%)" offset="0.921875"/><stop stop-opacity="1" stop-color="rgb(98.985291%, 53.831482%, 12.579346%)" offset="0.925781"/><stop stop-opacity="1" stop-color="rgb(98.997498%, 53.662109%, 12.24823%)" offset="0.929688"/><stop stop-opacity="1" stop-color="rgb(99.009705%, 53.491211%, 11.917114%)" offset="0.933594"/><stop stop-opacity="1" stop-color="rgb(99.021912%, 53.321838%, 11.587524%)" offset="0.9375"/><stop stop-opacity="1" stop-color="rgb(99.034119%, 53.15094%, 11.256409%)" offset="0.941406"/><stop stop-opacity="1" stop-color="rgb(99.046326%, 52.981567%, 10.925293%)" offset="0.945312"/><stop stop-opacity="1" stop-color="rgb(99.058533%, 52.810669%, 10.594177%)" offset="0.949219"/><stop stop-opacity="1" stop-color="rgb(99.07074%, 52.641296%, 10.263062%)" offset="0.953125"/><stop stop-opacity="1" stop-color="rgb(99.082947%, 52.471924%, 9.931946%)" offset="0.957031"/><stop stop-opacity="1" stop-color="rgb(99.095154%, 52.302551%, 9.602356%)" offset="0.960938"/><stop stop-opacity="1" stop-color="rgb(99.107361%, 52.131653%, 9.27124%)" offset="0.964844"/><stop stop-opacity="1" stop-color="rgb(99.119568%, 51.96228%, 8.940125%)" offset="0.96875"/><stop stop-opacity="1" stop-color="rgb(99.131775%, 51.791382%, 8.609009%)" offset="0.972656"/><stop stop-opacity="1" stop-color="rgb(99.143982%, 51.622009%, 8.279419%)" offset="0.976562"/><stop stop-opacity="1" stop-color="rgb(99.156189%, 51.451111%, 7.948303%)" offset="0.980469"/><stop stop-opacity="1" stop-color="rgb(99.169922%, 51.281738%, 7.617188%)" offset="0.984375"/><stop stop-opacity="1" stop-color="rgb(99.182129%, 51.11084%, 7.286072%)" offset="0.988281"/><stop stop-opacity="1" stop-color="rgb(99.194336%, 50.941467%, 6.954956%)" offset="0.992188"/><stop stop-opacity="1" stop-color="rgb(99.206543%, 50.772095%, 6.62384%)" offset="0.996094"/><stop stop-opacity="1" stop-color="rgb(99.21875%, 50.602722%, 6.29425%)" offset="1"/></linearGradient><clipPath id="5a5750a5fa"><rect x="0" width="125" y="0" height="246"/></clipPath><clipPath id="6686dae44a"><path d="M 67.429688 102.421875 L 125.191406 102.421875 L 125.191406 162.441406 L 67.429688 162.441406 Z M 67.429688 102.421875 " clip-rule="nonzero"/></clipPath><clipPath id="3cd354551b"><path d="M 93.679688 102.421875 L 98.941406 102.421875 C 113.4375 102.421875 125.191406 114.175781 125.191406 128.671875 L 125.191406 136.027344 C 125.191406 150.523438 113.4375 162.277344 98.941406 162.277344 L 93.679688 162.277344 C 79.183594 162.277344 67.429688 150.523438 67.429688 136.027344 L 67.429688 128.671875 C 67.429688 114.175781 79.183594 102.421875 93.679688 102.421875 Z M 93.679688 102.421875 " clip-rule="nonzero"/></clipPath><clipPath id="f466ff3ecf"><path d="M 0.429688 0.421875 L 58.191406 0.421875 L 58.191406 60.441406 L 0.429688 60.441406 Z M 0.429688 0.421875 " clip-rule="nonzero"/></clipPath><clipPath id="915d6eec19"><path d="M 26.679688 0.421875 L 31.941406 0.421875 C 46.4375 0.421875 58.191406 12.175781 58.191406 26.671875 L 58.191406 34.027344 C 58.191406 48.523438 46.4375 60.277344 31.941406 60.277344 L 26.679688 60.277344 C 12.183594 60.277344 0.429688 48.523438 0.429688 34.027344 L 0.429688 26.671875 C 0.429688 12.175781 12.183594 0.421875 26.679688 0.421875 Z M 26.679688 0.421875 " clip-rule="nonzero"/></clipPath><clipPath id="e7585ccf39"><rect x="0" width="59" y="0" height="61"/></clipPath><clipPath id="f04389aeb7"><path d="M 76.402344 112.113281 L 207.113281 112.113281 L 207.113281 140.542969 L 76.402344 140.542969 Z M 76.402344 112.113281 " clip-rule="nonzero"/></clipPath><clipPath id="2d93d9f1c1"><path d="M 85.402344 112.113281 L 198.085938 112.113281 C 200.472656 112.113281 202.761719 113.0625 204.449219 114.75 C 206.136719 116.4375 207.085938 118.726562 207.085938 121.113281 L 207.085938 131.542969 C 207.085938 133.929688 206.136719 136.21875 204.449219 137.90625 C 202.761719 139.59375 200.472656 140.542969 198.085938 140.542969 L 85.402344 140.542969 C 83.015625 140.542969 80.726562 139.59375 79.039062 137.90625 C 77.351562 136.21875 76.402344 133.929688 76.402344 131.542969 L 76.402344 121.113281 C 76.402344 118.726562 77.351562 116.4375 79.039062 114.75 C 80.726562 113.0625 83.015625 112.113281 85.402344 112.113281 Z M 85.402344 112.113281 " clip-rule="nonzero"/></clipPath><clipPath id="29fade966d"><path d="M 0.402344 0.113281 L 131.113281 0.113281 L 131.113281 28.542969 L 0.402344 28.542969 Z M 0.402344 0.113281 " clip-rule="nonzero"/></clipPath><clipPath id="8866f4b553"><path d="M 9.402344 0.113281 L 122.085938 0.113281 C 124.472656 0.113281 126.761719 1.0625 128.449219 2.75 C 130.136719 4.4375 131.085938 6.726562 131.085938 9.113281 L 131.085938 19.542969 C 131.085938 21.929688 130.136719 24.21875 128.449219 25.90625 C 126.761719 27.59375 124.472656 28.542969 122.085938 28.542969 L 9.402344 28.542969 C 7.015625 28.542969 4.726562 27.59375 3.039062 25.90625 C 1.351562 24.21875 0.402344 21.929688 0.402344 19.542969 L 0.402344 9.113281 C 0.402344 6.726562 1.351562 4.4375 3.039062 2.75 C 4.726562 1.0625 7.015625 0.113281 9.402344 0.113281 Z M 9.402344 0.113281 " clip-rule="nonzero"/></clipPath><clipPath id="17d233f9d9"><rect x="0" width="132" y="0" height="29"/></clipPath><clipPath id="467309e951"><path d="M 229.007812 74.855469 L 278.886719 74.855469 L 278.886719 214.171875 L 229.007812 214.171875 Z M 229.007812 74.855469 " clip-rule="nonzero"/></clipPath><clipPath id="535bdc3b2b"><path d="M 253.949219 74.855469 C 267.722656 74.855469 278.886719 86.019531 278.886719 99.792969 L 278.886719 189.179688 C 278.886719 202.953125 267.722656 214.121094 253.949219 214.121094 C 240.171875 214.121094 229.007812 202.953125 229.007812 189.179688 L 229.007812 99.792969 C 229.007812 86.019531 240.171875 74.855469 253.949219 74.855469 Z M 253.949219 74.855469 " clip-rule="nonzero"/></clipPath><clipPath id="0530ec72bf"><path d="M 0.0078125 0.855469 L 49.886719 0.855469 L 49.886719 140.171875 L 0.0078125 140.171875 Z M 0.0078125 0.855469 " clip-rule="nonzero"/></clipPath><clipPath id="b88db9c57a"><path d="M 24.949219 0.855469 C 38.722656 0.855469 49.886719 12.019531 49.886719 25.792969 L 49.886719 115.179688 C 49.886719 128.953125 38.722656 140.121094 24.949219 140.121094 C 11.171875 140.121094 0.0078125 128.953125 0.0078125 115.179688 L 0.0078125 25.792969 C 0.0078125 12.019531 11.171875 0.855469 24.949219 0.855469 Z M 24.949219 0.855469 " clip-rule="nonzero"/></clipPath><clipPath id="a0524dc84b"><rect x="0" width="50" y="0" height="141"/></clipPath><clipPath id="a555eec4d5"><rect x="0" width="603" y="0" height="49"/></clipPath><clipPath id="0cec4fe208"><rect x="0" width="669" y="0" height="177"/></clipPath></defs><g clip-path="url(#739f327d39)"><path fill="#7a9e7e" d="M 78.410156 39.085938 C 83.59375 33.179688 91.191406 29.414062 99.597656 29.414062 C 115.121094 29.414062 127.777344 42.101562 127.777344 57.59375 L 127.777344 254.121094 C 127.777344 269.613281 115.121094 282.300781 99.597656 282.300781 C 86.578125 282.300781 75.542969 273.320312 72.351562 261.234375 C 74.820312 256.292969 78.140625 250.988281 82.386719 246.222656 C 82.597656 246.039062 82.78125 245.863281 82.929688 245.652344 C 87.058594 241.191406 92.066406 237.246094 98.09375 234.625 C 99.722656 233.933594 100.472656 232.035156 99.78125 230.40625 C 99.058594 228.777344 97.191406 228.027344 95.5625 228.75 C 90.285156 231.007812 85.738281 234.144531 81.820312 237.757812 C 76.726562 216.8125 90.527344 201.324219 101.980469 188.449219 C 106.351562 183.570312 110.421875 179.019531 113.226562 174.464844 C 124.917969 155.507812 107.585938 132.210938 107.527344 132.152344 C 106.503906 130.707031 104.484375 130.402344 103.039062 131.460938 C 101.621094 132.519531 101.324219 134.503906 102.347656 135.949219 C 102.40625 136.007812 117.175781 155.867188 107.769531 171.089844 C 105.300781 175.097656 101.382812 179.46875 97.191406 184.167969 C 83.988281 198.964844 67.960938 216.960938 76.667969 243.089844 C 72.777344 247.636719 69.675781 252.585938 67.234375 257.253906 C 65.1875 257.671875 63.050781 257.882812 60.875 257.882812 C 42.941406 257.882812 28.417969 243.359375 28.417969 225.425781 C 28.417969 222.441406 28.8125 219.578125 29.5625 216.835938 C 34.140625 213.703125 39.503906 210.566406 45.503906 208.035156 C 45.773438 207.945312 46.046875 207.851562 46.285156 207.707031 C 52.976562 204.992188 60.390625 203.035156 68.347656 202.671875 C 70.128906 202.582031 71.480469 201.078125 71.421875 199.328125 C 71.332031 197.546875 69.859375 196.160156 68.078125 196.253906 C 61.269531 196.554688 54.789062 197.941406 48.820312 199.960938 C 51.050781 191.402344 58.46875 175.007812 82.726562 171.929688 C 84.472656 171.71875 85.710938 170.125 85.5 168.34375 C 85.257812 166.59375 83.660156 165.359375 81.910156 165.570312 C 49.03125 169.730469 42.820312 195.378906 41.679688 202.726562 C 34.746094 205.800781 28.628906 209.570312 23.59375 213.246094 C 9.484375 205.511719 -0.0390625 190.535156 -0.0390625 173.324219 C -0.0390625 164.3125 2.550781 155.902344 7.074219 148.824219 C 10.535156 147.191406 15.117188 145.597656 20.453125 145.148438 C 19.789062 152.050781 20.09375 166.425781 31.363281 177.699219 C 32.597656 178.933594 34.648438 178.933594 35.910156 177.699219 C 37.144531 176.429688 37.144531 174.386719 35.910156 173.148438 C 26.054688 163.292969 26.265625 150.550781 26.867188 145.152344 C 29.761719 145.398438 32.804688 146.027344 35.9375 147.144531 C 37.59375 147.75 39.433594 146.84375 40.039062 145.1875 C 40.609375 143.496094 39.734375 141.65625 38.078125 141.085938 C 33.230469 139.371094 28.617188 138.648438 24.339844 138.582031 C 24.21875 138.582031 24.128906 138.582031 24.035156 138.582031 C 18.488281 138.550781 13.515625 139.605469 9.359375 141.054688 C 6.890625 136.289062 5.503906 130.898438 5.503906 125.167969 C 5.503906 107 19.515625 92.105469 37.328125 90.695312 C 43.75 97.082031 53.785156 102.839844 68.796875 101.273438 C 70.542969 101.089844 71.839844 99.492188 71.660156 97.746094 C 71.476562 95.964844 69.878906 94.703125 68.132812 94.878906 C 54.480469 96.300781 45.707031 90.511719 40.433594 84.660156 C 39.980469 82.367188 39.710938 80.023438 39.710938 77.609375 C 39.710938 59.195312 54.085938 44.160156 72.226562 43.070312 C 72.796875 49.035156 73.914062 54.398438 75.363281 59.339844 C 69.816406 60.636719 59.871094 64.585938 53.089844 76.613281 C 52.214844 78.175781 52.761719 80.140625 54.324219 80.980469 C 55.863281 81.855469 57.820312 81.3125 58.695312 79.777344 C 64.664062 69.199219 73.285156 66.246094 77.351562 65.433594 C 79.496094 71.25 81.964844 76.492188 84.3125 81.433594 C 85.910156 84.78125 87.445312 88.035156 88.714844 91.082031 C 92.269531 99.761719 94.414062 107.75 92.992188 115.011719 C 85.96875 114.917969 66.921875 115.945312 55.410156 128.238281 C 51.972656 127.574219 43.476562 124.683594 36.84375 111.480469 C 36.0625 109.882812 34.128906 109.253906 32.566406 110.035156 C 30.96875 110.851562 30.335938 112.75 31.121094 114.347656 C 37.480469 127.0625 45.859375 131.886719 51.316406 133.695312 C 47.699219 139.78125 45.675781 147.796875 46.371094 158.40625 C 46.492188 160.183594 48.027344 161.539062 49.808594 161.421875 C 51.589844 161.300781 52.910156 159.765625 52.792969 157.984375 C 50.625 125.644531 79.34375 121.726562 90.738281 121.457031 C 87.511719 127.515625 81.125 133.300781 70.246094 138.996094 C 68.683594 139.8125 68.078125 141.738281 68.890625 143.308594 C 69.707031 144.875 71.632812 145.511719 73.230469 144.664062 C 88.117188 136.886719 95.652344 128.542969 98.519531 119.464844 C 98.550781 119.347656 98.609375 119.195312 98.636719 119.046875 C 98.695312 118.863281 98.726562 118.683594 98.789062 118.5 C 101.410156 109.039062 99 99.210938 94.660156 88.632812 C 93.304688 85.289062 91.734375 82.0625 90.140625 78.6875 C 85.039062 67.957031 79.316406 55.871094 78.410156 39.085938 Z M 78.410156 39.085938 " fill-opacity="1" fill-rule="evenodd"/></g><g clip-path="url(#fdf778fe65)"><g clip-path="url(#c25b2f95bc)"><g transform="matrix(1, 0, 0, 1, 154, 33)"><g clip-path="url(#5a5750a5fa)"><g clip-path="url(#1cac43bf6c)"><g clip-path="url(#993479dcdf)"><path fill="url(#4e387bf05f)" d="M 124.882812 0.386719 L 0.0195312 0.386719 L 0.0195312 245.238281 L 124.882812 245.238281 Z M 124.882812 0.386719 " fill-rule="nonzero"/></g></g></g></g></g></g><g clip-path="url(#6686dae44a)"><g clip-path="url(#3cd354551b)"><g transform="matrix(1, 0, 0, 1, 67, 102)"><g clip-path="url(#e7585ccf39)"><g clip-path="url(#f466ff3ecf)"><g clip-path="url(#915d6eec19)"><path fill="#7a9e7e" d="M 0.429688 0.421875 L 58.191406 0.421875 L 58.191406 60.214844 L 0.429688 60.214844 Z M 0.429688 0.421875 " fill-opacity="1" fill-rule="nonzero"/></g></g></g></g></g></g><g clip-path="url(#f04389aeb7)"><g clip-path="url(#2d93d9f1c1)"><g transform="matrix(1, 0, 0, 1, 76, 112)"><g clip-path="url(#17d233f9d9)"><g clip-path="url(#29fade966d)"><g clip-path="url(#8866f4b553)"><path fill="#1a2332" d="M 0.402344 0.113281 L 131.113281 0.113281 L 131.113281 28.542969 L 0.402344 28.542969 Z M 0.402344 0.113281 " fill-opacity="1" fill-rule="nonzero"/></g></g></g></g></g></g><g clip-path="url(#467309e951)"><g clip-path="url(#535bdc3b2b)"><g transform="matrix(1, 0, 0, 1, 229, 74)"><g clip-path="url(#a0524dc84b)"><g clip-path="url(#0530ec72bf)"><g clip-path="url(#b88db9c57a)"><path fill="#1a2332" d="M 0.0078125 0.855469 L 49.886719 0.855469 L 49.886719 140.171875 L 0.0078125 140.171875 Z M 0.0078125 0.855469 " fill-opacity="1" fill-rule="nonzero"/></g></g></g></g></g></g><g transform="matrix(1, 0, 0, 1, 297, 207)"><g clip-path="url(#a555eec4d5)"><g fill="#ffffff" fill-opacity="1"><g transform="translate(0.920232, 38.165417)"><g><path d="M 22.296875 0 L 16.421875 -8.375 C 15.691406 -8.320312 15.125 -8.296875 14.71875 -8.296875 L 7.984375 -8.296875 L 7.984375 0 L 4.09375 0 L 4.09375 -27.25 L 14.71875 -27.25 C 18.238281 -27.25 21.007812 -26.40625 23.03125 -24.71875 C 25.0625 -23.03125 26.078125 -20.707031 26.078125 -17.75 C 26.078125 -15.644531 25.554688 -13.851562 24.515625 -12.375 C 23.484375 -10.894531 22.003906 -9.816406 20.078125 -9.140625 L 26.546875 0 Z M 14.59375 -11.59375 C 17.0625 -11.59375 18.941406 -12.125 20.234375 -13.1875 C 21.535156 -14.257812 22.1875 -15.78125 22.1875 -17.75 C 22.1875 -19.71875 21.535156 -21.226562 20.234375 -22.28125 C 18.941406 -23.332031 17.0625 -23.859375 14.59375 -23.859375 L 7.984375 -23.859375 L 7.984375 -11.59375 Z M 14.59375 -11.59375 "/></g></g></g><g fill="#ffffff" fill-opacity="1"><g transform="translate(39.370128, 38.165417)"><g><path d="M 23.859375 -3.390625 L 23.859375 0 L 4.09375 0 L 4.09375 -27.25 L 23.3125 -27.25 L 23.3125 -23.859375 L 7.984375 -23.859375 L 7.984375 -15.484375 L 21.640625 -15.484375 L 21.640625 -12.1875 L 7.984375 -12.1875 L 7.984375 -3.390625 Z M 23.859375 -3.390625 "/></g></g></g><g fill="#ffffff" fill-opacity="1"><g transform="translate(75.601837, 38.165417)"><g><path d="M 16.265625 0.3125 C 13.546875 0.3125 11.085938 -0.289062 8.890625 -1.5 C 6.703125 -2.707031 4.984375 -4.367188 3.734375 -6.484375 C 2.492188 -8.597656 1.875 -10.976562 1.875 -13.625 C 1.875 -16.269531 2.492188 -18.648438 3.734375 -20.765625 C 4.984375 -22.878906 6.707031 -24.539062 8.90625 -25.75 C 11.113281 -26.957031 13.582031 -27.5625 16.3125 -27.5625 C 18.4375 -27.5625 20.378906 -27.203125 22.140625 -26.484375 C 23.910156 -25.773438 25.414062 -24.71875 26.65625 -23.3125 L 24.125 -20.859375 C 22.082031 -23.015625 19.53125 -24.09375 16.46875 -24.09375 C 14.4375 -24.09375 12.601562 -23.640625 10.96875 -22.734375 C 9.34375 -21.828125 8.066406 -20.570312 7.140625 -18.96875 C 6.222656 -17.375 5.765625 -15.59375 5.765625 -13.625 C 5.765625 -11.65625 6.222656 -9.867188 7.140625 -8.265625 C 8.066406 -6.671875 9.34375 -5.421875 10.96875 -4.515625 C 12.601562 -3.609375 14.4375 -3.15625 16.46875 -3.15625 C 19.5 -3.15625 22.050781 -4.242188 24.125 -6.421875 L 26.65625 -3.96875 C 25.414062 -2.570312 23.90625 -1.507812 22.125 -0.78125 C 20.34375 -0.0507812 18.390625 0.3125 16.265625 0.3125 Z M 16.265625 0.3125 "/></g></g></g><g fill="#ffffff" fill-opacity="1"><g transform="translate(113.896077, 38.165417)"><g><path d="M 16.390625 0.3125 C 13.640625 0.3125 11.160156 -0.289062 8.953125 -1.5 C 6.742188 -2.707031 5.007812 -4.375 3.75 -6.5 C 2.5 -8.625 1.875 -11 1.875 -13.625 C 1.875 -16.238281 2.5 -18.609375 3.75 -20.734375 C 5.007812 -22.867188 6.742188 -24.539062 8.953125 -25.75 C 11.160156 -26.957031 13.640625 -27.5625 16.390625 -27.5625 C 19.109375 -27.5625 21.570312 -26.957031 23.78125 -25.75 C 25.988281 -24.539062 27.710938 -22.878906 28.953125 -20.765625 C 30.203125 -18.648438 30.828125 -16.269531 30.828125 -13.625 C 30.828125 -10.976562 30.203125 -8.597656 28.953125 -6.484375 C 27.710938 -4.367188 25.988281 -2.707031 23.78125 -1.5 C 21.570312 -0.289062 19.109375 0.3125 16.390625 0.3125 Z M 16.390625 -3.15625 C 18.390625 -3.15625 20.1875 -3.609375 21.78125 -4.515625 C 23.375 -5.421875 24.628906 -6.671875 25.546875 -8.265625 C 26.472656 -9.867188 26.9375 -11.65625 26.9375 -13.625 C 26.9375 -15.59375 26.472656 -17.375 25.546875 -18.96875 C 24.628906 -20.570312 23.375 -21.828125 21.78125 -22.734375 C 20.1875 -23.640625 18.390625 -24.09375 16.390625 -24.09375 C 14.390625 -24.09375 12.578125 -23.640625 10.953125 -22.734375 C 9.335938 -21.828125 8.066406 -20.570312 7.140625 -18.96875 C 6.222656 -17.375 5.765625 -15.59375 5.765625 -13.625 C 5.765625 -11.65625 6.222656 -9.867188 7.140625 -8.265625 C 8.066406 -6.671875 9.335938 -5.421875 10.953125 -4.515625 C 12.578125 -3.609375 14.390625 -3.15625 16.390625 -3.15625 Z M 16.390625 -3.15625 "/></g></g></g><g fill="#ffffff" fill-opacity="1"><g transform="translate(156.743449, 38.165417)"><g><path d="M 27.75 -27.25 L 15.796875 0 L 11.953125 0 L -0.03125 -27.25 L 4.171875 -27.25 L 13.96875 -4.859375 L 23.859375 -27.25 Z M 27.75 -27.25 "/></g></g></g><g fill="#ffffff" fill-opacity="1"><g transform="translate(194.609617, 38.165417)"><g><path d="M 23.859375 -3.390625 L 23.859375 0 L 4.09375 0 L 4.09375 -27.25 L 23.3125 -27.25 L 23.3125 -23.859375 L 7.984375 -23.859375 L 7.984375 -15.484375 L 21.640625 -15.484375 L 21.640625 -12.1875 L 7.984375 -12.1875 L 7.984375 -3.390625 Z M 23.859375 -3.390625 "/></g></g></g><g fill="#ffffff" fill-opacity="1"><g transform="translate(230.841327, 38.165417)"><g><path d="M 22.296875 0 L 16.421875 -8.375 C 15.691406 -8.320312 15.125 -8.296875 14.71875 -8.296875 L 7.984375 -8.296875 L 7.984375 0 L 4.09375 0 L 4.09375 -27.25 L 14.71875 -27.25 C 18.238281 -27.25 21.007812 -26.40625 23.03125 -24.71875 C 25.0625 -23.03125 26.078125 -20.707031 26.078125 -17.75 C 26.078125 -15.644531 25.554688 -13.851562 24.515625 -12.375 C 23.484375 -10.894531 22.003906 -9.816406 20.078125 -9.140625 L 26.546875 0 Z M 14.59375 -11.59375 C 17.0625 -11.59375 18.941406 -12.125 20.234375 -13.1875 C 21.535156 -14.257812 22.1875 -15.78125 22.1875 -17.75 C 22.1875 -19.71875 21.535156 -21.226562 20.234375 -22.28125 C 18.941406 -23.332031 17.0625 -23.859375 14.59375 -23.859375 L 7.984375 -23.859375 L 7.984375 -11.59375 Z M 14.59375 -11.59375 "/></g></g></g><g fill="#ffffff" fill-opacity="1"><g transform="translate(269.291232, 38.165417)"><g><path d="M 14.515625 -9.421875 L 14.515625 0 L 10.671875 0 L 10.671875 -9.5 L -0.15625 -27.25 L 4.015625 -27.25 L 12.734375 -12.890625 L 21.484375 -27.25 L 25.34375 -27.25 Z M 14.515625 -9.421875 "/></g></g></g><g fill="#ffffff" fill-opacity="1"><g transform="translate(304.627857, 38.165417)"><g/></g></g><g fill="#ffffff" fill-opacity="1"><g transform="translate(325.254406, 38.165417)"><g><path d="M 12.03125 0.3125 C 9.976562 0.3125 8 -0.00390625 6.09375 -0.640625 C 4.1875 -1.273438 2.6875 -2.097656 1.59375 -3.109375 L 3.03125 -6.15625 C 4.070312 -5.21875 5.398438 -4.457031 7.015625 -3.875 C 8.640625 -3.289062 10.3125 -3 12.03125 -3 C 14.28125 -3 15.960938 -3.378906 17.078125 -4.140625 C 18.203125 -4.910156 18.765625 -5.929688 18.765625 -7.203125 C 18.765625 -8.140625 18.457031 -8.898438 17.84375 -9.484375 C 17.238281 -10.066406 16.488281 -10.507812 15.59375 -10.8125 C 14.695312 -11.125 13.429688 -11.476562 11.796875 -11.875 C 9.742188 -12.363281 8.085938 -12.851562 6.828125 -13.34375 C 5.566406 -13.84375 4.488281 -14.601562 3.59375 -15.625 C 2.695312 -16.65625 2.25 -18.035156 2.25 -19.765625 C 2.25 -21.222656 2.628906 -22.535156 3.390625 -23.703125 C 4.160156 -24.867188 5.320312 -25.800781 6.875 -26.5 C 8.4375 -27.207031 10.375 -27.5625 12.6875 -27.5625 C 14.300781 -27.5625 15.882812 -27.351562 17.4375 -26.9375 C 18.988281 -26.519531 20.328125 -25.921875 21.453125 -25.140625 L 20.15625 -22.03125 C 19.019531 -22.757812 17.800781 -23.3125 16.5 -23.6875 C 15.207031 -24.0625 13.9375 -24.25 12.6875 -24.25 C 10.476562 -24.25 8.820312 -23.84375 7.71875 -23.03125 C 6.625 -22.226562 6.078125 -21.191406 6.078125 -19.921875 C 6.078125 -18.992188 6.382812 -18.238281 7 -17.65625 C 7.625 -17.070312 8.394531 -16.613281 9.3125 -16.28125 C 10.238281 -15.957031 11.492188 -15.613281 13.078125 -15.25 C 15.128906 -14.757812 16.773438 -14.265625 18.015625 -13.765625 C 19.265625 -13.273438 20.335938 -12.523438 21.234375 -11.515625 C 22.128906 -10.503906 22.578125 -9.144531 22.578125 -7.4375 C 22.578125 -6.007812 22.1875 -4.703125 21.40625 -3.515625 C 20.625 -2.335938 19.441406 -1.40625 17.859375 -0.71875 C 16.273438 -0.03125 14.332031 0.3125 12.03125 0.3125 Z M 12.03125 0.3125 "/></g></g></g><g fill="#ffffff" fill-opacity="1"><g transform="translate(359.579215, 38.165417)"><g><path d="M 23.859375 -3.390625 L 23.859375 0 L 4.09375 0 L 4.09375 -27.25 L 23.3125 -27.25 L 23.3125 -23.859375 L 7.984375 -23.859375 L 7.984375 -15.484375 L 21.640625 -15.484375 L 21.640625 -12.1875 L 7.984375 -12.1875 L 7.984375 -3.390625 Z M 23.859375 -3.390625 "/></g></g></g><g fill="#ffffff" fill-opacity="1"><g transform="translate(395.810942, 38.165417)"><g><path d="M 22.296875 0 L 16.421875 -8.375 C 15.691406 -8.320312 15.125 -8.296875 14.71875 -8.296875 L 7.984375 -8.296875 L 7.984375 0 L 4.09375 0 L 4.09375 -27.25 L 14.71875 -27.25 C 18.238281 -27.25 21.007812 -26.40625 23.03125 -24.71875 C 25.0625 -23.03125 26.078125 -20.707031 26.078125 -17.75 C 26.078125 -15.644531 25.554688 -13.851562 24.515625 -12.375 C 23.484375 -10.894531 22.003906 -9.816406 20.078125 -9.140625 L 26.546875 0 Z M 14.59375 -11.59375 C 17.0625 -11.59375 18.941406 -12.125 20.234375 -13.1875 C 21.535156 -14.257812 22.1875 -15.78125 22.1875 -17.75 C 22.1875 -19.71875 21.535156 -21.226562 20.234375 -22.28125 C 18.941406 -23.332031 17.0625 -23.859375 14.59375 -23.859375 L 7.984375 -23.859375 L 7.984375 -11.59375 Z M 14.59375 -11.59375 "/></g></g></g><g fill="#ffffff" fill-opacity="1"><g transform="translate(434.260829, 38.165417)"><g><path d="M 27.75 -27.25 L 15.796875 0 L 11.953125 0 L -0.03125 -27.25 L 4.171875 -27.25 L 13.96875 -4.859375 L 23.859375 -27.25 Z M 27.75 -27.25 "/></g></g></g><g fill="#ffffff" fill-opacity="1"><g transform="translate(472.126997, 38.165417)"><g><path d="M 4.09375 -27.25 L 7.984375 -27.25 L 7.984375 0 L 4.09375 0 Z M 4.09375 -27.25 "/></g></g></g><g fill="#ffffff" fill-opacity="1"><g transform="translate(494.349082, 38.165417)"><g><path d="M 16.265625 0.3125 C 13.546875 0.3125 11.085938 -0.289062 8.890625 -1.5 C 6.703125 -2.707031 4.984375 -4.367188 3.734375 -6.484375 C 2.492188 -8.597656 1.875 -10.976562 1.875 -13.625 C 1.875 -16.269531 2.492188 -18.648438 3.734375 -20.765625 C 4.984375 -22.878906 6.707031 -24.539062 8.90625 -25.75 C 11.113281 -26.957031 13.582031 -27.5625 16.3125 -27.5625 C 18.4375 -27.5625 20.378906 -27.203125 22.140625 -26.484375 C 23.910156 -25.773438 25.414062 -24.71875 26.65625 -23.3125 L 24.125 -20.859375 C 22.082031 -23.015625 19.53125 -24.09375 16.46875 -24.09375 C 14.4375 -24.09375 12.601562 -23.640625 10.96875 -22.734375 C 9.34375 -21.828125 8.066406 -20.570312 7.140625 -18.96875 C 6.222656 -17.375 5.765625 -15.59375 5.765625 -13.625 C 5.765625 -11.65625 6.222656 -9.867188 7.140625 -8.265625 C 8.066406 -6.671875 9.34375 -5.421875 10.96875 -4.515625 C 12.601562 -3.609375 14.4375 -3.15625 16.46875 -3.15625 C 19.5 -3.15625 22.050781 -4.242188 24.125 -6.421875 L 26.65625 -3.96875 C 25.414062 -2.570312 23.90625 -1.507812 22.125 -0.78125 C 20.34375 -0.0507812 18.390625 0.3125 16.265625 0.3125 Z M 16.265625 0.3125 "/></g></g></g><g fill="#ffffff" fill-opacity="1"><g transform="translate(532.643313, 38.165417)"><g><path d="M 23.859375 -3.390625 L 23.859375 0 L 4.09375 0 L 4.09375 -27.25 L 23.3125 -27.25 L 23.3125 -23.859375 L 7.984375 -23.859375 L 7.984375 -15.484375 L 21.640625 -15.484375 L 21.640625 -12.1875 L 7.984375 -12.1875 L 7.984375 -3.390625 Z M 23.859375 -3.390625 "/></g></g></g><g fill="#ffffff" fill-opacity="1"><g transform="translate(568.875004, 38.165417)"><g><path d="M 12.03125 0.3125 C 9.976562 0.3125 8 -0.00390625 6.09375 -0.640625 C 4.1875 -1.273438 2.6875 -2.097656 1.59375 -3.109375 L 3.03125 -6.15625 C 4.070312 -5.21875 5.398438 -4.457031 7.015625 -3.875 C 8.640625 -3.289062 10.3125 -3 12.03125 -3 C 14.28125 -3 15.960938 -3.378906 17.078125 -4.140625 C 18.203125 -4.910156 18.765625 -5.929688 18.765625 -7.203125 C 18.765625 -8.140625 18.457031 -8.898438 17.84375 -9.484375 C 17.238281 -10.066406 16.488281 -10.507812 15.59375 -10.8125 C 14.695312 -11.125 13.429688 -11.476562 11.796875 -11.875 C 9.742188 -12.363281 8.085938 -12.851562 6.828125 -13.34375 C 5.566406 -13.84375 4.488281 -14.601562 3.59375 -15.625 C 2.695312 -16.65625 2.25 -18.035156 2.25 -19.765625 C 2.25 -21.222656 2.628906 -22.535156 3.390625 -23.703125 C 4.160156 -24.867188 5.320312 -25.800781 6.875 -26.5 C 8.4375 -27.207031 10.375 -27.5625 12.6875 -27.5625 C 14.300781 -27.5625 15.882812 -27.351562 17.4375 -26.9375 C 18.988281 -26.519531 20.328125 -25.921875 21.453125 -25.140625 L 20.15625 -22.03125 C 19.019531 -22.757812 17.800781 -23.3125 16.5 -23.6875 C 15.207031 -24.0625 13.9375 -24.25 12.6875 -24.25 C 10.476562 -24.25 8.820312 -23.84375 7.71875 -23.03125 C 6.625 -22.226562 6.078125 -21.191406 6.078125 -19.921875 C 6.078125 -18.992188 6.382812 -18.238281 7 -17.65625 C 7.625 -17.070312 8.394531 -16.613281 9.3125 -16.28125 C 10.238281 -15.957031 11.492188 -15.613281 13.078125 -15.25 C 15.128906 -14.757812 16.773438 -14.265625 18.015625 -13.765625 C 19.265625 -13.273438 20.335938 -12.523438 21.234375 -11.515625 C 22.128906 -10.503906 22.578125 -9.144531 22.578125 -7.4375 C 22.578125 -6.007812 22.1875 -4.703125 21.40625 -3.515625 C 20.625 -2.335938 19.441406 -1.40625 17.859375 -0.71875 C 16.273438 -0.03125 14.332031 0.3125 12.03125 0.3125 Z M 12.03125 0.3125 "/></g></g></g></g></g><g transform="matrix(1, 0, 0, 1, 227, 56)"><g clip-path="url(#0cec4fe208)"><g fill="#ffffff" fill-opacity="1"><g transform="translate(2.181498, 136.458812)"><g><path d="M 76.109375 0 L 56.6875 -28.0625 L 35.25 -28.0625 L 35.25 0 L 11.9375 0 L 11.9375 -100.71875 L 55.53125 -100.71875 C 64.457031 -100.71875 72.203125 -99.226562 78.765625 -96.25 C 85.335938 -93.28125 90.398438 -89.0625 93.953125 -83.59375 C 97.503906 -78.125 99.28125 -71.648438 99.28125 -64.171875 C 99.28125 -56.691406 97.476562 -50.238281 93.875 -44.8125 C 90.28125 -39.394531 85.175781 -35.25 78.5625 -32.375 L 101.140625 0 Z M 75.671875 -64.171875 C 75.671875 -69.828125 73.847656 -74.164062 70.203125 -77.1875 C 66.566406 -80.207031 61.242188 -81.71875 54.234375 -81.71875 L 35.25 -81.71875 L 35.25 -46.609375 L 54.234375 -46.609375 C 61.242188 -46.609375 66.566406 -48.144531 70.203125 -51.21875 C 73.847656 -54.289062 75.671875 -58.609375 75.671875 -64.171875 Z M 75.671875 -64.171875 "/></g></g></g><g fill="#ffffff" fill-opacity="1"><g transform="translate(107.912862, 136.458812)"><g><path d="M 89.921875 -18.703125 L 89.921875 0 L 11.9375 0 L 11.9375 -100.71875 L 88.046875 -100.71875 L 88.046875 -82.015625 L 35.109375 -82.015625 L 35.109375 -60.140625 L 81.859375 -60.140625 L 81.859375 -42.015625 L 35.109375 -42.015625 L 35.109375 -18.703125 Z M 89.921875 -18.703125 "/></g></g></g><g fill="#ffffff" fill-opacity="1"><g transform="translate(204.437683, 136.458812)"><g><path d="M 108.765625 -100.71875 L 65.171875 0 L 42.15625 0 L -1.296875 -100.71875 L 23.890625 -100.71875 L 54.53125 -28.78125 L 85.609375 -100.71875 Z M 108.765625 -100.71875 "/></g></g></g><g fill="#ffffff" fill-opacity="1"><g transform="translate(311.751425, 136.458812)"><g><path d="M 11.9375 -100.71875 L 35.25 -100.71875 L 35.25 0 L 11.9375 0 Z M 11.9375 -100.71875 "/></g></g></g><g fill="#ffffff" fill-opacity="1"><g transform="translate(358.934943, 136.458812)"><g><path d="M 108.765625 -100.71875 L 65.171875 0 L 42.15625 0 L -1.296875 -100.71875 L 23.890625 -100.71875 L 54.53125 -28.78125 L 85.609375 -100.71875 Z M 108.765625 -100.71875 "/></g></g></g><g fill="#ffffff" fill-opacity="1"><g transform="translate(466.248684, 136.458812)"><g><path d="M 78.265625 -21.578125 L 31.515625 -21.578125 L 22.59375 0 L -1.296875 0 L 43.59375 -100.71875 L 66.609375 -100.71875 L 111.640625 0 L 87.1875 0 Z M 70.9375 -39.28125 L 54.953125 -77.84375 L 38.984375 -39.28125 Z M 70.9375 -39.28125 "/></g></g></g><g fill="#ffffff" fill-opacity="1"><g transform="translate(576.439452, 136.458812)"><g><path d="M 11.9375 -100.71875 L 35.25 -100.71875 L 35.25 -18.984375 L 85.75 -18.984375 L 85.75 0 L 11.9375 0 Z M 11.9375 -100.71875 "/></g></g></g></g></g></svg>