<svg xmlns="http://www.w3.org/2000/svg" xmlns:xlink="http://www.w3.org/1999/xlink" width="1200" zoomAndPan="magnify" viewBox="0 0 900 299.999988" height="400" preserveAspectRatio="xMidYMid meet" version="1.0"><defs><g/><clipPath id="b50b092caa"><path d="M 0 19.070312 L 128 19.070312 L 128 271.820312 L 0 271.820312 Z M 0 19.070312 " clip-rule="nonzero"/></clipPath><clipPath id="9e55ece8e8"><path d="M 154.019531 23.113281 L 278.882812 23.113281 L 278.882812 268.453125 L 154.019531 268.453125 Z M 154.019531 23.113281 " clip-rule="nonzero"/></clipPath><clipPath id="274a7b325c"><path d="M 154.019531 268.039062 C 222.03125 268.039062 278.882812 212.28125 278.882812 145.578125 C 278.882812 78.875 222.03125 23.113281 154.019531 23.113281 Z M 154.019531 268.039062 " clip-rule="nonzero"/></clipPath><clipPath id="6676dae4ed"><path d="M 0.0195312 0.113281 L 124.882812 0.113281 L 124.882812 244.964844 L 0.0195312 244.964844 Z M 0.0195312 0.113281 " clip-rule="nonzero"/></clipPath><clipPath id="8034ef9cd7"><path d="M 0.0195312 245.039062 C 68.03125 245.039062 124.882812 189.28125 124.882812 122.578125 C 124.882812 55.875 68.03125 0.113281 0.0195312 0.113281 Z M 0.0195312 245.039062 " clip-rule="nonzero"/></clipPath><linearGradient x1="0.00668251" gradientTransform="matrix(0, 0.487746, -0.487746, 0, 124.881694, 0.111479)" y1="128" x2="502.006696" gradientUnits="userSpaceOnUse" y2="128" id="e8bd575f6c"><stop stop-opacity="1" stop-color="rgb(100%, 78.819275%, 44.708252%)" offset="0"/><stop stop-opacity="1" stop-color="rgb(100%, 78.649902%, 44.502258%)" offset="0.00390625"/><stop stop-opacity="1" stop-color="rgb(100%, 78.482056%, 44.297791%)" offset="0.0078125"/><stop stop-opacity="1" stop-color="rgb(100%, 78.312683%, 44.091797%)" offset="0.0117188"/><stop stop-opacity="1" stop-color="rgb(100%, 78.144836%, 43.887329%)" offset="0.015625"/><stop stop-opacity="1" stop-color="rgb(100%, 77.975464%, 43.681335%)" offset="0.0195312"/><stop stop-opacity="1" stop-color="rgb(100%, 77.807617%, 43.476868%)" offset="0.0234375"/><stop stop-opacity="1" stop-color="rgb(100%, 77.638245%, 43.270874%)" offset="0.0273438"/><stop stop-opacity="1" stop-color="rgb(100%, 77.470398%, 43.066406%)" offset="0.03125"/><stop stop-opacity="1" stop-color="rgb(100%, 77.302551%, 42.860413%)" offset="0.0351563"/><stop stop-opacity="1" stop-color="rgb(100%, 77.134705%, 42.655945%)" offset="0.0390625"/><stop stop-opacity="1" stop-color="rgb(100%, 76.965332%, 42.449951%)" offset="0.0429688"/><stop stop-opacity="1" stop-color="rgb(100%, 76.797485%, 42.245483%)" offset="0.046875"/><stop stop-opacity="1" stop-color="rgb(100%, 76.628113%, 42.03949%)" offset="0.0507812"/><stop stop-opacity="1" stop-color="rgb(100%, 76.460266%, 41.835022%)" offset="0.0546875"/><stop stop-opacity="1" stop-color="rgb(100%, 76.290894%, 41.629028%)" offset="0.0585938"/><stop stop-opacity="1" stop-color="rgb(100%, 76.123047%, 41.424561%)" offset="0.0625"/><stop stop-opacity="1" stop-color="rgb(100%, 75.953674%, 41.218567%)" offset="0.0664062"/><stop stop-opacity="1" stop-color="rgb(100%, 75.785828%, 41.014099%)" offset="0.0703125"/><stop stop-opacity="1" stop-color="rgb(100%, 75.617981%, 40.808105%)" offset="0.0742188"/><stop stop-opacity="1" stop-color="rgb(100%, 75.450134%, 40.603638%)" offset="0.078125"/><stop stop-opacity="1" stop-color="rgb(100%, 75.280762%, 40.397644%)" offset="0.0820312"/><stop stop-opacity="1" stop-color="rgb(100%, 75.112915%, 40.193176%)" offset="0.0859375"/><stop stop-opacity="1" stop-color="rgb(100%, 74.943542%, 39.987183%)" offset="0.0898438"/><stop stop-opacity="1" stop-color="rgb(100%, 74.775696%, 39.782715%)" offset="0.09375"/><stop stop-opacity="1" stop-color="rgb(100%, 74.606323%, 39.576721%)" offset="0.0976563"/><stop stop-opacity="1" stop-color="rgb(100%, 74.438477%, 39.372253%)" offset="0.101563"/><stop stop-opacity="1" stop-color="rgb(100%, 74.269104%, 39.16626%)" offset="0.105469"/><stop stop-opacity="1" stop-color="rgb(100%, 74.101257%, 38.961792%)" offset="0.109375"/><stop stop-opacity="1" stop-color="rgb(100%, 73.931885%, 38.755798%)" offset="0.113281"/><stop stop-opacity="1" stop-color="rgb(100%, 73.764038%, 38.551331%)" offset="0.117188"/><stop stop-opacity="1" stop-color="rgb(100%, 73.596191%, 38.345337%)" offset="0.121094"/><stop stop-opacity="1" stop-color="rgb(100%, 73.428345%, 38.140869%)" offset="0.125"/><stop stop-opacity="1" stop-color="rgb(100%, 73.258972%, 37.934875%)" offset="0.128906"/><stop stop-opacity="1" stop-color="rgb(100%, 73.091125%, 37.730408%)" offset="0.132812"/><stop stop-opacity="1" stop-color="rgb(100%, 72.921753%, 37.524414%)" offset="0.136719"/><stop stop-opacity="1" stop-color="rgb(100%, 72.753906%, 37.319946%)" offset="0.140625"/><stop stop-opacity="1" stop-color="rgb(100%, 72.584534%, 37.113953%)" offset="0.144531"/><stop stop-opacity="1" stop-color="rgb(100%, 72.416687%, 36.909485%)" offset="0.148437"/><stop stop-opacity="1" stop-color="rgb(100%, 72.247314%, 36.703491%)" offset="0.152344"/><stop stop-opacity="1" stop-color="rgb(100%, 72.079468%, 36.499023%)" offset="0.15625"/><stop stop-opacity="1" stop-color="rgb(100%, 71.911621%, 36.29303%)" offset="0.160156"/><stop stop-opacity="1" stop-color="rgb(100%, 71.743774%, 36.088562%)" offset="0.164062"/><stop stop-opacity="1" stop-color="rgb(100%, 71.574402%, 35.882568%)" offset="0.167969"/><stop stop-opacity="1" stop-color="rgb(100%, 71.406555%, 35.678101%)" offset="0.171875"/><stop stop-opacity="1" stop-color="rgb(100%, 71.237183%, 35.472107%)" offset="0.175781"/><stop stop-opacity="1" stop-color="rgb(100%, 71.069336%, 35.267639%)" offset="0.179688"/><stop stop-opacity="1" stop-color="rgb(100%, 70.899963%, 35.061646%)" offset="0.183594"/><stop stop-opacity="1" stop-color="rgb(100%, 70.732117%, 34.857178%)" offset="0.1875"/><stop stop-opacity="1" stop-color="rgb(100%, 70.562744%, 34.651184%)" offset="0.191406"/><stop stop-opacity="1" stop-color="rgb(100%, 70.394897%, 34.446716%)" offset="0.195313"/><stop stop-opacity="1" stop-color="rgb(100%, 70.227051%, 34.240723%)" offset="0.199219"/><stop stop-opacity="1" stop-color="rgb(100%, 70.059204%, 34.036255%)" offset="0.203125"/><stop stop-opacity="1" stop-color="rgb(100%, 69.889832%, 33.830261%)" offset="0.207031"/><stop stop-opacity="1" stop-color="rgb(100%, 69.721985%, 33.625793%)" offset="0.210938"/><stop stop-opacity="1" stop-color="rgb(100%, 69.552612%, 33.4198%)" offset="0.214844"/><stop stop-opacity="1" stop-color="rgb(100%, 69.384766%, 33.213806%)" offset="0.21875"/><stop stop-opacity="1" stop-color="rgb(100%, 69.215393%, 33.007812%)" offset="0.222656"/><stop stop-opacity="1" stop-color="rgb(100%, 69.047546%, 32.803345%)" offset="0.226562"/><stop stop-opacity="1" stop-color="rgb(100%, 68.878174%, 32.597351%)" offset="0.230469"/><stop stop-opacity="1" stop-color="rgb(100%, 68.710327%, 32.392883%)" offset="0.234375"/><stop stop-opacity="1" stop-color="rgb(100%, 68.54248%, 32.18689%)" offset="0.238281"/><stop stop-opacity="1" stop-color="rgb(100%, 68.374634%, 31.982422%)" offset="0.242188"/><stop stop-opacity="1" stop-color="rgb(100%, 68.205261%, 31.776428%)" offset="0.246094"/><stop stop-opacity="1" stop-color="rgb(100%, 68.037415%, 31.57196%)" offset="0.25"/><stop stop-opacity="1" stop-color="rgb(100%, 67.868042%, 31.365967%)" offset="0.253906"/><stop stop-opacity="1" stop-color="rgb(100%, 67.700195%, 31.161499%)" offset="0.257812"/><stop stop-opacity="1" stop-color="rgb(100%, 67.530823%, 30.955505%)" offset="0.261719"/><stop stop-opacity="1" stop-color="rgb(100%, 67.362976%, 30.751038%)" offset="0.265625"/><stop stop-opacity="1" stop-color="rgb(100%, 67.193604%, 30.545044%)" offset="0.269531"/><stop stop-opacity="1" stop-color="rgb(100%, 67.025757%, 30.340576%)" offset="0.273438"/><stop stop-opacity="1" stop-color="rgb(100%, 66.856384%, 30.134583%)" offset="0.277344"/><stop stop-opacity="1" stop-color="rgb(100%, 66.688538%, 29.930115%)" offset="0.28125"/><stop stop-opacity="1" stop-color="rgb(100%, 66.520691%, 29.724121%)" offset="0.285156"/><stop stop-opacity="1" stop-color="rgb(100%, 66.352844%, 29.519653%)" offset="0.289063"/><stop stop-opacity="1" stop-color="rgb(100%, 66.183472%, 29.31366%)" offset="0.292969"/><stop stop-opacity="1" stop-color="rgb(100%, 66.015625%, 29.109192%)" offset="0.296875"/><stop stop-opacity="1" stop-color="rgb(100%, 65.846252%, 28.903198%)" offset="0.300781"/><stop stop-opacity="1" stop-color="rgb(100%, 65.678406%, 28.69873%)" offset="0.304688"/><stop stop-opacity="1" stop-color="rgb(100%, 65.509033%, 28.492737%)" offset="0.308594"/><stop stop-opacity="1" stop-color="rgb(100%, 65.341187%, 28.288269%)" offset="0.3125"/><stop stop-opacity="1" stop-color="rgb(100%, 65.171814%, 28.082275%)" offset="0.316406"/><stop stop-opacity="1" stop-color="rgb(100%, 65.003967%, 27.877808%)" offset="0.320313"/><stop stop-opacity="1" stop-color="rgb(100%, 64.836121%, 27.671814%)" offset="0.324219"/><stop stop-opacity="1" stop-color="rgb(100%, 64.668274%, 27.467346%)" offset="0.328125"/><stop stop-opacity="1" stop-color="rgb(100%, 64.498901%, 27.261353%)" offset="0.332031"/><stop stop-opacity="1" stop-color="rgb(100%, 64.331055%, 27.056885%)" offset="0.335938"/><stop stop-opacity="1" stop-color="rgb(100%, 64.161682%, 26.850891%)" offset="0.339844"/><stop stop-opacity="1" stop-color="rgb(100%, 63.993835%, 26.646423%)" offset="0.34375"/><stop stop-opacity="1" stop-color="rgb(100%, 63.824463%, 26.44043%)" offset="0.347656"/><stop stop-opacity="1" stop-color="rgb(100%, 63.656616%, 26.235962%)" offset="0.351563"/><stop stop-opacity="1" stop-color="rgb(100%, 63.487244%, 26.029968%)" offset="0.355469"/><stop stop-opacity="1" stop-color="rgb(100%, 63.319397%, 25.8255%)" offset="0.359375"/><stop stop-opacity="1" stop-color="rgb(100%, 63.15155%, 25.619507%)" offset="0.363281"/><stop stop-opacity="1" stop-color="rgb(100%, 62.983704%, 25.415039%)" offset="0.367188"/><stop stop-opacity="1" stop-color="rgb(100%, 62.814331%, 25.209045%)" offset="0.371094"/><stop stop-opacity="1" stop-color="rgb(100%, 62.646484%, 25.004578%)" offset="0.375"/><stop stop-opacity="1" stop-color="rgb(100%, 62.477112%, 24.798584%)" offset="0.378906"/><stop stop-opacity="1" stop-color="rgb(100%, 62.309265%, 24.594116%)" offset="0.382813"/><stop stop-opacity="1" stop-color="rgb(100%, 62.139893%, 24.388123%)" offset="0.386719"/><stop stop-opacity="1" stop-color="rgb(100%, 61.972046%, 24.183655%)" offset="0.390625"/><stop stop-opacity="1" stop-color="rgb(100%, 61.802673%, 23.977661%)" offset="0.394531"/><stop stop-opacity="1" stop-color="rgb(100%, 61.634827%, 23.773193%)" offset="0.398438"/><stop stop-opacity="1" stop-color="rgb(100%, 61.46698%, 23.5672%)" offset="0.402344"/><stop stop-opacity="1" stop-color="rgb(100%, 61.299133%, 23.362732%)" offset="0.40625"/><stop stop-opacity="1" stop-color="rgb(100%, 61.129761%, 23.156738%)" offset="0.410156"/><stop stop-opacity="1" stop-color="rgb(100%, 60.961914%, 22.952271%)" offset="0.414063"/><stop stop-opacity="1" stop-color="rgb(100%, 60.792542%, 22.746277%)" offset="0.417969"/><stop stop-opacity="1" stop-color="rgb(100%, 60.624695%, 22.541809%)" offset="0.421875"/><stop stop-opacity="1" stop-color="rgb(100%, 60.455322%, 22.335815%)" offset="0.425781"/><stop stop-opacity="1" stop-color="rgb(100%, 60.287476%, 22.131348%)" offset="0.429688"/><stop stop-opacity="1" stop-color="rgb(100%, 60.118103%, 21.925354%)" offset="0.433594"/><stop stop-opacity="1" stop-color="rgb(100%, 59.950256%, 21.720886%)" offset="0.4375"/><stop stop-opacity="1" stop-color="rgb(100%, 59.780884%, 21.514893%)" offset="0.441406"/><stop stop-opacity="1" stop-color="rgb(100%, 59.613037%, 21.310425%)" offset="0.445313"/><stop stop-opacity="1" stop-color="rgb(100%, 59.44519%, 21.104431%)" offset="0.449219"/><stop stop-opacity="1" stop-color="rgb(100%, 59.277344%, 20.899963%)" offset="0.453125"/><stop stop-opacity="1" stop-color="rgb(100%, 59.107971%, 20.69397%)" offset="0.457031"/><stop stop-opacity="1" stop-color="rgb(100%, 58.940125%, 20.489502%)" offset="0.460938"/><stop stop-opacity="1" stop-color="rgb(100%, 58.770752%, 20.283508%)" offset="0.464844"/><stop stop-opacity="1" stop-color="rgb(100%, 58.602905%, 20.079041%)" offset="0.46875"/><stop stop-opacity="1" stop-color="rgb(100%, 58.433533%, 19.873047%)" offset="0.472656"/><stop stop-opacity="1" stop-color="rgb(100%, 58.265686%, 19.668579%)" offset="0.476563"/><stop stop-opacity="1" stop-color="rgb(100%, 58.096313%, 19.462585%)" offset="0.480469"/><stop stop-opacity="1" stop-color="rgb(100%, 57.928467%, 19.258118%)" offset="0.484375"/><stop stop-opacity="1" stop-color="rgb(100%, 57.76062%, 19.052124%)" offset="0.488281"/><stop stop-opacity="1" stop-color="rgb(100%, 57.592773%, 18.847656%)" offset="0.492188"/><stop stop-opacity="1" stop-color="rgb(100%, 57.423401%, 18.641663%)" offset="0.496094"/><stop stop-opacity="1" stop-color="rgb(100%, 57.255554%, 18.437195%)" offset="0.5"/><stop stop-opacity="1" stop-color="rgb(99.821472%, 57.21283%, 18.519592%)" offset="0.507812"/><stop stop-opacity="1" stop-color="rgb(99.462891%, 57.131958%, 18.692017%)" offset="0.515625"/><stop stop-opacity="1" stop-color="rgb(99.101257%, 57.051086%, 18.869019%)" offset="0.523438"/><stop stop-opacity="1" stop-color="rgb(98.739624%, 56.971741%, 19.047546%)" offset="0.53125"/><stop stop-opacity="1" stop-color="rgb(98.377991%, 56.892395%, 19.224548%)" offset="0.539062"/><stop stop-opacity="1" stop-color="rgb(98.016357%, 56.813049%, 19.403076%)" offset="0.546875"/><stop stop-opacity="1" stop-color="rgb(97.65625%, 56.733704%, 19.580078%)" offset="0.554688"/><stop stop-opacity="1" stop-color="rgb(97.294617%, 56.654358%, 19.75708%)" offset="0.5625"/><stop stop-opacity="1" stop-color="rgb(96.932983%, 56.575012%, 19.935608%)" offset="0.570312"/><stop stop-opacity="1" stop-color="rgb(96.57135%, 56.495667%, 20.11261%)" offset="0.578125"/><stop stop-opacity="1" stop-color="rgb(96.209717%, 56.416321%, 20.291138%)" offset="0.585937"/><stop stop-opacity="1" stop-color="rgb(95.848083%, 56.336975%, 20.46814%)" offset="0.59375"/><stop stop-opacity="1" stop-color="rgb(95.48645%, 56.256104%, 20.645142%)" offset="0.601562"/><stop stop-opacity="1" stop-color="rgb(95.124817%, 56.176758%, 20.823669%)" offset="0.609375"/><stop stop-opacity="1" stop-color="rgb(94.764709%, 56.097412%, 21.000671%)" offset="0.617187"/><stop stop-opacity="1" stop-color="rgb(94.403076%, 56.018066%, 21.179199%)" offset="0.625"/><stop stop-opacity="1" stop-color="rgb(94.041443%, 55.938721%, 21.356201%)" offset="0.632813"/><stop stop-opacity="1" stop-color="rgb(93.67981%, 55.859375%, 21.533203%)" offset="0.640625"/><stop stop-opacity="1" stop-color="rgb(93.318176%, 55.780029%, 21.711731%)" offset="0.648438"/><stop stop-opacity="1" stop-color="rgb(92.956543%, 55.700684%, 21.888733%)" offset="0.65625"/><stop stop-opacity="1" stop-color="rgb(92.59491%, 55.621338%, 22.067261%)" offset="0.664062"/><stop stop-opacity="1" stop-color="rgb(92.233276%, 55.540466%, 22.244263%)" offset="0.671875"/><stop stop-opacity="1" stop-color="rgb(91.871643%, 55.461121%, 22.421265%)" offset="0.679688"/><stop stop-opacity="1" stop-color="rgb(91.511536%, 55.381775%, 22.599792%)" offset="0.6875"/><stop stop-opacity="1" stop-color="rgb(91.149902%, 55.302429%, 22.776794%)" offset="0.695312"/><stop stop-opacity="1" stop-color="rgb(90.788269%, 55.223083%, 22.955322%)" offset="0.703125"/><stop stop-opacity="1" stop-color="rgb(90.426636%, 55.143738%, 23.132324%)" offset="0.710938"/><stop stop-opacity="1" stop-color="rgb(90.065002%, 55.064392%, 23.309326%)" offset="0.71875"/><stop stop-opacity="1" stop-color="rgb(89.703369%, 54.985046%, 23.487854%)" offset="0.726562"/><stop stop-opacity="1" stop-color="rgb(89.341736%, 54.905701%, 23.664856%)" offset="0.734375"/><stop stop-opacity="1" stop-color="rgb(88.980103%, 54.826355%, 23.841858%)" offset="0.742187"/><stop stop-opacity="1" stop-color="rgb(88.619995%, 54.745483%, 24.020386%)" offset="0.75"/><stop stop-opacity="1" stop-color="rgb(88.258362%, 54.666138%, 24.197388%)" offset="0.757813"/><stop stop-opacity="1" stop-color="rgb(87.896729%, 54.586792%, 24.375916%)" offset="0.765625"/><stop stop-opacity="1" stop-color="rgb(87.535095%, 54.507446%, 24.552917%)" offset="0.773438"/><stop stop-opacity="1" stop-color="rgb(87.173462%, 54.428101%, 24.729919%)" offset="0.78125"/><stop stop-opacity="1" stop-color="rgb(86.811829%, 54.348755%, 24.908447%)" offset="0.789063"/><stop stop-opacity="1" stop-color="rgb(86.450195%, 54.269409%, 25.085449%)" offset="0.796875"/><stop stop-opacity="1" stop-color="rgb(86.088562%, 54.190063%, 25.263977%)" offset="0.804688"/><stop stop-opacity="1" stop-color="rgb(85.728455%, 54.110718%, 25.440979%)" offset="0.8125"/><stop stop-opacity="1" stop-color="rgb(85.366821%, 54.029846%, 25.617981%)" offset="0.820312"/><stop stop-opacity="1" stop-color="rgb(85.005188%, 53.9505%, 25.796509%)" offset="0.828125"/><stop stop-opacity="1" stop-color="rgb(84.643555%, 53.871155%, 25.973511%)" offset="0.835938"/><stop stop-opacity="1" stop-color="rgb(84.281921%, 53.791809%, 26.152039%)" offset="0.84375"/><stop stop-opacity="1" stop-color="rgb(83.920288%, 53.712463%, 26.329041%)" offset="0.851562"/><stop stop-opacity="1" stop-color="rgb(83.558655%, 53.633118%, 26.506042%)" offset="0.859375"/><stop stop-opacity="1" stop-color="rgb(83.197021%, 53.553772%, 26.68457%)" offset="0.867188"/><stop stop-opacity="1" stop-color="rgb(82.835388%, 53.474426%, 26.861572%)" offset="0.875"/><stop stop-opacity="1" stop-color="rgb(82.475281%, 53.395081%, 27.0401%)" offset="0.882812"/><stop stop-opacity="1" stop-color="rgb(82.113647%, 53.315735%, 27.217102%)" offset="0.890625"/><stop stop-opacity="1" stop-color="rgb(81.752014%, 53.234863%, 27.394104%)" offset="0.898437"/><stop stop-opacity="1" stop-color="rgb(81.390381%, 53.155518%, 27.572632%)" offset="0.90625"/><stop stop-opacity="1" stop-color="rgb(81.028748%, 53.076172%, 27.749634%)" offset="0.914062"/><stop stop-opacity="1" stop-color="rgb(80.667114%, 52.996826%, 27.928162%)" offset="0.921875"/><stop stop-opacity="1" stop-color="rgb(80.305481%, 52.91748%, 28.105164%)" offset="0.929687"/><stop stop-opacity="1" stop-color="rgb(79.943848%, 52.838135%, 28.282166%)" offset="0.9375"/><stop stop-opacity="1" stop-color="rgb(79.58374%, 52.758789%, 28.460693%)" offset="0.945313"/><stop stop-opacity="1" stop-color="rgb(79.222107%, 52.679443%, 28.637695%)" offset="0.953125"/><stop stop-opacity="1" stop-color="rgb(78.860474%, 52.600098%, 28.814697%)" offset="0.960938"/><stop stop-opacity="1" stop-color="rgb(78.49884%, 52.519226%, 28.993225%)" offset="0.96875"/><stop stop-opacity="1" stop-color="rgb(78.137207%, 52.43988%, 29.170227%)" offset="0.976562"/><stop stop-opacity="1" stop-color="rgb(77.775574%, 52.360535%, 29.348755%)" offset="0.984375"/><stop stop-opacity="1" stop-color="rgb(77.41394%, 52.281189%, 29.525757%)" offset="0.992188"/><stop stop-opacity="1" stop-color="rgb(77.052307%, 52.201843%, 29.702759%)" offset="1"/></linearGradient><clipPath id="088d9e373c"><rect x="0" width="125" y="0" height="246"/></clipPath><clipPath id="283c4030f3"><path d="M 67.429688 92.148438 L 125.191406 92.148438 L 125.191406 152.167969 L 67.429688 152.167969 Z M 67.429688 92.148438 " clip-rule="nonzero"/></clipPath><clipPath id="b6fe12525f"><path d="M 93.679688 92.148438 L 98.941406 92.148438 C 113.4375 92.148438 125.191406 103.902344 125.191406 118.398438 L 125.191406 125.753906 C 125.191406 140.25 113.4375 152.003906 98.941406 152.003906 L 93.679688 152.003906 C 79.183594 152.003906 67.429688 140.25 67.429688 125.753906 L 67.429688 118.398438 C 67.429688 103.902344 79.183594 92.148438 93.679688 92.148438 Z M 93.679688 92.148438 " clip-rule="nonzero"/></clipPath><clipPath id="fef7bd2db5"><path d="M 0.429688 0.148438 L 58.191406 0.148438 L 58.191406 60 L 0.429688 60 Z M 0.429688 0.148438 " clip-rule="nonzero"/></clipPath><clipPath id="db9e2df61a"><path d="M 26.679688 0.148438 L 31.941406 0.148438 C 46.4375 0.148438 58.191406 11.902344 58.191406 26.398438 L 58.191406 33.753906 C 58.191406 48.25 46.4375 60.003906 31.941406 60.003906 L 26.679688 60.003906 C 12.183594 60.003906 0.429688 48.25 0.429688 33.753906 L 0.429688 26.398438 C 0.429688 11.902344 12.183594 0.148438 26.679688 0.148438 Z M 26.679688 0.148438 " clip-rule="nonzero"/></clipPath><clipPath id="02f05feb9a"><rect x="0" width="59" y="0" height="61"/></clipPath><clipPath id="e968392f1b"><path d="M 76.402344 101.839844 L 207.113281 101.839844 L 207.113281 130.269531 L 76.402344 130.269531 Z M 76.402344 101.839844 " clip-rule="nonzero"/></clipPath><clipPath id="125b4ea816"><path d="M 85.402344 101.839844 L 198.085938 101.839844 C 200.472656 101.839844 202.761719 102.789062 204.449219 104.476562 C 206.136719 106.164062 207.085938 108.453125 207.085938 110.839844 L 207.085938 121.269531 C 207.085938 123.65625 206.136719 125.945312 204.449219 127.632812 C 202.761719 129.320312 200.472656 130.269531 198.085938 130.269531 L 85.402344 130.269531 C 83.015625 130.269531 80.726562 129.320312 79.039062 127.632812 C 77.351562 125.945312 76.402344 123.65625 76.402344 121.269531 L 76.402344 110.839844 C 76.402344 108.453125 77.351562 106.164062 79.039062 104.476562 C 80.726562 102.789062 83.015625 101.839844 85.402344 101.839844 Z M 85.402344 101.839844 " clip-rule="nonzero"/></clipPath><clipPath id="38ed965bb9"><path d="M 0.402344 0.839844 L 131.113281 0.839844 L 131.113281 29.269531 L 0.402344 29.269531 Z M 0.402344 0.839844 " clip-rule="nonzero"/></clipPath><clipPath id="55e890d07d"><path d="M 9.402344 0.839844 L 122.085938 0.839844 C 124.472656 0.839844 126.761719 1.789062 128.449219 3.476562 C 130.136719 5.164062 131.085938 7.453125 131.085938 9.839844 L 131.085938 20.269531 C 131.085938 22.65625 130.136719 24.945312 128.449219 26.632812 C 126.761719 28.320312 124.472656 29.269531 122.085938 29.269531 L 9.402344 29.269531 C 7.015625 29.269531 4.726562 28.320312 3.039062 26.632812 C 1.351562 24.945312 0.402344 22.65625 0.402344 20.269531 L 0.402344 9.839844 C 0.402344 7.453125 1.351562 5.164062 3.039062 3.476562 C 4.726562 1.789062 7.015625 0.839844 9.402344 0.839844 Z M 9.402344 0.839844 " clip-rule="nonzero"/></clipPath><clipPath id="97aee5b161"><rect x="0" width="132" y="0" height="30"/></clipPath><clipPath id="7d50dfa257"><path d="M 229.007812 75.949219 L 278.886719 75.949219 L 278.886719 215.265625 L 229.007812 215.265625 Z M 229.007812 75.949219 " clip-rule="nonzero"/></clipPath><clipPath id="c85ca27c53"><path d="M 253.949219 75.949219 C 267.722656 75.949219 278.886719 87.113281 278.886719 100.890625 L 278.886719 190.273438 C 278.886719 204.046875 267.722656 215.214844 253.949219 215.214844 C 240.171875 215.214844 229.007812 204.046875 229.007812 190.273438 L 229.007812 100.890625 C 229.007812 87.113281 240.171875 75.949219 253.949219 75.949219 Z M 253.949219 75.949219 " clip-rule="nonzero"/></clipPath><clipPath id="8942e14b9b"><path d="M 0.0078125 0.949219 L 49.886719 0.949219 L 49.886719 140.265625 L 0.0078125 140.265625 Z M 0.0078125 0.949219 " clip-rule="nonzero"/></clipPath><clipPath id="a83610d7d6"><path d="M 24.949219 0.949219 C 38.722656 0.949219 49.886719 12.113281 49.886719 25.890625 L 49.886719 115.273438 C 49.886719 129.046875 38.722656 140.214844 24.949219 140.214844 C 11.171875 140.214844 0.0078125 129.046875 0.0078125 115.273438 L 0.0078125 25.890625 C 0.0078125 12.113281 11.171875 0.949219 24.949219 0.949219 Z M 24.949219 0.949219 " clip-rule="nonzero"/></clipPath><clipPath id="b161cb64a7"><rect x="0" width="50" y="0" height="141"/></clipPath><clipPath id="da7a5264be"><rect x="0" width="669" y="0" height="177"/></clipPath><clipPath id="0332d60ef7"><rect x="0" width="604" y="0" height="49"/></clipPath></defs><g clip-path="url(#b50b092caa)"><path fill="#7a9e7e" d="M 78.410156 28.8125 C 83.59375 22.90625 91.191406 19.140625 99.597656 19.140625 C 115.121094 19.140625 127.777344 31.828125 127.777344 47.320312 L 127.777344 243.847656 C 127.777344 259.339844 115.121094 272.027344 99.597656 272.027344 C 86.578125 272.027344 75.542969 263.046875 72.351562 250.960938 C 74.820312 246.019531 78.140625 240.714844 82.386719 235.949219 C 82.597656 235.765625 82.78125 235.589844 82.929688 235.378906 C 87.058594 230.917969 92.066406 226.972656 98.09375 224.351562 C 99.722656 223.660156 100.472656 221.761719 99.78125 220.132812 C 99.058594 218.5 97.191406 217.75 95.5625 218.476562 C 90.285156 220.734375 85.738281 223.871094 81.820312 227.484375 C 76.726562 206.539062 90.527344 191.050781 101.980469 178.175781 C 106.351562 173.292969 110.421875 168.746094 113.226562 164.191406 C 124.917969 145.234375 107.585938 121.9375 107.527344 121.878906 C 106.503906 120.429688 104.484375 120.128906 103.039062 121.1875 C 101.621094 122.242188 101.324219 124.230469 102.347656 125.675781 C 102.40625 125.734375 117.175781 145.59375 107.769531 160.816406 C 105.300781 164.824219 101.382812 169.195312 97.191406 173.894531 C 83.988281 188.691406 67.960938 206.6875 76.667969 232.816406 C 72.777344 237.363281 69.675781 242.3125 67.234375 246.976562 C 65.1875 247.398438 63.050781 247.609375 60.875 247.609375 C 42.941406 247.609375 28.417969 233.085938 28.417969 215.152344 C 28.417969 212.167969 28.8125 209.304688 29.5625 206.5625 C 34.140625 203.425781 39.503906 200.292969 45.503906 197.761719 C 45.773438 197.671875 46.046875 197.578125 46.285156 197.433594 C 52.976562 194.71875 60.390625 192.761719 68.347656 192.398438 C 70.128906 192.308594 71.480469 190.800781 71.421875 189.054688 C 71.332031 187.273438 69.859375 185.886719 68.078125 185.980469 C 61.269531 186.28125 54.789062 187.667969 48.820312 189.683594 C 51.050781 181.128906 58.46875 164.730469 82.726562 161.65625 C 84.472656 161.445312 85.710938 159.847656 85.5 158.070312 C 85.257812 156.320312 83.660156 155.085938 81.910156 155.296875 C 49.03125 159.457031 42.820312 185.105469 41.679688 192.453125 C 34.746094 195.527344 28.628906 199.292969 23.59375 202.972656 C 9.484375 195.238281 -0.0390625 180.261719 -0.0390625 163.046875 C -0.0390625 154.039062 2.550781 145.628906 7.074219 138.546875 C 10.535156 136.917969 15.117188 135.324219 20.453125 134.875 C 19.789062 141.773438 20.09375 156.152344 31.363281 167.425781 C 32.597656 168.660156 34.648438 168.660156 35.910156 167.425781 C 37.144531 166.15625 37.144531 164.113281 35.910156 162.875 C 26.054688 153.019531 26.265625 140.273438 26.867188 134.878906 C 29.761719 135.121094 32.804688 135.753906 35.9375 136.871094 C 37.59375 137.476562 39.433594 136.570312 40.039062 134.914062 C 40.609375 133.222656 39.734375 131.382812 38.078125 130.8125 C 33.230469 129.097656 28.617188 128.375 24.339844 128.308594 C 24.21875 128.308594 24.128906 128.308594 24.035156 128.308594 C 18.488281 128.277344 13.515625 129.332031 9.359375 130.78125 C 6.890625 126.015625 5.503906 120.625 5.503906 114.894531 C 5.503906 96.722656 19.515625 81.832031 37.328125 80.417969 C 43.75 86.808594 53.785156 92.5625 68.796875 91 C 70.542969 90.816406 71.839844 89.21875 71.660156 87.472656 C 71.476562 85.691406 69.878906 84.429688 68.132812 84.605469 C 54.480469 86.023438 45.707031 80.234375 40.433594 74.386719 C 39.980469 72.09375 39.710938 69.746094 39.710938 67.335938 C 39.710938 48.921875 54.085938 33.886719 72.226562 32.796875 C 72.796875 38.761719 73.914062 44.125 75.363281 49.066406 C 69.816406 50.363281 59.871094 54.3125 53.089844 66.335938 C 52.214844 67.902344 52.761719 69.867188 54.324219 70.707031 C 55.863281 71.582031 57.820312 71.039062 58.695312 69.503906 C 64.664062 58.925781 73.285156 55.972656 77.351562 55.160156 C 79.496094 60.976562 81.964844 66.21875 84.3125 71.160156 C 85.910156 74.507812 87.445312 77.757812 88.714844 80.808594 C 92.269531 89.488281 94.414062 97.472656 92.992188 104.734375 C 85.96875 104.644531 66.921875 105.667969 55.410156 117.964844 C 51.972656 117.300781 43.476562 114.410156 36.84375 101.207031 C 36.0625 99.609375 34.128906 98.980469 32.566406 99.761719 C 30.96875 100.578125 30.335938 102.476562 31.121094 104.074219 C 37.480469 116.789062 45.859375 121.613281 51.316406 123.421875 C 47.699219 129.507812 45.675781 137.523438 46.371094 148.128906 C 46.492188 149.910156 48.027344 151.265625 49.808594 151.148438 C 51.589844 151.027344 52.910156 149.492188 52.792969 147.710938 C 50.625 115.371094 79.34375 111.453125 90.738281 111.183594 C 87.511719 117.242188 81.125 123.027344 70.246094 128.722656 C 68.683594 129.539062 68.078125 131.464844 68.890625 133.035156 C 69.707031 134.597656 71.632812 135.234375 73.230469 134.390625 C 88.117188 126.613281 95.652344 118.269531 98.519531 109.191406 C 98.550781 109.074219 98.609375 108.921875 98.636719 108.773438 C 98.695312 108.589844 98.726562 108.410156 98.789062 108.226562 C 101.410156 98.761719 99 88.9375 94.660156 78.359375 C 93.304688 75.011719 91.734375 71.785156 90.140625 68.414062 C 85.039062 57.683594 79.316406 45.597656 78.410156 28.8125 Z M 78.410156 28.8125 " fill-opacity="1" fill-rule="evenodd"/></g><g clip-path="url(#9e55ece8e8)"><g clip-path="url(#274a7b325c)"><g transform="matrix(1, 0, 0, 1, 154, 23)"><g clip-path="url(#088d9e373c)"><g clip-path="url(#6676dae4ed)"><g clip-path="url(#8034ef9cd7)"><path fill="url(#e8bd575f6c)" d="M 124.882812 0.113281 L 0.0195312 0.113281 L 0.0195312 244.964844 L 124.882812 244.964844 Z M 124.882812 0.113281 " fill-rule="nonzero"/></g></g></g></g></g></g><g clip-path="url(#283c4030f3)"><g clip-path="url(#b6fe12525f)"><g transform="matrix(1, 0, 0, 1, 67, 92)"><g clip-path="url(#02f05feb9a)"><g clip-path="url(#fef7bd2db5)"><g clip-path="url(#db9e2df61a)"><path fill="#7a9e7e" d="M 0.429688 0.148438 L 58.191406 0.148438 L 58.191406 59.941406 L 0.429688 59.941406 Z M 0.429688 0.148438 " fill-opacity="1" fill-rule="nonzero"/></g></g></g></g></g></g><g clip-path="url(#e968392f1b)"><g clip-path="url(#125b4ea816)"><g transform="matrix(1, 0, 0, 1, 76, 101)"><g clip-path="url(#97aee5b161)"><g clip-path="url(#38ed965bb9)"><g clip-path="url(#55e890d07d)"><path fill="#ffffff" d="M 0.402344 0.839844 L 131.113281 0.839844 L 131.113281 29.269531 L 0.402344 29.269531 Z M 0.402344 0.839844 " fill-opacity="1" fill-rule="nonzero"/></g></g></g></g></g></g><g clip-path="url(#7d50dfa257)"><g clip-path="url(#c85ca27c53)"><g transform="matrix(1, 0, 0, 1, 229, 75)"><g clip-path="url(#b161cb64a7)"><g clip-path="url(#8942e14b9b)"><g clip-path="url(#a83610d7d6)"><path fill="#ffffff" d="M 0.0078125 0.949219 L 49.886719 0.949219 L 49.886719 140.265625 L 0.0078125 140.265625 Z M 0.0078125 0.949219 " fill-opacity="1" fill-rule="nonzero"/></g></g></g></g></g></g><g transform="matrix(1, 0, 0, 1, 228, 57)"><g clip-path="url(#da7a5264be)"><g fill="#545454" fill-opacity="1"><g transform="translate(2.681498, 136.553116)"><g><path d="M 76.109375 0 L 56.6875 -28.0625 L 35.25 -28.0625 L 35.25 0 L 11.9375 0 L 11.9375 -100.71875 L 55.53125 -100.71875 C 64.457031 -100.71875 72.203125 -99.226562 78.765625 -96.25 C 85.335938 -93.28125 90.398438 -89.0625 93.953125 -83.59375 C 97.503906 -78.125 99.28125 -71.648438 99.28125 -64.171875 C 99.28125 -56.691406 97.476562 -50.238281 93.875 -44.8125 C 90.28125 -39.394531 85.175781 -35.25 78.5625 -32.375 L 101.140625 0 Z M 75.671875 -64.171875 C 75.671875 -69.828125 73.847656 -74.164062 70.203125 -77.1875 C 66.566406 -80.207031 61.242188 -81.71875 54.234375 -81.71875 L 35.25 -81.71875 L 35.25 -46.609375 L 54.234375 -46.609375 C 61.242188 -46.609375 66.566406 -48.144531 70.203125 -51.21875 C 73.847656 -54.289062 75.671875 -58.609375 75.671875 -64.171875 Z M 75.671875 -64.171875 "/></g></g></g><g fill="#545454" fill-opacity="1"><g transform="translate(108.412862, 136.553116)"><g><path d="M 89.921875 -18.703125 L 89.921875 0 L 11.9375 0 L 11.9375 -100.71875 L 88.046875 -100.71875 L 88.046875 -82.015625 L 35.109375 -82.015625 L 35.109375 -60.140625 L 81.859375 -60.140625 L 81.859375 -42.015625 L 35.109375 -42.015625 L 35.109375 -18.703125 Z M 89.921875 -18.703125 "/></g></g></g><g fill="#545454" fill-opacity="1"><g transform="translate(204.937683, 136.553116)"><g><path d="M 108.765625 -100.71875 L 65.171875 0 L 42.15625 0 L -1.296875 -100.71875 L 23.890625 -100.71875 L 54.53125 -28.78125 L 85.609375 -100.71875 Z M 108.765625 -100.71875 "/></g></g></g><g fill="#545454" fill-opacity="1"><g transform="translate(312.251424, 136.553116)"><g><path d="M 11.9375 -100.71875 L 35.25 -100.71875 L 35.25 0 L 11.9375 0 Z M 11.9375 -100.71875 "/></g></g></g><g fill="#545454" fill-opacity="1"><g transform="translate(359.434942, 136.553116)"><g><path d="M 108.765625 -100.71875 L 65.171875 0 L 42.15625 0 L -1.296875 -100.71875 L 23.890625 -100.71875 L 54.53125 -28.78125 L 85.609375 -100.71875 Z M 108.765625 -100.71875 "/></g></g></g><g fill="#545454" fill-opacity="1"><g transform="translate(466.748684, 136.553116)"><g><path d="M 78.265625 -21.578125 L 31.515625 -21.578125 L 22.59375 0 L -1.296875 0 L 43.59375 -100.71875 L 66.609375 -100.71875 L 111.640625 0 L 87.1875 0 Z M 70.9375 -39.28125 L 54.953125 -77.84375 L 38.984375 -39.28125 Z M 70.9375 -39.28125 "/></g></g></g><g fill="#545454" fill-opacity="1"><g transform="translate(576.939452, 136.553116)"><g><path d="M 11.9375 -100.71875 L 35.25 -100.71875 L 35.25 -18.984375 L 85.75 -18.984375 L 85.75 0 L 11.9375 0 Z M 11.9375 -100.71875 "/></g></g></g></g></g><g transform="matrix(1, 0, 0, 1, 267, 207)"><g clip-path="url(#0332d60ef7)"><g fill="#000000" fill-opacity="1"><g transform="translate(0.920234, 37.726638)"><g><path d="M 22.296875 0 L 16.421875 -8.375 C 15.691406 -8.320312 15.125 -8.296875 14.71875 -8.296875 L 7.984375 -8.296875 L 7.984375 0 L 4.09375 0 L 4.09375 -27.25 L 14.71875 -27.25 C 18.238281 -27.25 21.007812 -26.40625 23.03125 -24.71875 C 25.0625 -23.03125 26.078125 -20.707031 26.078125 -17.75 C 26.078125 -15.644531 25.554688 -13.851562 24.515625 -12.375 C 23.484375 -10.894531 22.003906 -9.816406 20.078125 -9.140625 L 26.546875 0 Z M 14.59375 -11.59375 C 17.0625 -11.59375 18.941406 -12.125 20.234375 -13.1875 C 21.535156 -14.257812 22.1875 -15.78125 22.1875 -17.75 C 22.1875 -19.71875 21.535156 -21.226562 20.234375 -22.28125 C 18.941406 -23.332031 17.0625 -23.859375 14.59375 -23.859375 L 7.984375 -23.859375 L 7.984375 -11.59375 Z M 14.59375 -11.59375 "/></g></g></g><g fill="#000000" fill-opacity="1"><g transform="translate(39.37013, 37.726638)"><g><path d="M 23.859375 -3.390625 L 23.859375 0 L 4.09375 0 L 4.09375 -27.25 L 23.3125 -27.25 L 23.3125 -23.859375 L 7.984375 -23.859375 L 7.984375 -15.484375 L 21.640625 -15.484375 L 21.640625 -12.1875 L 7.984375 -12.1875 L 7.984375 -3.390625 Z M 23.859375 -3.390625 "/></g></g></g><g fill="#000000" fill-opacity="1"><g transform="translate(75.60184, 37.726638)"><g><path d="M 16.265625 0.3125 C 13.546875 0.3125 11.085938 -0.289062 8.890625 -1.5 C 6.703125 -2.707031 4.984375 -4.367188 3.734375 -6.484375 C 2.492188 -8.597656 1.875 -10.976562 1.875 -13.625 C 1.875 -16.269531 2.492188 -18.648438 3.734375 -20.765625 C 4.984375 -22.878906 6.707031 -24.539062 8.90625 -25.75 C 11.113281 -26.957031 13.582031 -27.5625 16.3125 -27.5625 C 18.4375 -27.5625 20.378906 -27.203125 22.140625 -26.484375 C 23.910156 -25.773438 25.414062 -24.71875 26.65625 -23.3125 L 24.125 -20.859375 C 22.082031 -23.015625 19.53125 -24.09375 16.46875 -24.09375 C 14.4375 -24.09375 12.601562 -23.640625 10.96875 -22.734375 C 9.34375 -21.828125 8.066406 -20.570312 7.140625 -18.96875 C 6.222656 -17.375 5.765625 -15.59375 5.765625 -13.625 C 5.765625 -11.65625 6.222656 -9.867188 7.140625 -8.265625 C 8.066406 -6.671875 9.34375 -5.421875 10.96875 -4.515625 C 12.601562 -3.609375 14.4375 -3.15625 16.46875 -3.15625 C 19.5 -3.15625 22.050781 -4.242188 24.125 -6.421875 L 26.65625 -3.96875 C 25.414062 -2.570312 23.90625 -1.507812 22.125 -0.78125 C 20.34375 -0.0507812 18.390625 0.3125 16.265625 0.3125 Z M 16.265625 0.3125 "/></g></g></g><g fill="#000000" fill-opacity="1"><g transform="translate(113.896079, 37.726638)"><g><path d="M 16.390625 0.3125 C 13.640625 0.3125 11.160156 -0.289062 8.953125 -1.5 C 6.742188 -2.707031 5.007812 -4.375 3.75 -6.5 C 2.5 -8.625 1.875 -11 1.875 -13.625 C 1.875 -16.238281 2.5 -18.609375 3.75 -20.734375 C 5.007812 -22.867188 6.742188 -24.539062 8.953125 -25.75 C 11.160156 -26.957031 13.640625 -27.5625 16.390625 -27.5625 C 19.109375 -27.5625 21.570312 -26.957031 23.78125 -25.75 C 25.988281 -24.539062 27.710938 -22.878906 28.953125 -20.765625 C 30.203125 -18.648438 30.828125 -16.269531 30.828125 -13.625 C 30.828125 -10.976562 30.203125 -8.597656 28.953125 -6.484375 C 27.710938 -4.367188 25.988281 -2.707031 23.78125 -1.5 C 21.570312 -0.289062 19.109375 0.3125 16.390625 0.3125 Z M 16.390625 -3.15625 C 18.390625 -3.15625 20.1875 -3.609375 21.78125 -4.515625 C 23.375 -5.421875 24.628906 -6.671875 25.546875 -8.265625 C 26.472656 -9.867188 26.9375 -11.65625 26.9375 -13.625 C 26.9375 -15.59375 26.472656 -17.375 25.546875 -18.96875 C 24.628906 -20.570312 23.375 -21.828125 21.78125 -22.734375 C 20.1875 -23.640625 18.390625 -24.09375 16.390625 -24.09375 C 14.390625 -24.09375 12.578125 -23.640625 10.953125 -22.734375 C 9.335938 -21.828125 8.066406 -20.570312 7.140625 -18.96875 C 6.222656 -17.375 5.765625 -15.59375 5.765625 -13.625 C 5.765625 -11.65625 6.222656 -9.867188 7.140625 -8.265625 C 8.066406 -6.671875 9.335938 -5.421875 10.953125 -4.515625 C 12.578125 -3.609375 14.390625 -3.15625 16.390625 -3.15625 Z M 16.390625 -3.15625 "/></g></g></g><g fill="#000000" fill-opacity="1"><g transform="translate(156.743452, 37.726638)"><g><path d="M 27.75 -27.25 L 15.796875 0 L 11.953125 0 L -0.03125 -27.25 L 4.171875 -27.25 L 13.96875 -4.859375 L 23.859375 -27.25 Z M 27.75 -27.25 "/></g></g></g><g fill="#000000" fill-opacity="1"><g transform="translate(194.60962, 37.726638)"><g><path d="M 23.859375 -3.390625 L 23.859375 0 L 4.09375 0 L 4.09375 -27.25 L 23.3125 -27.25 L 23.3125 -23.859375 L 7.984375 -23.859375 L 7.984375 -15.484375 L 21.640625 -15.484375 L 21.640625 -12.1875 L 7.984375 -12.1875 L 7.984375 -3.390625 Z M 23.859375 -3.390625 "/></g></g></g><g fill="#000000" fill-opacity="1"><g transform="translate(230.841329, 37.726638)"><g><path d="M 22.296875 0 L 16.421875 -8.375 C 15.691406 -8.320312 15.125 -8.296875 14.71875 -8.296875 L 7.984375 -8.296875 L 7.984375 0 L 4.09375 0 L 4.09375 -27.25 L 14.71875 -27.25 C 18.238281 -27.25 21.007812 -26.40625 23.03125 -24.71875 C 25.0625 -23.03125 26.078125 -20.707031 26.078125 -17.75 C 26.078125 -15.644531 25.554688 -13.851562 24.515625 -12.375 C 23.484375 -10.894531 22.003906 -9.816406 20.078125 -9.140625 L 26.546875 0 Z M 14.59375 -11.59375 C 17.0625 -11.59375 18.941406 -12.125 20.234375 -13.1875 C 21.535156 -14.257812 22.1875 -15.78125 22.1875 -17.75 C 22.1875 -19.71875 21.535156 -21.226562 20.234375 -22.28125 C 18.941406 -23.332031 17.0625 -23.859375 14.59375 -23.859375 L 7.984375 -23.859375 L 7.984375 -11.59375 Z M 14.59375 -11.59375 "/></g></g></g><g fill="#000000" fill-opacity="1"><g transform="translate(269.291234, 37.726638)"><g><path d="M 14.515625 -9.421875 L 14.515625 0 L 10.671875 0 L 10.671875 -9.5 L -0.15625 -27.25 L 4.015625 -27.25 L 12.734375 -12.890625 L 21.484375 -27.25 L 25.34375 -27.25 Z M 14.515625 -9.421875 "/></g></g></g><g fill="#000000" fill-opacity="1"><g transform="translate(304.62786, 37.726638)"><g/></g></g><g fill="#000000" fill-opacity="1"><g transform="translate(325.254408, 37.726638)"><g><path d="M 12.03125 0.3125 C 9.976562 0.3125 8 -0.00390625 6.09375 -0.640625 C 4.1875 -1.273438 2.6875 -2.097656 1.59375 -3.109375 L 3.03125 -6.15625 C 4.070312 -5.21875 5.398438 -4.457031 7.015625 -3.875 C 8.640625 -3.289062 10.3125 -3 12.03125 -3 C 14.28125 -3 15.960938 -3.378906 17.078125 -4.140625 C 18.203125 -4.910156 18.765625 -5.929688 18.765625 -7.203125 C 18.765625 -8.140625 18.457031 -8.898438 17.84375 -9.484375 C 17.238281 -10.066406 16.488281 -10.507812 15.59375 -10.8125 C 14.695312 -11.125 13.429688 -11.476562 11.796875 -11.875 C 9.742188 -12.363281 8.085938 -12.851562 6.828125 -13.34375 C 5.566406 -13.84375 4.488281 -14.601562 3.59375 -15.625 C 2.695312 -16.65625 2.25 -18.035156 2.25 -19.765625 C 2.25 -21.222656 2.628906 -22.535156 3.390625 -23.703125 C 4.160156 -24.867188 5.320312 -25.800781 6.875 -26.5 C 8.4375 -27.207031 10.375 -27.5625 12.6875 -27.5625 C 14.300781 -27.5625 15.882812 -27.351562 17.4375 -26.9375 C 18.988281 -26.519531 20.328125 -25.921875 21.453125 -25.140625 L 20.15625 -22.03125 C 19.019531 -22.757812 17.800781 -23.3125 16.5 -23.6875 C 15.207031 -24.0625 13.9375 -24.25 12.6875 -24.25 C 10.476562 -24.25 8.820312 -23.84375 7.71875 -23.03125 C 6.625 -22.226562 6.078125 -21.191406 6.078125 -19.921875 C 6.078125 -18.992188 6.382812 -18.238281 7 -17.65625 C 7.625 -17.070312 8.394531 -16.613281 9.3125 -16.28125 C 10.238281 -15.957031 11.492188 -15.613281 13.078125 -15.25 C 15.128906 -14.757812 16.773438 -14.265625 18.015625 -13.765625 C 19.265625 -13.273438 20.335938 -12.523438 21.234375 -11.515625 C 22.128906 -10.503906 22.578125 -9.144531 22.578125 -7.4375 C 22.578125 -6.007812 22.1875 -4.703125 21.40625 -3.515625 C 20.625 -2.335938 19.441406 -1.40625 17.859375 -0.71875 C 16.273438 -0.03125 14.332031 0.3125 12.03125 0.3125 Z M 12.03125 0.3125 "/></g></g></g><g fill="#000000" fill-opacity="1"><g transform="translate(359.579217, 37.726638)"><g><path d="M 23.859375 -3.390625 L 23.859375 0 L 4.09375 0 L 4.09375 -27.25 L 23.3125 -27.25 L 23.3125 -23.859375 L 7.984375 -23.859375 L 7.984375 -15.484375 L 21.640625 -15.484375 L 21.640625 -12.1875 L 7.984375 -12.1875 L 7.984375 -3.390625 Z M 23.859375 -3.390625 "/></g></g></g><g fill="#000000" fill-opacity="1"><g transform="translate(395.810944, 37.726638)"><g><path d="M 22.296875 0 L 16.421875 -8.375 C 15.691406 -8.320312 15.125 -8.296875 14.71875 -8.296875 L 7.984375 -8.296875 L 7.984375 0 L 4.09375 0 L 4.09375 -27.25 L 14.71875 -27.25 C 18.238281 -27.25 21.007812 -26.40625 23.03125 -24.71875 C 25.0625 -23.03125 26.078125 -20.707031 26.078125 -17.75 C 26.078125 -15.644531 25.554688 -13.851562 24.515625 -12.375 C 23.484375 -10.894531 22.003906 -9.816406 20.078125 -9.140625 L 26.546875 0 Z M 14.59375 -11.59375 C 17.0625 -11.59375 18.941406 -12.125 20.234375 -13.1875 C 21.535156 -14.257812 22.1875 -15.78125 22.1875 -17.75 C 22.1875 -19.71875 21.535156 -21.226562 20.234375 -22.28125 C 18.941406 -23.332031 17.0625 -23.859375 14.59375 -23.859375 L 7.984375 -23.859375 L 7.984375 -11.59375 Z M 14.59375 -11.59375 "/></g></g></g><g fill="#000000" fill-opacity="1"><g transform="translate(434.260831, 37.726638)"><g><path d="M 27.75 -27.25 L 15.796875 0 L 11.953125 0 L -0.03125 -27.25 L 4.171875 -27.25 L 13.96875 -4.859375 L 23.859375 -27.25 Z M 27.75 -27.25 "/></g></g></g><g fill="#000000" fill-opacity="1"><g transform="translate(472.126999, 37.726638)"><g><path d="M 4.09375 -27.25 L 7.984375 -27.25 L 7.984375 0 L 4.09375 0 Z M 4.09375 -27.25 "/></g></g></g><g fill="#000000" fill-opacity="1"><g transform="translate(494.349084, 37.726638)"><g><path d="M 16.265625 0.3125 C 13.546875 0.3125 11.085938 -0.289062 8.890625 -1.5 C 6.703125 -2.707031 4.984375 -4.367188 3.734375 -6.484375 C 2.492188 -8.597656 1.875 -10.976562 1.875 -13.625 C 1.875 -16.269531 2.492188 -18.648438 3.734375 -20.765625 C 4.984375 -22.878906 6.707031 -24.539062 8.90625 -25.75 C 11.113281 -26.957031 13.582031 -27.5625 16.3125 -27.5625 C 18.4375 -27.5625 20.378906 -27.203125 22.140625 -26.484375 C 23.910156 -25.773438 25.414062 -24.71875 26.65625 -23.3125 L 24.125 -20.859375 C 22.082031 -23.015625 19.53125 -24.09375 16.46875 -24.09375 C 14.4375 -24.09375 12.601562 -23.640625 10.96875 -22.734375 C 9.34375 -21.828125 8.066406 -20.570312 7.140625 -18.96875 C 6.222656 -17.375 5.765625 -15.59375 5.765625 -13.625 C 5.765625 -11.65625 6.222656 -9.867188 7.140625 -8.265625 C 8.066406 -6.671875 9.34375 -5.421875 10.96875 -4.515625 C 12.601562 -3.609375 14.4375 -3.15625 16.46875 -3.15625 C 19.5 -3.15625 22.050781 -4.242188 24.125 -6.421875 L 26.65625 -3.96875 C 25.414062 -2.570312 23.90625 -1.507812 22.125 -0.78125 C 20.34375 -0.0507812 18.390625 0.3125 16.265625 0.3125 Z M 16.265625 0.3125 "/></g></g></g><g fill="#000000" fill-opacity="1"><g transform="translate(532.643315, 37.726638)"><g><path d="M 23.859375 -3.390625 L 23.859375 0 L 4.09375 0 L 4.09375 -27.25 L 23.3125 -27.25 L 23.3125 -23.859375 L 7.984375 -23.859375 L 7.984375 -15.484375 L 21.640625 -15.484375 L 21.640625 -12.1875 L 7.984375 -12.1875 L 7.984375 -3.390625 Z M 23.859375 -3.390625 "/></g></g></g><g fill="#000000" fill-opacity="1"><g transform="translate(568.875007, 37.726638)"><g><path d="M 12.03125 0.3125 C 9.976562 0.3125 8 -0.00390625 6.09375 -0.640625 C 4.1875 -1.273438 2.6875 -2.097656 1.59375 -3.109375 L 3.03125 -6.15625 C 4.070312 -5.21875 5.398438 -4.457031 7.015625 -3.875 C 8.640625 -3.289062 10.3125 -3 12.03125 -3 C 14.28125 -3 15.960938 -3.378906 17.078125 -4.140625 C 18.203125 -4.910156 18.765625 -5.929688 18.765625 -7.203125 C 18.765625 -8.140625 18.457031 -8.898438 17.84375 -9.484375 C 17.238281 -10.066406 16.488281 -10.507812 15.59375 -10.8125 C 14.695312 -11.125 13.429688 -11.476562 11.796875 -11.875 C 9.742188 -12.363281 8.085938 -12.851562 6.828125 -13.34375 C 5.566406 -13.84375 4.488281 -14.601562 3.59375 -15.625 C 2.695312 -16.65625 2.25 -18.035156 2.25 -19.765625 C 2.25 -21.222656 2.628906 -22.535156 3.390625 -23.703125 C 4.160156 -24.867188 5.320312 -25.800781 6.875 -26.5 C 8.4375 -27.207031 10.375 -27.5625 12.6875 -27.5625 C 14.300781 -27.5625 15.882812 -27.351562 17.4375 -26.9375 C 18.988281 -26.519531 20.328125 -25.921875 21.453125 -25.140625 L 20.15625 -22.03125 C 19.019531 -22.757812 17.800781 -23.3125 16.5 -23.6875 C 15.207031 -24.0625 13.9375 -24.25 12.6875 -24.25 C 10.476562 -24.25 8.820312 -23.84375 7.71875 -23.03125 C 6.625 -22.226562 6.078125 -21.191406 6.078125 -19.921875 C 6.078125 -18.992188 6.382812 -18.238281 7 -17.65625 C 7.625 -17.070312 8.394531 -16.613281 9.3125 -16.28125 C 10.238281 -15.957031 11.492188 -15.613281 13.078125 -15.25 C 15.128906 -14.757812 16.773438 -14.265625 18.015625 -13.765625 C 19.265625 -13.273438 20.335938 -12.523438 21.234375 -11.515625 C 22.128906 -10.503906 22.578125 -9.144531 22.578125 -7.4375 C 22.578125 -6.007812 22.1875 -4.703125 21.40625 -3.515625 C 20.625 -2.335938 19.441406 -1.40625 17.859375 -0.71875 C 16.273438 -0.03125 14.332031 0.3125 12.03125 0.3125 Z M 12.03125 0.3125 "/></g></g></g></g></g></svg>