<svg xmlns="http://www.w3.org/2000/svg" xmlns:xlink="http://www.w3.org/1999/xlink" width="1200" zoomAndPan="magnify" viewBox="0 0 900 299.999988" height="400" preserveAspectRatio="xMidYMid meet" version="1.0"><defs><g/><clipPath id="f6d79782b4"><path d="M 0 1.070312 L 128 1.070312 L 128 253.964844 L 0 253.964844 Z M 0 1.070312 " clip-rule="nonzero"/></clipPath><clipPath id="a63162e17f"><path d="M 154.019531 5.117188 L 278.882812 5.117188 L 278.882812 250.453125 L 154.019531 250.453125 Z M 154.019531 5.117188 " clip-rule="nonzero"/></clipPath><clipPath id="e1c37137a9"><path d="M 154.019531 250.042969 C 222.03125 250.042969 278.882812 194.285156 278.882812 127.578125 C 278.882812 60.875 222.03125 5.117188 154.019531 5.117188 Z M 154.019531 250.042969 " clip-rule="nonzero"/></clipPath><clipPath id="4998ae38d8"><path d="M 0.0195312 0.117188 L 124.882812 0.117188 L 124.882812 244.96875 L 0.0195312 244.96875 Z M 0.0195312 0.117188 " clip-rule="nonzero"/></clipPath><clipPath id="dd73d7ccf0"><path d="M 0.0195312 245.042969 C 68.03125 245.042969 124.882812 189.285156 124.882812 122.578125 C 124.882812 55.875 68.03125 0.117188 0.0195312 0.117188 Z M 0.0195312 245.042969 " clip-rule="nonzero"/></clipPath><linearGradient x1="0.00668249" gradientTransform="matrix(0, 0.487746, -0.487746, 0, 124.883043, 0.114932)" y1="128" x2="502.006696" gradientUnits="userSpaceOnUse" y2="128" id="614e124542"><stop stop-opacity="1" stop-color="rgb(96.080017%, 94.119263%, 90.977478%)" offset="0"/><stop stop-opacity="1" stop-color="rgb(96.092224%, 93.948364%, 90.646362%)" offset="0.00390625"/><stop stop-opacity="1" stop-color="rgb(96.104431%, 93.778992%, 90.316772%)" offset="0.0078125"/><stop stop-opacity="1" stop-color="rgb(96.116638%, 93.608093%, 89.985657%)" offset="0.0117187"/><stop stop-opacity="1" stop-color="rgb(96.128845%, 93.438721%, 89.654541%)" offset="0.015625"/><stop stop-opacity="1" stop-color="rgb(96.141052%, 93.267822%, 89.323425%)" offset="0.0195312"/><stop stop-opacity="1" stop-color="rgb(96.153259%, 93.09845%, 88.993835%)" offset="0.0234375"/><stop stop-opacity="1" stop-color="rgb(96.165466%, 92.927551%, 88.66272%)" offset="0.0273438"/><stop stop-opacity="1" stop-color="rgb(96.177673%, 92.758179%, 88.331604%)" offset="0.03125"/><stop stop-opacity="1" stop-color="rgb(96.18988%, 92.588806%, 88.000488%)" offset="0.0351563"/><stop stop-opacity="1" stop-color="rgb(96.202087%, 92.419434%, 87.670898%)" offset="0.0390625"/><stop stop-opacity="1" stop-color="rgb(96.214294%, 92.248535%, 87.339783%)" offset="0.0429688"/><stop stop-opacity="1" stop-color="rgb(96.226501%, 92.079163%, 87.008667%)" offset="0.046875"/><stop stop-opacity="1" stop-color="rgb(96.238708%, 91.908264%, 86.677551%)" offset="0.0507813"/><stop stop-opacity="1" stop-color="rgb(96.250916%, 91.738892%, 86.346436%)" offset="0.0546875"/><stop stop-opacity="1" stop-color="rgb(96.263123%, 91.567993%, 86.01532%)" offset="0.0585938"/><stop stop-opacity="1" stop-color="rgb(96.27533%, 91.398621%, 85.68573%)" offset="0.0625"/><stop stop-opacity="1" stop-color="rgb(96.287537%, 91.227722%, 85.354614%)" offset="0.0664062"/><stop stop-opacity="1" stop-color="rgb(96.299744%, 91.05835%, 85.023499%)" offset="0.0703125"/><stop stop-opacity="1" stop-color="rgb(96.311951%, 90.888977%, 84.692383%)" offset="0.0742188"/><stop stop-opacity="1" stop-color="rgb(96.324158%, 90.719604%, 84.362793%)" offset="0.078125"/><stop stop-opacity="1" stop-color="rgb(96.336365%, 90.548706%, 84.031677%)" offset="0.0820312"/><stop stop-opacity="1" stop-color="rgb(96.348572%, 90.379333%, 83.700562%)" offset="0.0859375"/><stop stop-opacity="1" stop-color="rgb(96.360779%, 90.208435%, 83.369446%)" offset="0.0898438"/><stop stop-opacity="1" stop-color="rgb(96.372986%, 90.039062%, 83.03833%)" offset="0.09375"/><stop stop-opacity="1" stop-color="rgb(96.385193%, 89.868164%, 82.707214%)" offset="0.0976563"/><stop stop-opacity="1" stop-color="rgb(96.3974%, 89.698792%, 82.377625%)" offset="0.101563"/><stop stop-opacity="1" stop-color="rgb(96.409607%, 89.527893%, 82.046509%)" offset="0.105469"/><stop stop-opacity="1" stop-color="rgb(96.42334%, 89.358521%, 81.715393%)" offset="0.109375"/><stop stop-opacity="1" stop-color="rgb(96.435547%, 89.189148%, 81.384277%)" offset="0.113281"/><stop stop-opacity="1" stop-color="rgb(96.447754%, 89.019775%, 81.054688%)" offset="0.117188"/><stop stop-opacity="1" stop-color="rgb(96.459961%, 88.848877%, 80.723572%)" offset="0.121094"/><stop stop-opacity="1" stop-color="rgb(96.472168%, 88.679504%, 80.392456%)" offset="0.125"/><stop stop-opacity="1" stop-color="rgb(96.484375%, 88.508606%, 80.06134%)" offset="0.128906"/><stop stop-opacity="1" stop-color="rgb(96.496582%, 88.339233%, 79.73175%)" offset="0.132812"/><stop stop-opacity="1" stop-color="rgb(96.508789%, 88.168335%, 79.400635%)" offset="0.136719"/><stop stop-opacity="1" stop-color="rgb(96.520996%, 87.998962%, 79.069519%)" offset="0.140625"/><stop stop-opacity="1" stop-color="rgb(96.533203%, 87.828064%, 78.738403%)" offset="0.144531"/><stop stop-opacity="1" stop-color="rgb(96.54541%, 87.658691%, 78.407288%)" offset="0.148438"/><stop stop-opacity="1" stop-color="rgb(96.557617%, 87.487793%, 78.076172%)" offset="0.152344"/><stop stop-opacity="1" stop-color="rgb(96.569824%, 87.31842%, 77.746582%)" offset="0.15625"/><stop stop-opacity="1" stop-color="rgb(96.582031%, 87.149048%, 77.415466%)" offset="0.160156"/><stop stop-opacity="1" stop-color="rgb(96.594238%, 86.979675%, 77.084351%)" offset="0.164062"/><stop stop-opacity="1" stop-color="rgb(96.606445%, 86.808777%, 76.753235%)" offset="0.167969"/><stop stop-opacity="1" stop-color="rgb(96.618652%, 86.639404%, 76.423645%)" offset="0.171875"/><stop stop-opacity="1" stop-color="rgb(96.630859%, 86.468506%, 76.092529%)" offset="0.175781"/><stop stop-opacity="1" stop-color="rgb(96.643066%, 86.299133%, 75.761414%)" offset="0.179688"/><stop stop-opacity="1" stop-color="rgb(96.655273%, 86.128235%, 75.430298%)" offset="0.183594"/><stop stop-opacity="1" stop-color="rgb(96.66748%, 85.958862%, 75.099182%)" offset="0.1875"/><stop stop-opacity="1" stop-color="rgb(96.679688%, 85.787964%, 74.768066%)" offset="0.191406"/><stop stop-opacity="1" stop-color="rgb(96.691895%, 85.618591%, 74.438477%)" offset="0.195313"/><stop stop-opacity="1" stop-color="rgb(96.704102%, 85.449219%, 74.107361%)" offset="0.199219"/><stop stop-opacity="1" stop-color="rgb(96.716309%, 85.279846%, 73.776245%)" offset="0.203125"/><stop stop-opacity="1" stop-color="rgb(96.728516%, 85.108948%, 73.445129%)" offset="0.207031"/><stop stop-opacity="1" stop-color="rgb(96.740723%, 84.939575%, 73.11554%)" offset="0.210938"/><stop stop-opacity="1" stop-color="rgb(96.75293%, 84.768677%, 72.784424%)" offset="0.214844"/><stop stop-opacity="1" stop-color="rgb(96.766663%, 84.599304%, 72.453308%)" offset="0.21875"/><stop stop-opacity="1" stop-color="rgb(96.77887%, 84.428406%, 72.122192%)" offset="0.222656"/><stop stop-opacity="1" stop-color="rgb(96.791077%, 84.259033%, 71.792603%)" offset="0.226563"/><stop stop-opacity="1" stop-color="rgb(96.803284%, 84.088135%, 71.461487%)" offset="0.230469"/><stop stop-opacity="1" stop-color="rgb(96.815491%, 83.918762%, 71.130371%)" offset="0.234375"/><stop stop-opacity="1" stop-color="rgb(96.827698%, 83.74939%, 70.799255%)" offset="0.238281"/><stop stop-opacity="1" stop-color="rgb(96.839905%, 83.580017%, 70.46814%)" offset="0.242188"/><stop stop-opacity="1" stop-color="rgb(96.852112%, 83.409119%, 70.137024%)" offset="0.246094"/><stop stop-opacity="1" stop-color="rgb(96.864319%, 83.239746%, 69.807434%)" offset="0.25"/><stop stop-opacity="1" stop-color="rgb(96.876526%, 83.068848%, 69.476318%)" offset="0.253906"/><stop stop-opacity="1" stop-color="rgb(96.888733%, 82.899475%, 69.145203%)" offset="0.257813"/><stop stop-opacity="1" stop-color="rgb(96.90094%, 82.728577%, 68.814087%)" offset="0.261719"/><stop stop-opacity="1" stop-color="rgb(96.913147%, 82.559204%, 68.484497%)" offset="0.265625"/><stop stop-opacity="1" stop-color="rgb(96.925354%, 82.388306%, 68.153381%)" offset="0.269531"/><stop stop-opacity="1" stop-color="rgb(96.937561%, 82.218933%, 67.822266%)" offset="0.273438"/><stop stop-opacity="1" stop-color="rgb(96.949768%, 82.049561%, 67.49115%)" offset="0.277344"/><stop stop-opacity="1" stop-color="rgb(96.961975%, 81.880188%, 67.160034%)" offset="0.28125"/><stop stop-opacity="1" stop-color="rgb(96.974182%, 81.70929%, 66.828918%)" offset="0.285156"/><stop stop-opacity="1" stop-color="rgb(96.986389%, 81.539917%, 66.499329%)" offset="0.289063"/><stop stop-opacity="1" stop-color="rgb(96.998596%, 81.369019%, 66.168213%)" offset="0.292969"/><stop stop-opacity="1" stop-color="rgb(97.010803%, 81.199646%, 65.837097%)" offset="0.296875"/><stop stop-opacity="1" stop-color="rgb(97.02301%, 81.028748%, 65.505981%)" offset="0.300781"/><stop stop-opacity="1" stop-color="rgb(97.035217%, 80.859375%, 65.176392%)" offset="0.304688"/><stop stop-opacity="1" stop-color="rgb(97.047424%, 80.688477%, 64.845276%)" offset="0.308594"/><stop stop-opacity="1" stop-color="rgb(97.059631%, 80.519104%, 64.51416%)" offset="0.3125"/><stop stop-opacity="1" stop-color="rgb(97.071838%, 80.349731%, 64.183044%)" offset="0.316406"/><stop stop-opacity="1" stop-color="rgb(97.084045%, 80.180359%, 63.853455%)" offset="0.320313"/><stop stop-opacity="1" stop-color="rgb(97.096252%, 80.00946%, 63.522339%)" offset="0.324219"/><stop stop-opacity="1" stop-color="rgb(97.109985%, 79.840088%, 63.191223%)" offset="0.328125"/><stop stop-opacity="1" stop-color="rgb(97.122192%, 79.669189%, 62.860107%)" offset="0.332031"/><stop stop-opacity="1" stop-color="rgb(97.134399%, 79.499817%, 62.528992%)" offset="0.335938"/><stop stop-opacity="1" stop-color="rgb(97.146606%, 79.328918%, 62.197876%)" offset="0.339844"/><stop stop-opacity="1" stop-color="rgb(97.158813%, 79.159546%, 61.868286%)" offset="0.34375"/><stop stop-opacity="1" stop-color="rgb(97.171021%, 78.988647%, 61.53717%)" offset="0.347656"/><stop stop-opacity="1" stop-color="rgb(97.183228%, 78.819275%, 61.206055%)" offset="0.351563"/><stop stop-opacity="1" stop-color="rgb(97.195435%, 78.649902%, 60.874939%)" offset="0.355469"/><stop stop-opacity="1" stop-color="rgb(97.207642%, 78.48053%, 60.545349%)" offset="0.359375"/><stop stop-opacity="1" stop-color="rgb(97.219849%, 78.309631%, 60.214233%)" offset="0.363281"/><stop stop-opacity="1" stop-color="rgb(97.232056%, 78.140259%, 59.883118%)" offset="0.367188"/><stop stop-opacity="1" stop-color="rgb(97.244263%, 77.96936%, 59.552002%)" offset="0.371094"/><stop stop-opacity="1" stop-color="rgb(97.25647%, 77.799988%, 59.220886%)" offset="0.375"/><stop stop-opacity="1" stop-color="rgb(97.268677%, 77.629089%, 58.889771%)" offset="0.378906"/><stop stop-opacity="1" stop-color="rgb(97.280884%, 77.459717%, 58.560181%)" offset="0.382813"/><stop stop-opacity="1" stop-color="rgb(97.293091%, 77.288818%, 58.229065%)" offset="0.386719"/><stop stop-opacity="1" stop-color="rgb(97.305298%, 77.119446%, 57.897949%)" offset="0.390625"/><stop stop-opacity="1" stop-color="rgb(97.317505%, 76.950073%, 57.566833%)" offset="0.394531"/><stop stop-opacity="1" stop-color="rgb(97.329712%, 76.780701%, 57.237244%)" offset="0.398438"/><stop stop-opacity="1" stop-color="rgb(97.341919%, 76.609802%, 56.906128%)" offset="0.402344"/><stop stop-opacity="1" stop-color="rgb(97.354126%, 76.44043%, 56.575012%)" offset="0.40625"/><stop stop-opacity="1" stop-color="rgb(97.366333%, 76.269531%, 56.243896%)" offset="0.410156"/><stop stop-opacity="1" stop-color="rgb(97.37854%, 76.100159%, 55.914307%)" offset="0.414063"/><stop stop-opacity="1" stop-color="rgb(97.390747%, 75.92926%, 55.583191%)" offset="0.417969"/><stop stop-opacity="1" stop-color="rgb(97.402954%, 75.759888%, 55.252075%)" offset="0.421875"/><stop stop-opacity="1" stop-color="rgb(97.415161%, 75.588989%, 54.920959%)" offset="0.425781"/><stop stop-opacity="1" stop-color="rgb(97.427368%, 75.419617%, 54.589844%)" offset="0.429688"/><stop stop-opacity="1" stop-color="rgb(97.439575%, 75.250244%, 54.258728%)" offset="0.433594"/><stop stop-opacity="1" stop-color="rgb(97.453308%, 75.080872%, 53.929138%)" offset="0.4375"/><stop stop-opacity="1" stop-color="rgb(97.465515%, 74.909973%, 53.598022%)" offset="0.441406"/><stop stop-opacity="1" stop-color="rgb(97.477722%, 74.740601%, 53.266907%)" offset="0.445313"/><stop stop-opacity="1" stop-color="rgb(97.489929%, 74.569702%, 52.935791%)" offset="0.449219"/><stop stop-opacity="1" stop-color="rgb(97.502136%, 74.40033%, 52.606201%)" offset="0.453125"/><stop stop-opacity="1" stop-color="rgb(97.514343%, 74.229431%, 52.275085%)" offset="0.457031"/><stop stop-opacity="1" stop-color="rgb(97.52655%, 74.060059%, 51.94397%)" offset="0.460938"/><stop stop-opacity="1" stop-color="rgb(97.538757%, 73.88916%, 51.612854%)" offset="0.464844"/><stop stop-opacity="1" stop-color="rgb(97.550964%, 73.719788%, 51.281738%)" offset="0.46875"/><stop stop-opacity="1" stop-color="rgb(97.563171%, 73.548889%, 50.950623%)" offset="0.472656"/><stop stop-opacity="1" stop-color="rgb(97.575378%, 73.379517%, 50.621033%)" offset="0.476563"/><stop stop-opacity="1" stop-color="rgb(97.587585%, 73.210144%, 50.289917%)" offset="0.480469"/><stop stop-opacity="1" stop-color="rgb(97.599792%, 73.040771%, 49.958801%)" offset="0.484375"/><stop stop-opacity="1" stop-color="rgb(97.612%, 72.869873%, 49.627686%)" offset="0.488281"/><stop stop-opacity="1" stop-color="rgb(97.624207%, 72.7005%, 49.298096%)" offset="0.492188"/><stop stop-opacity="1" stop-color="rgb(97.636414%, 72.529602%, 48.96698%)" offset="0.496094"/><stop stop-opacity="1" stop-color="rgb(97.648621%, 72.360229%, 48.635864%)" offset="0.5"/><stop stop-opacity="1" stop-color="rgb(97.660828%, 72.189331%, 48.304749%)" offset="0.503906"/><stop stop-opacity="1" stop-color="rgb(97.673035%, 72.019958%, 47.975159%)" offset="0.507812"/><stop stop-opacity="1" stop-color="rgb(97.685242%, 71.84906%, 47.644043%)" offset="0.511719"/><stop stop-opacity="1" stop-color="rgb(97.697449%, 71.679688%, 47.312927%)" offset="0.515625"/><stop stop-opacity="1" stop-color="rgb(97.709656%, 71.510315%, 46.981812%)" offset="0.519531"/><stop stop-opacity="1" stop-color="rgb(97.721863%, 71.340942%, 46.650696%)" offset="0.523438"/><stop stop-opacity="1" stop-color="rgb(97.73407%, 71.170044%, 46.31958%)" offset="0.527344"/><stop stop-opacity="1" stop-color="rgb(97.746277%, 71.000671%, 45.98999%)" offset="0.53125"/><stop stop-opacity="1" stop-color="rgb(97.758484%, 70.829773%, 45.658875%)" offset="0.535156"/><stop stop-opacity="1" stop-color="rgb(97.770691%, 70.6604%, 45.327759%)" offset="0.539062"/><stop stop-opacity="1" stop-color="rgb(97.782898%, 70.489502%, 44.996643%)" offset="0.542969"/><stop stop-opacity="1" stop-color="rgb(97.796631%, 70.320129%, 44.667053%)" offset="0.546875"/><stop stop-opacity="1" stop-color="rgb(97.808838%, 70.149231%, 44.335938%)" offset="0.550781"/><stop stop-opacity="1" stop-color="rgb(97.821045%, 69.979858%, 44.004822%)" offset="0.554688"/><stop stop-opacity="1" stop-color="rgb(97.833252%, 69.810486%, 43.673706%)" offset="0.558594"/><stop stop-opacity="1" stop-color="rgb(97.845459%, 69.641113%, 43.34259%)" offset="0.5625"/><stop stop-opacity="1" stop-color="rgb(97.857666%, 69.470215%, 43.011475%)" offset="0.566406"/><stop stop-opacity="1" stop-color="rgb(97.869873%, 69.300842%, 42.681885%)" offset="0.570312"/><stop stop-opacity="1" stop-color="rgb(97.88208%, 69.129944%, 42.350769%)" offset="0.574219"/><stop stop-opacity="1" stop-color="rgb(97.894287%, 68.960571%, 42.019653%)" offset="0.578125"/><stop stop-opacity="1" stop-color="rgb(97.906494%, 68.789673%, 41.688538%)" offset="0.582031"/><stop stop-opacity="1" stop-color="rgb(97.918701%, 68.6203%, 41.358948%)" offset="0.585937"/><stop stop-opacity="1" stop-color="rgb(97.930908%, 68.449402%, 41.027832%)" offset="0.589844"/><stop stop-opacity="1" stop-color="rgb(97.943115%, 68.280029%, 40.696716%)" offset="0.59375"/><stop stop-opacity="1" stop-color="rgb(97.955322%, 68.110657%, 40.365601%)" offset="0.597656"/><stop stop-opacity="1" stop-color="rgb(97.967529%, 67.941284%, 40.036011%)" offset="0.601562"/><stop stop-opacity="1" stop-color="rgb(97.979736%, 67.770386%, 39.704895%)" offset="0.605469"/><stop stop-opacity="1" stop-color="rgb(97.991943%, 67.601013%, 39.373779%)" offset="0.609375"/><stop stop-opacity="1" stop-color="rgb(98.00415%, 67.430115%, 39.042664%)" offset="0.613281"/><stop stop-opacity="1" stop-color="rgb(98.016357%, 67.260742%, 38.711548%)" offset="0.617187"/><stop stop-opacity="1" stop-color="rgb(98.028564%, 67.089844%, 38.380432%)" offset="0.621094"/><stop stop-opacity="1" stop-color="rgb(98.040771%, 66.920471%, 38.050842%)" offset="0.625"/><stop stop-opacity="1" stop-color="rgb(98.052979%, 66.749573%, 37.719727%)" offset="0.628906"/><stop stop-opacity="1" stop-color="rgb(98.065186%, 66.5802%, 37.388611%)" offset="0.632812"/><stop stop-opacity="1" stop-color="rgb(98.077393%, 66.410828%, 37.057495%)" offset="0.636719"/><stop stop-opacity="1" stop-color="rgb(98.0896%, 66.241455%, 36.727905%)" offset="0.640625"/><stop stop-opacity="1" stop-color="rgb(98.101807%, 66.070557%, 36.39679%)" offset="0.644531"/><stop stop-opacity="1" stop-color="rgb(98.114014%, 65.901184%, 36.065674%)" offset="0.648437"/><stop stop-opacity="1" stop-color="rgb(98.126221%, 65.730286%, 35.734558%)" offset="0.652344"/><stop stop-opacity="1" stop-color="rgb(98.139954%, 65.560913%, 35.404968%)" offset="0.65625"/><stop stop-opacity="1" stop-color="rgb(98.152161%, 65.390015%, 35.073853%)" offset="0.660156"/><stop stop-opacity="1" stop-color="rgb(98.164368%, 65.220642%, 34.742737%)" offset="0.664062"/><stop stop-opacity="1" stop-color="rgb(98.176575%, 65.049744%, 34.411621%)" offset="0.667969"/><stop stop-opacity="1" stop-color="rgb(98.188782%, 64.880371%, 34.080505%)" offset="0.671875"/><stop stop-opacity="1" stop-color="rgb(98.200989%, 64.710999%, 33.74939%)" offset="0.675781"/><stop stop-opacity="1" stop-color="rgb(98.213196%, 64.541626%, 33.4198%)" offset="0.679687"/><stop stop-opacity="1" stop-color="rgb(98.225403%, 64.370728%, 33.088684%)" offset="0.683594"/><stop stop-opacity="1" stop-color="rgb(98.23761%, 64.201355%, 32.757568%)" offset="0.6875"/><stop stop-opacity="1" stop-color="rgb(98.249817%, 64.030457%, 32.426453%)" offset="0.691406"/><stop stop-opacity="1" stop-color="rgb(98.262024%, 63.861084%, 32.096863%)" offset="0.695312"/><stop stop-opacity="1" stop-color="rgb(98.274231%, 63.690186%, 31.765747%)" offset="0.699219"/><stop stop-opacity="1" stop-color="rgb(98.286438%, 63.520813%, 31.434631%)" offset="0.703125"/><stop stop-opacity="1" stop-color="rgb(98.298645%, 63.349915%, 31.103516%)" offset="0.707031"/><stop stop-opacity="1" stop-color="rgb(98.310852%, 63.180542%, 30.7724%)" offset="0.710937"/><stop stop-opacity="1" stop-color="rgb(98.323059%, 63.011169%, 30.441284%)" offset="0.714844"/><stop stop-opacity="1" stop-color="rgb(98.335266%, 62.841797%, 30.111694%)" offset="0.71875"/><stop stop-opacity="1" stop-color="rgb(98.347473%, 62.670898%, 29.780579%)" offset="0.722656"/><stop stop-opacity="1" stop-color="rgb(98.35968%, 62.501526%, 29.449463%)" offset="0.726562"/><stop stop-opacity="1" stop-color="rgb(98.371887%, 62.330627%, 29.118347%)" offset="0.730469"/><stop stop-opacity="1" stop-color="rgb(98.384094%, 62.161255%, 28.788757%)" offset="0.734375"/><stop stop-opacity="1" stop-color="rgb(98.396301%, 61.990356%, 28.457642%)" offset="0.738281"/><stop stop-opacity="1" stop-color="rgb(98.408508%, 61.820984%, 28.126526%)" offset="0.742187"/><stop stop-opacity="1" stop-color="rgb(98.420715%, 61.650085%, 27.79541%)" offset="0.746094"/><stop stop-opacity="1" stop-color="rgb(98.432922%, 61.480713%, 27.46582%)" offset="0.75"/><stop stop-opacity="1" stop-color="rgb(98.445129%, 61.309814%, 27.134705%)" offset="0.753906"/><stop stop-opacity="1" stop-color="rgb(98.457336%, 61.140442%, 26.803589%)" offset="0.757812"/><stop stop-opacity="1" stop-color="rgb(98.469543%, 60.971069%, 26.472473%)" offset="0.761719"/><stop stop-opacity="1" stop-color="rgb(98.483276%, 60.801697%, 26.141357%)" offset="0.765625"/><stop stop-opacity="1" stop-color="rgb(98.495483%, 60.630798%, 25.810242%)" offset="0.769531"/><stop stop-opacity="1" stop-color="rgb(98.50769%, 60.461426%, 25.480652%)" offset="0.773437"/><stop stop-opacity="1" stop-color="rgb(98.519897%, 60.290527%, 25.149536%)" offset="0.777344"/><stop stop-opacity="1" stop-color="rgb(98.532104%, 60.121155%, 24.81842%)" offset="0.78125"/><stop stop-opacity="1" stop-color="rgb(98.544312%, 59.950256%, 24.487305%)" offset="0.785156"/><stop stop-opacity="1" stop-color="rgb(98.556519%, 59.780884%, 24.157715%)" offset="0.789062"/><stop stop-opacity="1" stop-color="rgb(98.568726%, 59.609985%, 23.826599%)" offset="0.792969"/><stop stop-opacity="1" stop-color="rgb(98.580933%, 59.440613%, 23.495483%)" offset="0.796875"/><stop stop-opacity="1" stop-color="rgb(98.59314%, 59.27124%, 23.164368%)" offset="0.800781"/><stop stop-opacity="1" stop-color="rgb(98.605347%, 59.101868%, 22.833252%)" offset="0.804687"/><stop stop-opacity="1" stop-color="rgb(98.617554%, 58.930969%, 22.502136%)" offset="0.808594"/><stop stop-opacity="1" stop-color="rgb(98.629761%, 58.761597%, 22.172546%)" offset="0.8125"/><stop stop-opacity="1" stop-color="rgb(98.641968%, 58.590698%, 21.841431%)" offset="0.816406"/><stop stop-opacity="1" stop-color="rgb(98.654175%, 58.421326%, 21.510315%)" offset="0.820312"/><stop stop-opacity="1" stop-color="rgb(98.666382%, 58.250427%, 21.179199%)" offset="0.824219"/><stop stop-opacity="1" stop-color="rgb(98.678589%, 58.081055%, 20.849609%)" offset="0.828125"/><stop stop-opacity="1" stop-color="rgb(98.690796%, 57.910156%, 20.518494%)" offset="0.832031"/><stop stop-opacity="1" stop-color="rgb(98.703003%, 57.740784%, 20.187378%)" offset="0.835937"/><stop stop-opacity="1" stop-color="rgb(98.71521%, 57.571411%, 19.856262%)" offset="0.839844"/><stop stop-opacity="1" stop-color="rgb(98.727417%, 57.402039%, 19.526672%)" offset="0.84375"/><stop stop-opacity="1" stop-color="rgb(98.739624%, 57.23114%, 19.195557%)" offset="0.847656"/><stop stop-opacity="1" stop-color="rgb(98.751831%, 57.061768%, 18.864441%)" offset="0.851562"/><stop stop-opacity="1" stop-color="rgb(98.764038%, 56.890869%, 18.533325%)" offset="0.855469"/><stop stop-opacity="1" stop-color="rgb(98.776245%, 56.721497%, 18.202209%)" offset="0.859375"/><stop stop-opacity="1" stop-color="rgb(98.788452%, 56.550598%, 17.871094%)" offset="0.863281"/><stop stop-opacity="1" stop-color="rgb(98.800659%, 56.381226%, 17.541504%)" offset="0.867187"/><stop stop-opacity="1" stop-color="rgb(98.812866%, 56.210327%, 17.210388%)" offset="0.871094"/><stop stop-opacity="1" stop-color="rgb(98.826599%, 56.040955%, 16.879272%)" offset="0.875"/><stop stop-opacity="1" stop-color="rgb(98.838806%, 55.871582%, 16.548157%)" offset="0.878906"/><stop stop-opacity="1" stop-color="rgb(98.851013%, 55.702209%, 16.218567%)" offset="0.882812"/><stop stop-opacity="1" stop-color="rgb(98.86322%, 55.531311%, 15.887451%)" offset="0.886719"/><stop stop-opacity="1" stop-color="rgb(98.875427%, 55.361938%, 15.556335%)" offset="0.890625"/><stop stop-opacity="1" stop-color="rgb(98.887634%, 55.19104%, 15.22522%)" offset="0.894531"/><stop stop-opacity="1" stop-color="rgb(98.899841%, 55.021667%, 14.894104%)" offset="0.898438"/><stop stop-opacity="1" stop-color="rgb(98.912048%, 54.850769%, 14.562988%)" offset="0.902344"/><stop stop-opacity="1" stop-color="rgb(98.924255%, 54.681396%, 14.233398%)" offset="0.90625"/><stop stop-opacity="1" stop-color="rgb(98.936462%, 54.510498%, 13.902283%)" offset="0.910156"/><stop stop-opacity="1" stop-color="rgb(98.948669%, 54.341125%, 13.571167%)" offset="0.914062"/><stop stop-opacity="1" stop-color="rgb(98.960876%, 54.171753%, 13.240051%)" offset="0.917969"/><stop stop-opacity="1" stop-color="rgb(98.973083%, 54.00238%, 12.910461%)" offset="0.921875"/><stop stop-opacity="1" stop-color="rgb(98.985291%, 53.831482%, 12.579346%)" offset="0.925781"/><stop stop-opacity="1" stop-color="rgb(98.997498%, 53.662109%, 12.24823%)" offset="0.929688"/><stop stop-opacity="1" stop-color="rgb(99.009705%, 53.491211%, 11.917114%)" offset="0.933594"/><stop stop-opacity="1" stop-color="rgb(99.021912%, 53.321838%, 11.587524%)" offset="0.9375"/><stop stop-opacity="1" stop-color="rgb(99.034119%, 53.15094%, 11.256409%)" offset="0.941406"/><stop stop-opacity="1" stop-color="rgb(99.046326%, 52.981567%, 10.925293%)" offset="0.945312"/><stop stop-opacity="1" stop-color="rgb(99.058533%, 52.810669%, 10.594177%)" offset="0.949219"/><stop stop-opacity="1" stop-color="rgb(99.07074%, 52.641296%, 10.263062%)" offset="0.953125"/><stop stop-opacity="1" stop-color="rgb(99.082947%, 52.471924%, 9.931946%)" offset="0.957031"/><stop stop-opacity="1" stop-color="rgb(99.095154%, 52.302551%, 9.602356%)" offset="0.960938"/><stop stop-opacity="1" stop-color="rgb(99.107361%, 52.131653%, 9.27124%)" offset="0.964844"/><stop stop-opacity="1" stop-color="rgb(99.119568%, 51.96228%, 8.940125%)" offset="0.96875"/><stop stop-opacity="1" stop-color="rgb(99.131775%, 51.791382%, 8.609009%)" offset="0.972656"/><stop stop-opacity="1" stop-color="rgb(99.143982%, 51.622009%, 8.279419%)" offset="0.976562"/><stop stop-opacity="1" stop-color="rgb(99.156189%, 51.451111%, 7.948303%)" offset="0.980469"/><stop stop-opacity="1" stop-color="rgb(99.169922%, 51.281738%, 7.617188%)" offset="0.984375"/><stop stop-opacity="1" stop-color="rgb(99.182129%, 51.11084%, 7.286072%)" offset="0.988281"/><stop stop-opacity="1" stop-color="rgb(99.194336%, 50.941467%, 6.954956%)" offset="0.992188"/><stop stop-opacity="1" stop-color="rgb(99.206543%, 50.772095%, 6.62384%)" offset="0.996094"/><stop stop-opacity="1" stop-color="rgb(99.21875%, 50.602722%, 6.29425%)" offset="1"/></linearGradient><clipPath id="8b7fef57df"><rect x="0" width="125" y="0" height="246"/></clipPath><clipPath id="5a4a2f8fe5"><path d="M 67.429688 74.148438 L 125.191406 74.148438 L 125.191406 134.167969 L 67.429688 134.167969 Z M 67.429688 74.148438 " clip-rule="nonzero"/></clipPath><clipPath id="8fa31ae2f1"><path d="M 93.679688 74.148438 L 98.941406 74.148438 C 113.4375 74.148438 125.191406 85.902344 125.191406 100.398438 L 125.191406 107.753906 C 125.191406 122.25 113.4375 134.003906 98.941406 134.003906 L 93.679688 134.003906 C 79.183594 134.003906 67.429688 122.25 67.429688 107.753906 L 67.429688 100.398438 C 67.429688 85.902344 79.183594 74.148438 93.679688 74.148438 Z M 93.679688 74.148438 " clip-rule="nonzero"/></clipPath><clipPath id="30c62686b8"><path d="M 0.429688 0.148438 L 58.191406 0.148438 L 58.191406 60 L 0.429688 60 Z M 0.429688 0.148438 " clip-rule="nonzero"/></clipPath><clipPath id="228e986d37"><path d="M 26.679688 0.148438 L 31.941406 0.148438 C 46.4375 0.148438 58.191406 11.902344 58.191406 26.398438 L 58.191406 33.753906 C 58.191406 48.25 46.4375 60.003906 31.941406 60.003906 L 26.679688 60.003906 C 12.183594 60.003906 0.429688 48.25 0.429688 33.753906 L 0.429688 26.398438 C 0.429688 11.902344 12.183594 0.148438 26.679688 0.148438 Z M 26.679688 0.148438 " clip-rule="nonzero"/></clipPath><clipPath id="e84c54e158"><rect x="0" width="59" y="0" height="61"/></clipPath><clipPath id="3ce479e7c1"><path d="M 76.402344 83.839844 L 207.113281 83.839844 L 207.113281 112.269531 L 76.402344 112.269531 Z M 76.402344 83.839844 " clip-rule="nonzero"/></clipPath><clipPath id="7948b33352"><path d="M 85.402344 83.839844 L 198.085938 83.839844 C 200.472656 83.839844 202.761719 84.789062 204.449219 86.476562 C 206.136719 88.164062 207.085938 90.453125 207.085938 92.839844 L 207.085938 103.269531 C 207.085938 105.65625 206.136719 107.945312 204.449219 109.632812 C 202.761719 111.320312 200.472656 112.269531 198.085938 112.269531 L 85.402344 112.269531 C 83.015625 112.269531 80.726562 111.320312 79.039062 109.632812 C 77.351562 107.945312 76.402344 105.65625 76.402344 103.269531 L 76.402344 92.839844 C 76.402344 90.453125 77.351562 88.164062 79.039062 86.476562 C 80.726562 84.789062 83.015625 83.839844 85.402344 83.839844 Z M 85.402344 83.839844 " clip-rule="nonzero"/></clipPath><clipPath id="979e1d1c33"><path d="M 0.402344 0.839844 L 131.113281 0.839844 L 131.113281 29.269531 L 0.402344 29.269531 Z M 0.402344 0.839844 " clip-rule="nonzero"/></clipPath><clipPath id="0c204abc78"><path d="M 9.402344 0.839844 L 122.085938 0.839844 C 124.472656 0.839844 126.761719 1.789062 128.449219 3.476562 C 130.136719 5.164062 131.085938 7.453125 131.085938 9.839844 L 131.085938 20.269531 C 131.085938 22.65625 130.136719 24.945312 128.449219 26.632812 C 126.761719 28.320312 124.472656 29.269531 122.085938 29.269531 L 9.402344 29.269531 C 7.015625 29.269531 4.726562 28.320312 3.039062 26.632812 C 1.351562 24.945312 0.402344 22.65625 0.402344 20.269531 L 0.402344 9.839844 C 0.402344 7.453125 1.351562 5.164062 3.039062 3.476562 C 4.726562 1.789062 7.015625 0.839844 9.402344 0.839844 Z M 9.402344 0.839844 " clip-rule="nonzero"/></clipPath><clipPath id="ee982019ff"><rect x="0" width="132" y="0" height="30"/></clipPath><clipPath id="4dab41751b"><path d="M 229.007812 46.578125 L 278.886719 46.578125 L 278.886719 185.898438 L 229.007812 185.898438 Z M 229.007812 46.578125 " clip-rule="nonzero"/></clipPath><clipPath id="c3838cb827"><path d="M 253.949219 46.578125 C 267.722656 46.578125 278.886719 57.746094 278.886719 71.519531 L 278.886719 160.90625 C 278.886719 174.679688 267.722656 185.847656 253.949219 185.847656 C 240.171875 185.847656 229.007812 174.679688 229.007812 160.90625 L 229.007812 71.519531 C 229.007812 57.746094 240.171875 46.578125 253.949219 46.578125 Z M 253.949219 46.578125 " clip-rule="nonzero"/></clipPath><clipPath id="fac3e1c14e"><path d="M 0.0078125 0.578125 L 49.886719 0.578125 L 49.886719 139.898438 L 0.0078125 139.898438 Z M 0.0078125 0.578125 " clip-rule="nonzero"/></clipPath><clipPath id="8e86b1eba1"><path d="M 24.949219 0.578125 C 38.722656 0.578125 49.886719 11.746094 49.886719 25.519531 L 49.886719 114.90625 C 49.886719 128.679688 38.722656 139.847656 24.949219 139.847656 C 11.171875 139.847656 0.0078125 128.679688 0.0078125 114.90625 L 0.0078125 25.519531 C 0.0078125 11.746094 11.171875 0.578125 24.949219 0.578125 Z M 24.949219 0.578125 " clip-rule="nonzero"/></clipPath><clipPath id="bb683fd0a2"><rect x="0" width="50" y="0" height="140"/></clipPath><clipPath id="cadfe44054"><rect x="0" width="444" y="0" height="36"/></clipPath><clipPath id="0635093751"><path d="M 227 28 L 895.441406 28 L 895.441406 205 L 227 205 Z M 227 28 " clip-rule="nonzero"/></clipPath><clipPath id="1a74906455"><rect x="0" width="669" y="0" height="177"/></clipPath><clipPath id="e5cc94fd2c"><rect x="0" width="896" y="0" height="255"/></clipPath></defs><g transform="matrix(1, 0, 0, 1, 0, 18)"><g clip-path="url(#e5cc94fd2c)"><g clip-path="url(#f6d79782b4)"><path fill="#7a9e7e" d="M 78.410156 10.8125 C 83.59375 4.90625 91.191406 1.140625 99.597656 1.140625 C 115.121094 1.140625 127.777344 13.828125 127.777344 29.320312 L 127.777344 225.851562 C 127.777344 241.339844 115.121094 254.03125 99.597656 254.03125 C 86.578125 254.03125 75.546875 245.046875 72.351562 232.960938 C 74.824219 228.019531 78.140625 222.714844 82.386719 217.953125 C 82.597656 217.769531 82.78125 217.589844 82.929688 217.378906 C 87.058594 212.917969 92.066406 208.972656 98.09375 206.351562 C 99.722656 205.660156 100.472656 203.761719 99.78125 202.132812 C 99.058594 200.503906 97.191406 199.753906 95.5625 200.476562 C 90.285156 202.738281 85.738281 205.871094 81.820312 209.484375 C 76.726562 188.542969 90.527344 173.050781 101.984375 160.179688 C 106.351562 155.296875 110.421875 150.746094 113.226562 146.191406 C 124.917969 127.234375 107.589844 103.9375 107.527344 103.878906 C 106.503906 102.433594 104.484375 102.128906 103.039062 103.1875 C 101.621094 104.246094 101.324219 106.230469 102.347656 107.675781 C 102.410156 107.734375 117.175781 127.59375 107.773438 142.816406 C 105.300781 146.824219 101.382812 151.195312 97.191406 155.894531 C 83.988281 170.695312 67.960938 188.6875 76.667969 214.816406 C 72.777344 219.363281 69.675781 224.3125 67.238281 228.980469 C 65.1875 229.398438 63.050781 229.609375 60.875 229.609375 C 42.941406 229.609375 28.417969 215.085938 28.417969 197.152344 C 28.417969 194.167969 28.8125 191.304688 29.5625 188.5625 C 34.140625 185.429688 39.503906 182.292969 45.503906 179.761719 C 45.773438 179.671875 46.050781 179.578125 46.285156 179.433594 C 52.976562 176.71875 60.390625 174.761719 68.347656 174.398438 C 70.128906 174.308594 71.484375 172.804688 71.421875 171.054688 C 71.332031 169.273438 69.859375 167.886719 68.078125 167.980469 C 61.269531 168.28125 54.789062 169.667969 48.820312 171.6875 C 51.050781 163.128906 58.46875 146.734375 82.726562 143.65625 C 84.472656 143.445312 85.710938 141.851562 85.5 140.070312 C 85.257812 138.320312 83.660156 137.085938 81.910156 137.296875 C 49.03125 141.457031 42.824219 167.105469 41.679688 174.453125 C 34.746094 177.53125 28.628906 181.296875 23.59375 184.976562 C 9.484375 177.238281 -0.0390625 162.261719 -0.0390625 145.050781 C -0.0390625 136.039062 2.550781 127.628906 7.074219 120.550781 C 10.535156 118.917969 15.117188 117.324219 20.453125 116.875 C 19.789062 123.777344 20.09375 138.152344 31.363281 149.425781 C 32.597656 150.660156 34.648438 150.660156 35.910156 149.425781 C 37.148438 148.15625 37.148438 146.113281 35.910156 144.875 C 26.054688 135.019531 26.265625 122.277344 26.867188 116.878906 C 29.761719 117.125 32.804688 117.753906 35.9375 118.871094 C 37.59375 119.476562 39.433594 118.570312 40.039062 116.914062 C 40.609375 115.222656 39.738281 113.382812 38.078125 112.8125 C 33.230469 111.097656 28.617188 110.375 24.339844 110.308594 C 24.21875 110.308594 24.128906 110.308594 24.035156 110.308594 C 18.488281 110.277344 13.515625 111.335938 9.359375 112.78125 C 6.890625 108.015625 5.503906 102.625 5.503906 96.894531 C 5.503906 78.722656 19.515625 63.832031 37.328125 62.417969 C 43.75 68.808594 53.785156 74.566406 68.796875 73 C 70.542969 72.816406 71.839844 71.21875 71.660156 69.472656 C 71.476562 67.691406 69.878906 66.429688 68.132812 66.605469 C 54.480469 68.027344 45.710938 62.238281 40.433594 56.386719 C 39.980469 54.09375 39.710938 51.746094 39.710938 49.335938 C 39.710938 30.921875 54.089844 15.886719 72.226562 14.796875 C 72.800781 20.761719 73.914062 26.125 75.363281 31.066406 C 69.816406 32.363281 59.871094 36.3125 53.089844 48.339844 C 52.214844 49.902344 52.761719 51.867188 54.324219 52.707031 C 55.863281 53.582031 57.820312 53.039062 58.695312 51.503906 C 64.664062 40.925781 73.285156 37.972656 77.351562 37.160156 C 79.496094 42.976562 81.964844 48.21875 84.3125 53.160156 C 85.910156 56.507812 87.449219 59.761719 88.714844 62.808594 C 92.269531 71.488281 94.414062 79.472656 92.992188 86.738281 C 85.96875 86.644531 66.921875 87.671875 55.410156 99.964844 C 51.972656 99.300781 43.476562 96.410156 36.84375 83.207031 C 36.0625 81.609375 34.128906 80.980469 32.566406 81.761719 C 30.96875 82.578125 30.335938 84.476562 31.121094 86.074219 C 37.480469 98.789062 45.859375 103.613281 51.316406 105.421875 C 47.699219 111.507812 45.675781 119.523438 46.371094 130.132812 C 46.492188 131.910156 48.027344 133.265625 49.808594 133.148438 C 51.589844 133.027344 52.910156 131.492188 52.792969 129.710938 C 50.625 97.371094 79.34375 93.453125 90.738281 93.183594 C 87.511719 99.242188 81.125 105.027344 70.246094 110.722656 C 68.683594 111.539062 68.078125 113.464844 68.894531 115.035156 C 69.707031 116.601562 71.632812 117.238281 73.230469 116.390625 C 88.117188 108.613281 95.652344 100.269531 98.519531 91.191406 C 98.550781 91.074219 98.609375 90.921875 98.636719 90.773438 C 98.695312 90.589844 98.730469 90.410156 98.789062 90.226562 C 101.410156 80.765625 99 70.9375 94.660156 60.359375 C 93.308594 57.015625 91.738281 53.789062 90.140625 50.414062 C 85.042969 39.683594 79.316406 27.597656 78.410156 10.8125 Z M 78.410156 10.8125 " fill-opacity="1" fill-rule="evenodd"/></g><g clip-path="url(#a63162e17f)"><g clip-path="url(#e1c37137a9)"><g transform="matrix(1, 0, 0, 1, 154, 5)"><g clip-path="url(#8b7fef57df)"><g clip-path="url(#4998ae38d8)"><g clip-path="url(#dd73d7ccf0)"><path fill="url(#614e124542)" d="M 124.882812 0.117188 L 0.0195312 0.117188 L 0.0195312 244.96875 L 124.882812 244.96875 Z M 124.882812 0.117188 " fill-rule="nonzero"/></g></g></g></g></g></g><g clip-path="url(#5a4a2f8fe5)"><g clip-path="url(#8fa31ae2f1)"><g transform="matrix(1, 0, 0, 1, 67, 74)"><g clip-path="url(#e84c54e158)"><g clip-path="url(#30c62686b8)"><g clip-path="url(#228e986d37)"><path fill="#7a9e7e" d="M 0.429688 0.148438 L 58.191406 0.148438 L 58.191406 59.941406 L 0.429688 59.941406 Z M 0.429688 0.148438 " fill-opacity="1" fill-rule="nonzero"/></g></g></g></g></g></g><g clip-path="url(#3ce479e7c1)"><g clip-path="url(#7948b33352)"><g transform="matrix(1, 0, 0, 1, 76, 83)"><g clip-path="url(#ee982019ff)"><g clip-path="url(#979e1d1c33)"><g clip-path="url(#0c204abc78)"><path fill="#ffffff" d="M 0.402344 0.839844 L 131.113281 0.839844 L 131.113281 29.269531 L 0.402344 29.269531 Z M 0.402344 0.839844 " fill-opacity="1" fill-rule="nonzero"/></g></g></g></g></g></g><g clip-path="url(#4dab41751b)"><g clip-path="url(#c3838cb827)"><g transform="matrix(1, 0, 0, 1, 229, 46)"><g clip-path="url(#bb683fd0a2)"><g clip-path="url(#fac3e1c14e)"><g clip-path="url(#8e86b1eba1)"><path fill="#ffffff" d="M 0.0078125 0.578125 L 49.886719 0.578125 L 49.886719 139.898438 L 0.0078125 139.898438 Z M 0.0078125 0.578125 " fill-opacity="1" fill-rule="nonzero"/></g></g></g></g></g></g><g transform="matrix(1, 0, 0, 1, 285, 184)"><g clip-path="url(#cadfe44054)"><g fill="#000000" fill-opacity="1"><g transform="translate(1.174562, 27.837321)"><g><path d="M 16.34375 0 L 12.046875 -6.140625 C 11.503906 -6.097656 11.082031 -6.078125 10.78125 -6.078125 L 5.84375 -6.078125 L 5.84375 0 L 3 0 L 3 -19.96875 L 10.78125 -19.96875 C 13.375 -19.96875 15.410156 -19.347656 16.890625 -18.109375 C 18.367188 -16.878906 19.109375 -15.179688 19.109375 -13.015625 C 19.109375 -11.472656 18.726562 -10.160156 17.96875 -9.078125 C 17.207031 -7.992188 16.125 -7.203125 14.71875 -6.703125 L 19.453125 0 Z M 10.703125 -8.5 C 12.503906 -8.5 13.878906 -8.890625 14.828125 -9.671875 C 15.785156 -10.453125 16.265625 -11.566406 16.265625 -13.015625 C 16.265625 -14.453125 15.785156 -15.554688 14.828125 -16.328125 C 13.878906 -17.097656 12.503906 -17.484375 10.703125 -17.484375 L 5.84375 -17.484375 L 5.84375 -8.5 Z M 10.703125 -8.5 "/></g></g></g><g fill="#000000" fill-opacity="1"><g transform="translate(29.364763, 27.837321)"><g><path d="M 17.484375 -2.484375 L 17.484375 0 L 3 0 L 3 -19.96875 L 17.09375 -19.96875 L 17.09375 -17.484375 L 5.84375 -17.484375 L 5.84375 -11.359375 L 15.859375 -11.359375 L 15.859375 -8.9375 L 5.84375 -8.9375 L 5.84375 -2.484375 Z M 17.484375 -2.484375 "/></g></g></g><g fill="#000000" fill-opacity="1"><g transform="translate(55.928662, 27.837321)"><g><path d="M 11.921875 0.234375 C 9.929688 0.234375 8.128906 -0.207031 6.515625 -1.09375 C 4.910156 -1.976562 3.648438 -3.195312 2.734375 -4.75 C 1.828125 -6.300781 1.375 -8.046875 1.375 -9.984375 C 1.375 -11.921875 1.828125 -13.664062 2.734375 -15.21875 C 3.648438 -16.769531 4.914062 -17.988281 6.53125 -18.875 C 8.144531 -19.757812 9.953125 -20.203125 11.953125 -20.203125 C 13.515625 -20.203125 14.941406 -19.9375 16.234375 -19.40625 C 17.523438 -18.882812 18.628906 -18.113281 19.546875 -17.09375 L 17.6875 -15.296875 C 16.1875 -16.867188 14.3125 -17.65625 12.0625 -17.65625 C 10.582031 -17.65625 9.242188 -17.320312 8.046875 -16.65625 C 6.847656 -15.988281 5.910156 -15.070312 5.234375 -13.90625 C 4.554688 -12.738281 4.21875 -11.429688 4.21875 -9.984375 C 4.21875 -8.535156 4.554688 -7.226562 5.234375 -6.0625 C 5.910156 -4.894531 6.847656 -3.976562 8.046875 -3.3125 C 9.242188 -2.644531 10.582031 -2.3125 12.0625 -2.3125 C 14.289062 -2.3125 16.164062 -3.109375 17.6875 -4.703125 L 19.546875 -2.90625 C 18.628906 -1.882812 17.519531 -1.101562 16.21875 -0.5625 C 14.914062 -0.03125 13.484375 0.234375 11.921875 0.234375 Z M 11.921875 0.234375 "/></g></g></g><g fill="#000000" fill-opacity="1"><g transform="translate(84.004741, 27.837321)"><g><path d="M 12.015625 0.234375 C 9.992188 0.234375 8.175781 -0.207031 6.5625 -1.09375 C 4.945312 -1.976562 3.675781 -3.203125 2.75 -4.765625 C 1.832031 -6.328125 1.375 -8.066406 1.375 -9.984375 C 1.375 -11.910156 1.832031 -13.648438 2.75 -15.203125 C 3.675781 -16.765625 4.945312 -17.988281 6.5625 -18.875 C 8.175781 -19.757812 9.992188 -20.203125 12.015625 -20.203125 C 14.003906 -20.203125 15.804688 -19.757812 17.421875 -18.875 C 19.046875 -17.988281 20.3125 -16.769531 21.21875 -15.21875 C 22.132812 -13.664062 22.59375 -11.921875 22.59375 -9.984375 C 22.59375 -8.046875 22.132812 -6.300781 21.21875 -4.75 C 20.3125 -3.195312 19.046875 -1.976562 17.421875 -1.09375 C 15.804688 -0.207031 14.003906 0.234375 12.015625 0.234375 Z M 12.015625 -2.3125 C 13.472656 -2.3125 14.785156 -2.644531 15.953125 -3.3125 C 17.128906 -3.976562 18.054688 -4.894531 18.734375 -6.0625 C 19.410156 -7.226562 19.75 -8.535156 19.75 -9.984375 C 19.75 -11.429688 19.410156 -12.738281 18.734375 -13.90625 C 18.054688 -15.070312 17.128906 -15.988281 15.953125 -16.65625 C 14.785156 -17.320312 13.472656 -17.65625 12.015625 -17.65625 C 10.546875 -17.65625 9.21875 -17.320312 8.03125 -16.65625 C 6.84375 -15.988281 5.910156 -15.070312 5.234375 -13.90625 C 4.554688 -12.738281 4.21875 -11.429688 4.21875 -9.984375 C 4.21875 -8.535156 4.554688 -7.226562 5.234375 -6.0625 C 5.910156 -4.894531 6.84375 -3.976562 8.03125 -3.3125 C 9.21875 -2.644531 10.546875 -2.3125 12.015625 -2.3125 Z M 12.015625 -2.3125 "/></g></g></g><g fill="#000000" fill-opacity="1"><g transform="translate(115.419028, 27.837321)"><g><path d="M 20.34375 -19.96875 L 11.578125 0 L 8.765625 0 L -0.03125 -19.96875 L 3.046875 -19.96875 L 10.25 -3.5625 L 17.484375 -19.96875 Z M 20.34375 -19.96875 "/></g></g></g><g fill="#000000" fill-opacity="1"><g transform="translate(143.181259, 27.837321)"><g><path d="M 17.484375 -2.484375 L 17.484375 0 L 3 0 L 3 -19.96875 L 17.09375 -19.96875 L 17.09375 -17.484375 L 5.84375 -17.484375 L 5.84375 -11.359375 L 15.859375 -11.359375 L 15.859375 -8.9375 L 5.84375 -8.9375 L 5.84375 -2.484375 Z M 17.484375 -2.484375 "/></g></g></g><g fill="#000000" fill-opacity="1"><g transform="translate(169.745158, 27.837321)"><g><path d="M 16.34375 0 L 12.046875 -6.140625 C 11.503906 -6.097656 11.082031 -6.078125 10.78125 -6.078125 L 5.84375 -6.078125 L 5.84375 0 L 3 0 L 3 -19.96875 L 10.78125 -19.96875 C 13.375 -19.96875 15.410156 -19.347656 16.890625 -18.109375 C 18.367188 -16.878906 19.109375 -15.179688 19.109375 -13.015625 C 19.109375 -11.472656 18.726562 -10.160156 17.96875 -9.078125 C 17.207031 -7.992188 16.125 -7.203125 14.71875 -6.703125 L 19.453125 0 Z M 10.703125 -8.5 C 12.503906 -8.5 13.878906 -8.890625 14.828125 -9.671875 C 15.785156 -10.453125 16.265625 -11.566406 16.265625 -13.015625 C 16.265625 -14.453125 15.785156 -15.554688 14.828125 -16.328125 C 13.878906 -17.097656 12.503906 -17.484375 10.703125 -17.484375 L 5.84375 -17.484375 L 5.84375 -8.5 Z M 10.703125 -8.5 "/></g></g></g><g fill="#000000" fill-opacity="1"><g transform="translate(197.935366, 27.837321)"><g><path d="M 10.640625 -6.90625 L 10.640625 0 L 7.8125 0 L 7.8125 -6.96875 L -0.109375 -19.96875 L 2.9375 -19.96875 L 9.328125 -9.4375 L 15.75 -19.96875 L 18.578125 -19.96875 Z M 10.640625 -6.90625 "/></g></g></g><g fill="#000000" fill-opacity="1"><g transform="translate(223.843019, 27.837321)"><g/></g></g><g fill="#000000" fill-opacity="1"><g transform="translate(238.965728, 27.837321)"><g><path d="M 8.8125 0.234375 C 7.3125 0.234375 5.863281 0 4.46875 -0.46875 C 3.070312 -0.9375 1.972656 -1.539062 1.171875 -2.28125 L 2.21875 -4.515625 C 2.976562 -3.828125 3.953125 -3.269531 5.140625 -2.84375 C 6.335938 -2.414062 7.5625 -2.203125 8.8125 -2.203125 C 10.46875 -2.203125 11.703125 -2.476562 12.515625 -3.03125 C 13.335938 -3.59375 13.75 -4.34375 13.75 -5.28125 C 13.75 -5.96875 13.523438 -6.523438 13.078125 -6.953125 C 12.628906 -7.378906 12.078125 -7.707031 11.421875 -7.9375 C 10.765625 -8.164062 9.835938 -8.421875 8.640625 -8.703125 C 7.140625 -9.066406 5.925781 -9.425781 5 -9.78125 C 4.082031 -10.144531 3.296875 -10.703125 2.640625 -11.453125 C 1.984375 -12.203125 1.65625 -13.21875 1.65625 -14.5 C 1.65625 -15.5625 1.9375 -16.519531 2.5 -17.375 C 3.0625 -18.226562 3.910156 -18.910156 5.046875 -19.421875 C 6.191406 -19.941406 7.609375 -20.203125 9.296875 -20.203125 C 10.472656 -20.203125 11.632812 -20.046875 12.78125 -19.734375 C 13.925781 -19.429688 14.90625 -19 15.71875 -18.4375 L 14.78125 -16.15625 C 13.945312 -16.6875 13.050781 -17.085938 12.09375 -17.359375 C 11.144531 -17.640625 10.210938 -17.78125 9.296875 -17.78125 C 7.679688 -17.78125 6.46875 -17.484375 5.65625 -16.890625 C 4.851562 -16.296875 4.453125 -15.535156 4.453125 -14.609375 C 4.453125 -13.921875 4.679688 -13.363281 5.140625 -12.9375 C 5.597656 -12.507812 6.160156 -12.175781 6.828125 -11.9375 C 7.503906 -11.695312 8.425781 -11.445312 9.59375 -11.1875 C 11.09375 -10.820312 12.296875 -10.457031 13.203125 -10.09375 C 14.117188 -9.738281 14.90625 -9.1875 15.5625 -8.4375 C 16.21875 -7.695312 16.546875 -6.703125 16.546875 -5.453125 C 16.546875 -4.398438 16.257812 -3.441406 15.6875 -2.578125 C 15.125 -1.710938 14.257812 -1.023438 13.09375 -0.515625 C 11.9375 -0.015625 10.507812 0.234375 8.8125 0.234375 Z M 8.8125 0.234375 "/></g></g></g><g fill="#000000" fill-opacity="1"><g transform="translate(264.13155, 27.837321)"><g><path d="M 17.484375 -2.484375 L 17.484375 0 L 3 0 L 3 -19.96875 L 17.09375 -19.96875 L 17.09375 -17.484375 L 5.84375 -17.484375 L 5.84375 -11.359375 L 15.859375 -11.359375 L 15.859375 -8.9375 L 5.84375 -8.9375 L 5.84375 -2.484375 Z M 17.484375 -2.484375 "/></g></g></g><g fill="#000000" fill-opacity="1"><g transform="translate(290.695463, 27.837321)"><g><path d="M 16.34375 0 L 12.046875 -6.140625 C 11.503906 -6.097656 11.082031 -6.078125 10.78125 -6.078125 L 5.84375 -6.078125 L 5.84375 0 L 3 0 L 3 -19.96875 L 10.78125 -19.96875 C 13.375 -19.96875 15.410156 -19.347656 16.890625 -18.109375 C 18.367188 -16.878906 19.109375 -15.179688 19.109375 -13.015625 C 19.109375 -11.472656 18.726562 -10.160156 17.96875 -9.078125 C 17.207031 -7.992188 16.125 -7.203125 14.71875 -6.703125 L 19.453125 0 Z M 10.703125 -8.5 C 12.503906 -8.5 13.878906 -8.890625 14.828125 -9.671875 C 15.785156 -10.453125 16.265625 -11.566406 16.265625 -13.015625 C 16.265625 -14.453125 15.785156 -15.554688 14.828125 -16.328125 C 13.878906 -17.097656 12.503906 -17.484375 10.703125 -17.484375 L 5.84375 -17.484375 L 5.84375 -8.5 Z M 10.703125 -8.5 "/></g></g></g><g fill="#000000" fill-opacity="1"><g transform="translate(318.885657, 27.837321)"><g><path d="M 20.34375 -19.96875 L 11.578125 0 L 8.765625 0 L -0.03125 -19.96875 L 3.046875 -19.96875 L 10.25 -3.5625 L 17.484375 -19.96875 Z M 20.34375 -19.96875 "/></g></g></g><g fill="#000000" fill-opacity="1"><g transform="translate(346.647888, 27.837321)"><g><path d="M 3 -19.96875 L 5.84375 -19.96875 L 5.84375 0 L 3 0 Z M 3 -19.96875 "/></g></g></g><g fill="#000000" fill-opacity="1"><g transform="translate(362.940391, 27.837321)"><g><path d="M 11.921875 0.234375 C 9.929688 0.234375 8.128906 -0.207031 6.515625 -1.09375 C 4.910156 -1.976562 3.648438 -3.195312 2.734375 -4.75 C 1.828125 -6.300781 1.375 -8.046875 1.375 -9.984375 C 1.375 -11.921875 1.828125 -13.664062 2.734375 -15.21875 C 3.648438 -16.769531 4.914062 -17.988281 6.53125 -18.875 C 8.144531 -19.757812 9.953125 -20.203125 11.953125 -20.203125 C 13.515625 -20.203125 14.941406 -19.9375 16.234375 -19.40625 C 17.523438 -18.882812 18.628906 -18.113281 19.546875 -17.09375 L 17.6875 -15.296875 C 16.1875 -16.867188 14.3125 -17.65625 12.0625 -17.65625 C 10.582031 -17.65625 9.242188 -17.320312 8.046875 -16.65625 C 6.847656 -15.988281 5.910156 -15.070312 5.234375 -13.90625 C 4.554688 -12.738281 4.21875 -11.429688 4.21875 -9.984375 C 4.21875 -8.535156 4.554688 -7.226562 5.234375 -6.0625 C 5.910156 -4.894531 6.847656 -3.976562 8.046875 -3.3125 C 9.242188 -2.644531 10.582031 -2.3125 12.0625 -2.3125 C 14.289062 -2.3125 16.164062 -3.109375 17.6875 -4.703125 L 19.546875 -2.90625 C 18.628906 -1.882812 17.519531 -1.101562 16.21875 -0.5625 C 14.914062 -0.03125 13.484375 0.234375 11.921875 0.234375 Z M 11.921875 0.234375 "/></g></g></g><g fill="#000000" fill-opacity="1"><g transform="translate(391.016464, 27.837321)"><g><path d="M 17.484375 -2.484375 L 17.484375 0 L 3 0 L 3 -19.96875 L 17.09375 -19.96875 L 17.09375 -17.484375 L 5.84375 -17.484375 L 5.84375 -11.359375 L 15.859375 -11.359375 L 15.859375 -8.9375 L 5.84375 -8.9375 L 5.84375 -2.484375 Z M 17.484375 -2.484375 "/></g></g></g><g fill="#000000" fill-opacity="1"><g transform="translate(417.58035, 27.837321)"><g><path d="M 8.8125 0.234375 C 7.3125 0.234375 5.863281 0 4.46875 -0.46875 C 3.070312 -0.9375 1.972656 -1.539062 1.171875 -2.28125 L 2.21875 -4.515625 C 2.976562 -3.828125 3.953125 -3.269531 5.140625 -2.84375 C 6.335938 -2.414062 7.5625 -2.203125 8.8125 -2.203125 C 10.46875 -2.203125 11.703125 -2.476562 12.515625 -3.03125 C 13.335938 -3.59375 13.75 -4.34375 13.75 -5.28125 C 13.75 -5.96875 13.523438 -6.523438 13.078125 -6.953125 C 12.628906 -7.378906 12.078125 -7.707031 11.421875 -7.9375 C 10.765625 -8.164062 9.835938 -8.421875 8.640625 -8.703125 C 7.140625 -9.066406 5.925781 -9.425781 5 -9.78125 C 4.082031 -10.144531 3.296875 -10.703125 2.640625 -11.453125 C 1.984375 -12.203125 1.65625 -13.21875 1.65625 -14.5 C 1.65625 -15.5625 1.9375 -16.519531 2.5 -17.375 C 3.0625 -18.226562 3.910156 -18.910156 5.046875 -19.421875 C 6.191406 -19.941406 7.609375 -20.203125 9.296875 -20.203125 C 10.472656 -20.203125 11.632812 -20.046875 12.78125 -19.734375 C 13.925781 -19.429688 14.90625 -19 15.71875 -18.4375 L 14.78125 -16.15625 C 13.945312 -16.6875 13.050781 -17.085938 12.09375 -17.359375 C 11.144531 -17.640625 10.210938 -17.78125 9.296875 -17.78125 C 7.679688 -17.78125 6.46875 -17.484375 5.65625 -16.890625 C 4.851562 -16.296875 4.453125 -15.535156 4.453125 -14.609375 C 4.453125 -13.921875 4.679688 -13.363281 5.140625 -12.9375 C 5.597656 -12.507812 6.160156 -12.175781 6.828125 -11.9375 C 7.503906 -11.695312 8.425781 -11.445312 9.59375 -11.1875 C 11.09375 -10.820312 12.296875 -10.457031 13.203125 -10.09375 C 14.117188 -9.738281 14.90625 -9.1875 15.5625 -8.4375 C 16.21875 -7.695312 16.546875 -6.703125 16.546875 -5.453125 C 16.546875 -4.398438 16.257812 -3.441406 15.6875 -2.578125 C 15.125 -1.710938 14.257812 -1.023438 13.09375 -0.515625 C 11.9375 -0.015625 10.507812 0.234375 8.8125 0.234375 Z M 8.8125 0.234375 "/></g></g></g></g></g><g clip-path="url(#0635093751)"><g transform="matrix(1, 0, 0, 1, 227, 28)"><g clip-path="url(#1a74906455)"><g fill="#545454" fill-opacity="1"><g transform="translate(2.181528, 136.184904)"><g><path d="M 76.109375 0 L 56.6875 -28.0625 L 35.25 -28.0625 L 35.25 0 L 11.9375 0 L 11.9375 -100.71875 L 55.53125 -100.71875 C 64.457031 -100.71875 72.203125 -99.226562 78.765625 -96.25 C 85.335938 -93.28125 90.398438 -89.0625 93.953125 -83.59375 C 97.503906 -78.125 99.28125 -71.648438 99.28125 -64.171875 C 99.28125 -56.691406 97.476562 -50.238281 93.875 -44.8125 C 90.28125 -39.394531 85.175781 -35.25 78.5625 -32.375 L 101.140625 0 Z M 75.671875 -64.171875 C 75.671875 -69.828125 73.847656 -74.164062 70.203125 -77.1875 C 66.566406 -80.207031 61.242188 -81.71875 54.234375 -81.71875 L 35.25 -81.71875 L 35.25 -46.609375 L 54.234375 -46.609375 C 61.242188 -46.609375 66.566406 -48.144531 70.203125 -51.21875 C 73.847656 -54.289062 75.671875 -58.609375 75.671875 -64.171875 Z M 75.671875 -64.171875 "/></g></g></g><g fill="#545454" fill-opacity="1"><g transform="translate(107.912891, 136.184904)"><g><path d="M 89.921875 -18.703125 L 89.921875 0 L 11.9375 0 L 11.9375 -100.71875 L 88.046875 -100.71875 L 88.046875 -82.015625 L 35.109375 -82.015625 L 35.109375 -60.140625 L 81.859375 -60.140625 L 81.859375 -42.015625 L 35.109375 -42.015625 L 35.109375 -18.703125 Z M 89.921875 -18.703125 "/></g></g></g><g fill="#545454" fill-opacity="1"><g transform="translate(204.437712, 136.184904)"><g><path d="M 108.765625 -100.71875 L 65.171875 0 L 42.15625 0 L -1.296875 -100.71875 L 23.890625 -100.71875 L 54.53125 -28.78125 L 85.609375 -100.71875 Z M 108.765625 -100.71875 "/></g></g></g><g fill="#545454" fill-opacity="1"><g transform="translate(311.751454, 136.184904)"><g><path d="M 11.9375 -100.71875 L 35.25 -100.71875 L 35.25 0 L 11.9375 0 Z M 11.9375 -100.71875 "/></g></g></g><g fill="#545454" fill-opacity="1"><g transform="translate(358.934972, 136.184904)"><g><path d="M 108.765625 -100.71875 L 65.171875 0 L 42.15625 0 L -1.296875 -100.71875 L 23.890625 -100.71875 L 54.53125 -28.78125 L 85.609375 -100.71875 Z M 108.765625 -100.71875 "/></g></g></g><g fill="#545454" fill-opacity="1"><g transform="translate(466.248713, 136.184904)"><g><path d="M 78.265625 -21.578125 L 31.515625 -21.578125 L 22.59375 0 L -1.296875 0 L 43.59375 -100.71875 L 66.609375 -100.71875 L 111.640625 0 L 87.1875 0 Z M 70.9375 -39.28125 L 54.953125 -77.84375 L 38.984375 -39.28125 Z M 70.9375 -39.28125 "/></g></g></g><g fill="#545454" fill-opacity="1"><g transform="translate(576.439481, 136.184904)"><g><path d="M 11.9375 -100.71875 L 35.25 -100.71875 L 35.25 -18.984375 L 85.75 -18.984375 L 85.75 0 L 11.9375 0 Z M 11.9375 -100.71875 "/></g></g></g></g></g></g></g></g></svg>