<svg xmlns="http://www.w3.org/2000/svg" xmlns:xlink="http://www.w3.org/1999/xlink" width="500" zoomAndPan="magnify" viewBox="0 0 375 374.999991" height="500" preserveAspectRatio="xMidYMid meet" version="1.0"><defs><clipPath id="906e59463c"><path d="M 0.5 0.75 L 171 0.75 L 171 338.398438 L 0.5 338.398438 Z M 0.5 0.75 " clip-rule="nonzero"/></clipPath><clipPath id="a6153d538a"><path d="M 205.929688 6.148438 L 372.480469 6.148438 L 372.480469 333 L 205.929688 333 Z M 205.929688 6.148438 " clip-rule="nonzero"/></clipPath><clipPath id="792fd05a66"><path d="M 205.929688 332.84375 C 296.648438 332.84375 372.480469 258.46875 372.480469 169.496094 C 372.480469 80.523438 296.648438 6.148438 205.929688 6.148438 Z M 205.929688 332.84375 " clip-rule="nonzero"/></clipPath><clipPath id="701badbaae"><path d="M 0.929688 0.148438 L 167.480469 0.148438 L 167.480469 326.742188 L 0.929688 326.742188 Z M 0.929688 0.148438 " clip-rule="nonzero"/></clipPath><clipPath id="74b2d6f2b3"><path d="M 0.929688 326.84375 C 91.648438 326.84375 167.480469 252.46875 167.480469 163.496094 C 167.480469 74.523438 91.648438 0.148438 0.929688 0.148438 Z M 0.929688 326.84375 " clip-rule="nonzero"/></clipPath><linearGradient x1="0.00668441" gradientTransform="matrix(0, 0.650586, -0.650586, 0, 167.480821, 0.14523)" y1="128" x2="502.006674" gradientUnits="userSpaceOnUse" y2="128" id="e8e3bc27e8"><stop stop-opacity="1" stop-color="rgb(100%, 78.819275%, 44.708252%)" offset="0"/><stop stop-opacity="1" stop-color="rgb(100%, 78.649902%, 44.502258%)" offset="0.00390625"/><stop stop-opacity="1" stop-color="rgb(100%, 78.482056%, 44.297791%)" offset="0.0078125"/><stop stop-opacity="1" stop-color="rgb(100%, 78.312683%, 44.091797%)" offset="0.0117187"/><stop stop-opacity="1" stop-color="rgb(100%, 78.144836%, 43.887329%)" offset="0.015625"/><stop stop-opacity="1" stop-color="rgb(100%, 77.975464%, 43.681335%)" offset="0.0195313"/><stop stop-opacity="1" stop-color="rgb(100%, 77.807617%, 43.476868%)" offset="0.0234375"/><stop stop-opacity="1" stop-color="rgb(100%, 77.638245%, 43.270874%)" offset="0.0273438"/><stop stop-opacity="1" stop-color="rgb(100%, 77.470398%, 43.066406%)" offset="0.03125"/><stop stop-opacity="1" stop-color="rgb(100%, 77.302551%, 42.860413%)" offset="0.0351562"/><stop stop-opacity="1" stop-color="rgb(100%, 77.134705%, 42.655945%)" offset="0.0390625"/><stop stop-opacity="1" stop-color="rgb(100%, 76.965332%, 42.449951%)" offset="0.0429688"/><stop stop-opacity="1" stop-color="rgb(100%, 76.797485%, 42.245483%)" offset="0.046875"/><stop stop-opacity="1" stop-color="rgb(100%, 76.628113%, 42.03949%)" offset="0.0507813"/><stop stop-opacity="1" stop-color="rgb(100%, 76.460266%, 41.835022%)" offset="0.0546875"/><stop stop-opacity="1" stop-color="rgb(100%, 76.290894%, 41.629028%)" offset="0.0585938"/><stop stop-opacity="1" stop-color="rgb(100%, 76.123047%, 41.424561%)" offset="0.0625"/><stop stop-opacity="1" stop-color="rgb(100%, 75.953674%, 41.218567%)" offset="0.0664063"/><stop stop-opacity="1" stop-color="rgb(100%, 75.785828%, 41.014099%)" offset="0.0703125"/><stop stop-opacity="1" stop-color="rgb(100%, 75.617981%, 40.808105%)" offset="0.0742188"/><stop stop-opacity="1" stop-color="rgb(100%, 75.450134%, 40.603638%)" offset="0.078125"/><stop stop-opacity="1" stop-color="rgb(100%, 75.280762%, 40.397644%)" offset="0.0820313"/><stop stop-opacity="1" stop-color="rgb(100%, 75.112915%, 40.193176%)" offset="0.0859375"/><stop stop-opacity="1" stop-color="rgb(100%, 74.943542%, 39.987183%)" offset="0.0898438"/><stop stop-opacity="1" stop-color="rgb(100%, 74.775696%, 39.782715%)" offset="0.09375"/><stop stop-opacity="1" stop-color="rgb(100%, 74.606323%, 39.576721%)" offset="0.0976563"/><stop stop-opacity="1" stop-color="rgb(100%, 74.438477%, 39.372253%)" offset="0.101563"/><stop stop-opacity="1" stop-color="rgb(100%, 74.269104%, 39.16626%)" offset="0.105469"/><stop stop-opacity="1" stop-color="rgb(100%, 74.101257%, 38.961792%)" offset="0.109375"/><stop stop-opacity="1" stop-color="rgb(100%, 73.931885%, 38.755798%)" offset="0.113281"/><stop stop-opacity="1" stop-color="rgb(100%, 73.764038%, 38.551331%)" offset="0.117188"/><stop stop-opacity="1" stop-color="rgb(100%, 73.596191%, 38.345337%)" offset="0.121094"/><stop stop-opacity="1" stop-color="rgb(100%, 73.428345%, 38.140869%)" offset="0.125"/><stop stop-opacity="1" stop-color="rgb(100%, 73.258972%, 37.934875%)" offset="0.128906"/><stop stop-opacity="1" stop-color="rgb(100%, 73.091125%, 37.730408%)" offset="0.132812"/><stop stop-opacity="1" stop-color="rgb(100%, 72.921753%, 37.524414%)" offset="0.136719"/><stop stop-opacity="1" stop-color="rgb(100%, 72.753906%, 37.319946%)" offset="0.140625"/><stop stop-opacity="1" stop-color="rgb(100%, 72.584534%, 37.113953%)" offset="0.144531"/><stop stop-opacity="1" stop-color="rgb(100%, 72.416687%, 36.909485%)" offset="0.148438"/><stop stop-opacity="1" stop-color="rgb(100%, 72.247314%, 36.703491%)" offset="0.152344"/><stop stop-opacity="1" stop-color="rgb(100%, 72.079468%, 36.499023%)" offset="0.15625"/><stop stop-opacity="1" stop-color="rgb(100%, 71.911621%, 36.29303%)" offset="0.160156"/><stop stop-opacity="1" stop-color="rgb(100%, 71.743774%, 36.088562%)" offset="0.164062"/><stop stop-opacity="1" stop-color="rgb(100%, 71.574402%, 35.882568%)" offset="0.167969"/><stop stop-opacity="1" stop-color="rgb(100%, 71.406555%, 35.678101%)" offset="0.171875"/><stop stop-opacity="1" stop-color="rgb(100%, 71.237183%, 35.472107%)" offset="0.175781"/><stop stop-opacity="1" stop-color="rgb(100%, 71.069336%, 35.267639%)" offset="0.179688"/><stop stop-opacity="1" stop-color="rgb(100%, 70.899963%, 35.061646%)" offset="0.183594"/><stop stop-opacity="1" stop-color="rgb(100%, 70.732117%, 34.857178%)" offset="0.1875"/><stop stop-opacity="1" stop-color="rgb(100%, 70.562744%, 34.651184%)" offset="0.191406"/><stop stop-opacity="1" stop-color="rgb(100%, 70.394897%, 34.446716%)" offset="0.195312"/><stop stop-opacity="1" stop-color="rgb(100%, 70.227051%, 34.240723%)" offset="0.199219"/><stop stop-opacity="1" stop-color="rgb(100%, 70.059204%, 34.036255%)" offset="0.203125"/><stop stop-opacity="1" stop-color="rgb(100%, 69.889832%, 33.830261%)" offset="0.207031"/><stop stop-opacity="1" stop-color="rgb(100%, 69.721985%, 33.625793%)" offset="0.210938"/><stop stop-opacity="1" stop-color="rgb(100%, 69.552612%, 33.4198%)" offset="0.214844"/><stop stop-opacity="1" stop-color="rgb(100%, 69.384766%, 33.213806%)" offset="0.21875"/><stop stop-opacity="1" stop-color="rgb(100%, 69.215393%, 33.007812%)" offset="0.222656"/><stop stop-opacity="1" stop-color="rgb(100%, 69.047546%, 32.803345%)" offset="0.226562"/><stop stop-opacity="1" stop-color="rgb(100%, 68.878174%, 32.597351%)" offset="0.230469"/><stop stop-opacity="1" stop-color="rgb(100%, 68.710327%, 32.392883%)" offset="0.234375"/><stop stop-opacity="1" stop-color="rgb(100%, 68.54248%, 32.18689%)" offset="0.238281"/><stop stop-opacity="1" stop-color="rgb(100%, 68.374634%, 31.982422%)" offset="0.242188"/><stop stop-opacity="1" stop-color="rgb(100%, 68.205261%, 31.776428%)" offset="0.246094"/><stop stop-opacity="1" stop-color="rgb(100%, 68.037415%, 31.57196%)" offset="0.25"/><stop stop-opacity="1" stop-color="rgb(100%, 67.868042%, 31.365967%)" offset="0.253906"/><stop stop-opacity="1" stop-color="rgb(100%, 67.700195%, 31.161499%)" offset="0.257812"/><stop stop-opacity="1" stop-color="rgb(100%, 67.530823%, 30.955505%)" offset="0.261719"/><stop stop-opacity="1" stop-color="rgb(100%, 67.362976%, 30.751038%)" offset="0.265625"/><stop stop-opacity="1" stop-color="rgb(100%, 67.193604%, 30.545044%)" offset="0.269531"/><stop stop-opacity="1" stop-color="rgb(100%, 67.025757%, 30.340576%)" offset="0.273438"/><stop stop-opacity="1" stop-color="rgb(100%, 66.856384%, 30.134583%)" offset="0.277344"/><stop stop-opacity="1" stop-color="rgb(100%, 66.688538%, 29.930115%)" offset="0.28125"/><stop stop-opacity="1" stop-color="rgb(100%, 66.520691%, 29.724121%)" offset="0.285156"/><stop stop-opacity="1" stop-color="rgb(100%, 66.352844%, 29.519653%)" offset="0.289062"/><stop stop-opacity="1" stop-color="rgb(100%, 66.183472%, 29.31366%)" offset="0.292969"/><stop stop-opacity="1" stop-color="rgb(100%, 66.015625%, 29.109192%)" offset="0.296875"/><stop stop-opacity="1" stop-color="rgb(100%, 65.846252%, 28.903198%)" offset="0.300781"/><stop stop-opacity="1" stop-color="rgb(100%, 65.678406%, 28.69873%)" offset="0.304688"/><stop stop-opacity="1" stop-color="rgb(100%, 65.509033%, 28.492737%)" offset="0.308594"/><stop stop-opacity="1" stop-color="rgb(100%, 65.341187%, 28.288269%)" offset="0.3125"/><stop stop-opacity="1" stop-color="rgb(100%, 65.171814%, 28.082275%)" offset="0.316406"/><stop stop-opacity="1" stop-color="rgb(100%, 65.003967%, 27.877808%)" offset="0.320312"/><stop stop-opacity="1" stop-color="rgb(100%, 64.836121%, 27.671814%)" offset="0.324219"/><stop stop-opacity="1" stop-color="rgb(100%, 64.668274%, 27.467346%)" offset="0.328125"/><stop stop-opacity="1" stop-color="rgb(100%, 64.498901%, 27.261353%)" offset="0.332031"/><stop stop-opacity="1" stop-color="rgb(100%, 64.331055%, 27.056885%)" offset="0.335938"/><stop stop-opacity="1" stop-color="rgb(100%, 64.161682%, 26.850891%)" offset="0.339844"/><stop stop-opacity="1" stop-color="rgb(100%, 63.993835%, 26.646423%)" offset="0.34375"/><stop stop-opacity="1" stop-color="rgb(100%, 63.824463%, 26.44043%)" offset="0.347656"/><stop stop-opacity="1" stop-color="rgb(100%, 63.656616%, 26.235962%)" offset="0.351562"/><stop stop-opacity="1" stop-color="rgb(100%, 63.487244%, 26.029968%)" offset="0.355469"/><stop stop-opacity="1" stop-color="rgb(100%, 63.319397%, 25.8255%)" offset="0.359375"/><stop stop-opacity="1" stop-color="rgb(100%, 63.15155%, 25.619507%)" offset="0.363281"/><stop stop-opacity="1" stop-color="rgb(100%, 62.983704%, 25.415039%)" offset="0.367188"/><stop stop-opacity="1" stop-color="rgb(100%, 62.814331%, 25.209045%)" offset="0.371094"/><stop stop-opacity="1" stop-color="rgb(100%, 62.646484%, 25.004578%)" offset="0.375"/><stop stop-opacity="1" stop-color="rgb(100%, 62.477112%, 24.798584%)" offset="0.378906"/><stop stop-opacity="1" stop-color="rgb(100%, 62.309265%, 24.594116%)" offset="0.382812"/><stop stop-opacity="1" stop-color="rgb(100%, 62.139893%, 24.388123%)" offset="0.386719"/><stop stop-opacity="1" stop-color="rgb(100%, 61.972046%, 24.183655%)" offset="0.390625"/><stop stop-opacity="1" stop-color="rgb(100%, 61.802673%, 23.977661%)" offset="0.394531"/><stop stop-opacity="1" stop-color="rgb(100%, 61.634827%, 23.773193%)" offset="0.398438"/><stop stop-opacity="1" stop-color="rgb(100%, 61.46698%, 23.5672%)" offset="0.402344"/><stop stop-opacity="1" stop-color="rgb(100%, 61.299133%, 23.362732%)" offset="0.40625"/><stop stop-opacity="1" stop-color="rgb(100%, 61.129761%, 23.156738%)" offset="0.410156"/><stop stop-opacity="1" stop-color="rgb(100%, 60.961914%, 22.952271%)" offset="0.414062"/><stop stop-opacity="1" stop-color="rgb(100%, 60.792542%, 22.746277%)" offset="0.417969"/><stop stop-opacity="1" stop-color="rgb(100%, 60.624695%, 22.541809%)" offset="0.421875"/><stop stop-opacity="1" stop-color="rgb(100%, 60.455322%, 22.335815%)" offset="0.425781"/><stop stop-opacity="1" stop-color="rgb(100%, 60.287476%, 22.131348%)" offset="0.429688"/><stop stop-opacity="1" stop-color="rgb(100%, 60.118103%, 21.925354%)" offset="0.433594"/><stop stop-opacity="1" stop-color="rgb(100%, 59.950256%, 21.720886%)" offset="0.4375"/><stop stop-opacity="1" stop-color="rgb(100%, 59.780884%, 21.514893%)" offset="0.441406"/><stop stop-opacity="1" stop-color="rgb(100%, 59.613037%, 21.310425%)" offset="0.445312"/><stop stop-opacity="1" stop-color="rgb(100%, 59.44519%, 21.104431%)" offset="0.449219"/><stop stop-opacity="1" stop-color="rgb(100%, 59.277344%, 20.899963%)" offset="0.453125"/><stop stop-opacity="1" stop-color="rgb(100%, 59.107971%, 20.69397%)" offset="0.457031"/><stop stop-opacity="1" stop-color="rgb(100%, 58.940125%, 20.489502%)" offset="0.460938"/><stop stop-opacity="1" stop-color="rgb(100%, 58.770752%, 20.283508%)" offset="0.464844"/><stop stop-opacity="1" stop-color="rgb(100%, 58.602905%, 20.079041%)" offset="0.46875"/><stop stop-opacity="1" stop-color="rgb(100%, 58.433533%, 19.873047%)" offset="0.472656"/><stop stop-opacity="1" stop-color="rgb(100%, 58.265686%, 19.668579%)" offset="0.476562"/><stop stop-opacity="1" stop-color="rgb(100%, 58.096313%, 19.462585%)" offset="0.480469"/><stop stop-opacity="1" stop-color="rgb(100%, 57.928467%, 19.258118%)" offset="0.484375"/><stop stop-opacity="1" stop-color="rgb(100%, 57.76062%, 19.052124%)" offset="0.488281"/><stop stop-opacity="1" stop-color="rgb(100%, 57.592773%, 18.847656%)" offset="0.492188"/><stop stop-opacity="1" stop-color="rgb(100%, 57.423401%, 18.641663%)" offset="0.496094"/><stop stop-opacity="1" stop-color="rgb(100%, 57.255554%, 18.437195%)" offset="0.5"/><stop stop-opacity="1" stop-color="rgb(99.821472%, 57.21283%, 18.519592%)" offset="0.507812"/><stop stop-opacity="1" stop-color="rgb(99.462891%, 57.131958%, 18.692017%)" offset="0.515625"/><stop stop-opacity="1" stop-color="rgb(99.101257%, 57.051086%, 18.869019%)" offset="0.523438"/><stop stop-opacity="1" stop-color="rgb(98.739624%, 56.971741%, 19.047546%)" offset="0.53125"/><stop stop-opacity="1" stop-color="rgb(98.377991%, 56.892395%, 19.224548%)" offset="0.539062"/><stop stop-opacity="1" stop-color="rgb(98.016357%, 56.813049%, 19.403076%)" offset="0.546875"/><stop stop-opacity="1" stop-color="rgb(97.65625%, 56.733704%, 19.580078%)" offset="0.554688"/><stop stop-opacity="1" stop-color="rgb(97.294617%, 56.654358%, 19.75708%)" offset="0.5625"/><stop stop-opacity="1" stop-color="rgb(96.932983%, 56.575012%, 19.935608%)" offset="0.570313"/><stop stop-opacity="1" stop-color="rgb(96.57135%, 56.495667%, 20.11261%)" offset="0.578125"/><stop stop-opacity="1" stop-color="rgb(96.209717%, 56.416321%, 20.291138%)" offset="0.585937"/><stop stop-opacity="1" stop-color="rgb(95.848083%, 56.336975%, 20.46814%)" offset="0.59375"/><stop stop-opacity="1" stop-color="rgb(95.48645%, 56.256104%, 20.645142%)" offset="0.601562"/><stop stop-opacity="1" stop-color="rgb(95.124817%, 56.176758%, 20.823669%)" offset="0.609375"/><stop stop-opacity="1" stop-color="rgb(94.764709%, 56.097412%, 21.000671%)" offset="0.617188"/><stop stop-opacity="1" stop-color="rgb(94.403076%, 56.018066%, 21.179199%)" offset="0.625"/><stop stop-opacity="1" stop-color="rgb(94.041443%, 55.938721%, 21.356201%)" offset="0.632812"/><stop stop-opacity="1" stop-color="rgb(93.67981%, 55.859375%, 21.533203%)" offset="0.640625"/><stop stop-opacity="1" stop-color="rgb(93.318176%, 55.780029%, 21.711731%)" offset="0.648438"/><stop stop-opacity="1" stop-color="rgb(92.956543%, 55.700684%, 21.888733%)" offset="0.65625"/><stop stop-opacity="1" stop-color="rgb(92.59491%, 55.621338%, 22.067261%)" offset="0.664063"/><stop stop-opacity="1" stop-color="rgb(92.233276%, 55.540466%, 22.244263%)" offset="0.671875"/><stop stop-opacity="1" stop-color="rgb(91.871643%, 55.461121%, 22.421265%)" offset="0.679687"/><stop stop-opacity="1" stop-color="rgb(91.511536%, 55.381775%, 22.599792%)" offset="0.6875"/><stop stop-opacity="1" stop-color="rgb(91.149902%, 55.302429%, 22.776794%)" offset="0.695312"/><stop stop-opacity="1" stop-color="rgb(90.788269%, 55.223083%, 22.955322%)" offset="0.703125"/><stop stop-opacity="1" stop-color="rgb(90.426636%, 55.143738%, 23.132324%)" offset="0.710938"/><stop stop-opacity="1" stop-color="rgb(90.065002%, 55.064392%, 23.309326%)" offset="0.71875"/><stop stop-opacity="1" stop-color="rgb(89.703369%, 54.985046%, 23.487854%)" offset="0.726562"/><stop stop-opacity="1" stop-color="rgb(89.341736%, 54.905701%, 23.664856%)" offset="0.734375"/><stop stop-opacity="1" stop-color="rgb(88.980103%, 54.826355%, 23.841858%)" offset="0.742188"/><stop stop-opacity="1" stop-color="rgb(88.619995%, 54.745483%, 24.020386%)" offset="0.75"/><stop stop-opacity="1" stop-color="rgb(88.258362%, 54.666138%, 24.197388%)" offset="0.757813"/><stop stop-opacity="1" stop-color="rgb(87.896729%, 54.586792%, 24.375916%)" offset="0.765625"/><stop stop-opacity="1" stop-color="rgb(87.535095%, 54.507446%, 24.552917%)" offset="0.773437"/><stop stop-opacity="1" stop-color="rgb(87.173462%, 54.428101%, 24.729919%)" offset="0.78125"/><stop stop-opacity="1" stop-color="rgb(86.811829%, 54.348755%, 24.908447%)" offset="0.789062"/><stop stop-opacity="1" stop-color="rgb(86.450195%, 54.269409%, 25.085449%)" offset="0.796875"/><stop stop-opacity="1" stop-color="rgb(86.088562%, 54.190063%, 25.263977%)" offset="0.804688"/><stop stop-opacity="1" stop-color="rgb(85.728455%, 54.110718%, 25.440979%)" offset="0.8125"/><stop stop-opacity="1" stop-color="rgb(85.366821%, 54.029846%, 25.617981%)" offset="0.820312"/><stop stop-opacity="1" stop-color="rgb(85.005188%, 53.9505%, 25.796509%)" offset="0.828125"/><stop stop-opacity="1" stop-color="rgb(84.643555%, 53.871155%, 25.973511%)" offset="0.835938"/><stop stop-opacity="1" stop-color="rgb(84.281921%, 53.791809%, 26.152039%)" offset="0.84375"/><stop stop-opacity="1" stop-color="rgb(83.920288%, 53.712463%, 26.329041%)" offset="0.851563"/><stop stop-opacity="1" stop-color="rgb(83.558655%, 53.633118%, 26.506042%)" offset="0.859375"/><stop stop-opacity="1" stop-color="rgb(83.197021%, 53.553772%, 26.68457%)" offset="0.867187"/><stop stop-opacity="1" stop-color="rgb(82.835388%, 53.474426%, 26.861572%)" offset="0.875"/><stop stop-opacity="1" stop-color="rgb(82.475281%, 53.395081%, 27.0401%)" offset="0.882812"/><stop stop-opacity="1" stop-color="rgb(82.113647%, 53.315735%, 27.217102%)" offset="0.890625"/><stop stop-opacity="1" stop-color="rgb(81.752014%, 53.234863%, 27.394104%)" offset="0.898438"/><stop stop-opacity="1" stop-color="rgb(81.390381%, 53.155518%, 27.572632%)" offset="0.90625"/><stop stop-opacity="1" stop-color="rgb(81.028748%, 53.076172%, 27.749634%)" offset="0.914062"/><stop stop-opacity="1" stop-color="rgb(80.667114%, 52.996826%, 27.928162%)" offset="0.921875"/><stop stop-opacity="1" stop-color="rgb(80.305481%, 52.91748%, 28.105164%)" offset="0.929688"/><stop stop-opacity="1" stop-color="rgb(79.943848%, 52.838135%, 28.282166%)" offset="0.9375"/><stop stop-opacity="1" stop-color="rgb(79.58374%, 52.758789%, 28.460693%)" offset="0.945313"/><stop stop-opacity="1" stop-color="rgb(79.222107%, 52.679443%, 28.637695%)" offset="0.953125"/><stop stop-opacity="1" stop-color="rgb(78.860474%, 52.600098%, 28.814697%)" offset="0.960937"/><stop stop-opacity="1" stop-color="rgb(78.49884%, 52.519226%, 28.993225%)" offset="0.96875"/><stop stop-opacity="1" stop-color="rgb(78.137207%, 52.43988%, 29.170227%)" offset="0.976562"/><stop stop-opacity="1" stop-color="rgb(77.775574%, 52.360535%, 29.348755%)" offset="0.984375"/><stop stop-opacity="1" stop-color="rgb(77.41394%, 52.281189%, 29.525757%)" offset="0.992188"/><stop stop-opacity="1" stop-color="rgb(77.052307%, 52.201843%, 29.702759%)" offset="1"/></linearGradient><clipPath id="0c5ecb9cf5"><rect x="0" width="168" y="0" height="327"/></clipPath><clipPath id="593f0850a4"><path d="M 90.441406 98.230469 L 167.488281 98.230469 L 167.488281 178.285156 L 90.441406 178.285156 Z M 90.441406 98.230469 " clip-rule="nonzero"/></clipPath><clipPath id="a878bd1712"><path d="M 101.378906 98.230469 L 156.550781 98.230469 C 159.453125 98.230469 162.234375 99.382812 164.285156 101.433594 C 166.335938 103.484375 167.488281 106.265625 167.488281 109.167969 L 167.488281 167.128906 C 167.488281 170.03125 166.335938 172.8125 164.285156 174.863281 C 162.234375 176.914062 159.453125 178.066406 156.550781 178.066406 L 101.378906 178.066406 C 98.480469 178.066406 95.695312 176.914062 93.644531 174.863281 C 91.59375 172.8125 90.441406 170.03125 90.441406 167.128906 L 90.441406 109.167969 C 90.441406 106.265625 91.59375 103.484375 93.644531 101.433594 C 95.695312 99.382812 98.480469 98.230469 101.378906 98.230469 Z M 101.378906 98.230469 " clip-rule="nonzero"/></clipPath><clipPath id="77e89cbaf8"><path d="M 0.441406 0.230469 L 77.488281 0.230469 L 77.488281 80 L 0.441406 80 Z M 0.441406 0.230469 " clip-rule="nonzero"/></clipPath><clipPath id="d2f91c4ee6"><path d="M 11.378906 0.230469 L 66.550781 0.230469 C 69.453125 0.230469 72.234375 1.382812 74.285156 3.433594 C 76.335938 5.484375 77.488281 8.265625 77.488281 11.167969 L 77.488281 69.128906 C 77.488281 72.03125 76.335938 74.8125 74.285156 76.863281 C 72.234375 78.914062 69.453125 80.066406 66.550781 80.066406 L 11.378906 80.066406 C 8.480469 80.066406 5.695312 78.914062 3.644531 76.863281 C 1.59375 74.8125 0.441406 72.03125 0.441406 69.128906 L 0.441406 11.167969 C 0.441406 8.265625 1.59375 5.484375 3.644531 3.433594 C 5.695312 1.382812 8.480469 0.230469 11.378906 0.230469 Z M 11.378906 0.230469 " clip-rule="nonzero"/></clipPath><clipPath id="44429463b5"><rect x="0" width="78" y="0" height="81"/></clipPath><clipPath id="cb3176105b"><path d="M 102.414062 111.152344 L 276.761719 111.152344 L 276.761719 149.074219 L 102.414062 149.074219 Z M 102.414062 111.152344 " clip-rule="nonzero"/></clipPath><clipPath id="3858354106"><path d="M 106.164062 111.152344 L 272.972656 111.152344 C 273.96875 111.152344 274.921875 111.550781 275.625 112.253906 C 276.328125 112.957031 276.722656 113.910156 276.722656 114.902344 L 276.722656 145.324219 C 276.722656 146.320312 276.328125 147.273438 275.625 147.976562 C 274.921875 148.679688 273.96875 149.074219 272.972656 149.074219 L 106.164062 149.074219 C 105.167969 149.074219 104.214844 148.679688 103.511719 147.976562 C 102.808594 147.273438 102.414062 146.320312 102.414062 145.324219 L 102.414062 114.902344 C 102.414062 113.910156 102.808594 112.957031 103.511719 112.253906 C 104.214844 111.550781 105.167969 111.152344 106.164062 111.152344 Z M 106.164062 111.152344 " clip-rule="nonzero"/></clipPath><clipPath id="3159d04c15"><path d="M 0.414062 0.152344 L 174.761719 0.152344 L 174.761719 38.074219 L 0.414062 38.074219 Z M 0.414062 0.152344 " clip-rule="nonzero"/></clipPath><clipPath id="d94335134e"><path d="M 4.164062 0.152344 L 170.972656 0.152344 C 171.96875 0.152344 172.921875 0.550781 173.625 1.253906 C 174.328125 1.957031 174.722656 2.910156 174.722656 3.902344 L 174.722656 34.324219 C 174.722656 35.320312 174.328125 36.273438 173.625 36.976562 C 172.921875 37.679688 171.96875 38.074219 170.972656 38.074219 L 4.164062 38.074219 C 3.167969 38.074219 2.214844 37.679688 1.511719 36.976562 C 0.808594 36.273438 0.414062 35.320312 0.414062 34.324219 L 0.414062 3.902344 C 0.414062 2.910156 0.808594 1.957031 1.511719 1.253906 C 2.214844 0.550781 3.167969 0.152344 4.164062 0.152344 Z M 4.164062 0.152344 " clip-rule="nonzero"/></clipPath><clipPath id="5090cd071f"><rect x="0" width="175" y="0" height="39"/></clipPath><clipPath id="2469fc7318"><rect x="0" width="373" y="0" height="339"/></clipPath></defs><g transform="matrix(1, 0, 0, 1, 1, 18)"><g clip-path="url(#2469fc7318)"><g clip-path="url(#906e59463c)"><path fill="#7a9e7e" d="M 105.082031 13.753906 C 111.996094 5.875 122.128906 0.851562 133.339844 0.851562 C 154.042969 0.851562 170.925781 17.777344 170.925781 38.4375 L 170.925781 300.5625 C 170.925781 321.222656 154.042969 338.148438 133.339844 338.148438 C 115.976562 338.148438 101.261719 326.164062 97 310.046875 C 100.296875 303.453125 104.722656 296.378906 110.382812 290.027344 C 110.664062 289.78125 110.910156 289.542969 111.113281 289.261719 C 116.617188 283.3125 123.292969 278.050781 131.332031 274.554688 C 133.503906 273.632812 134.507812 271.101562 133.585938 268.925781 C 132.621094 266.753906 130.128906 265.753906 127.957031 266.71875 C 120.917969 269.734375 114.855469 273.914062 109.628906 278.734375 C 102.835938 250.800781 121.242188 230.140625 136.519531 212.96875 C 142.351562 206.457031 147.777344 200.390625 151.519531 194.316406 C 167.113281 169.03125 143.996094 137.957031 143.917969 137.878906 C 142.550781 135.949219 139.859375 135.546875 137.929688 136.957031 C 136.039062 138.367188 135.644531 141.015625 137.011719 142.945312 C 137.089844 143.023438 156.785156 169.511719 144.242188 189.8125 C 140.945312 195.160156 135.722656 200.988281 130.128906 207.257812 C 112.523438 226.996094 91.140625 250.996094 102.757812 285.84375 C 97.570312 291.910156 93.429688 298.511719 90.179688 304.734375 C 87.445312 305.296875 84.59375 305.578125 81.695312 305.578125 C 57.773438 305.578125 38.402344 286.207031 38.402344 262.285156 C 38.402344 258.304688 38.925781 254.484375 39.929688 250.828125 C 46.039062 246.648438 53.191406 242.46875 61.191406 239.09375 C 61.550781 238.96875 61.917969 238.847656 62.234375 238.652344 C 71.160156 235.035156 81.046875 232.421875 91.660156 231.941406 C 94.035156 231.816406 95.839844 229.808594 95.761719 227.476562 C 95.640625 225.101562 93.675781 223.253906 91.300781 223.375 C 82.21875 223.777344 73.578125 225.628906 65.617188 228.320312 C 68.589844 216.90625 78.484375 195.039062 110.839844 190.9375 C 113.167969 190.65625 114.816406 188.523438 114.535156 186.152344 C 114.214844 183.820312 112.082031 182.171875 109.75 182.453125 C 65.898438 188 57.617188 222.210938 56.089844 232.011719 C 46.84375 236.113281 38.683594 241.136719 31.96875 246.042969 C 13.152344 235.722656 0.449219 215.75 0.449219 192.792969 C 0.449219 180.773438 3.902344 169.554688 9.933594 160.113281 C 14.554688 157.941406 20.664062 155.8125 27.78125 155.214844 C 26.894531 164.417969 27.296875 183.597656 42.332031 198.628906 C 43.980469 200.277344 46.714844 200.277344 48.398438 198.628906 C 50.046875 196.9375 50.046875 194.210938 48.398438 192.5625 C 35.25 179.414062 35.53125 162.417969 36.335938 155.222656 C 40.195312 155.546875 44.253906 156.386719 48.433594 157.878906 C 50.644531 158.683594 53.097656 157.472656 53.902344 155.265625 C 54.664062 153.011719 53.5 150.558594 51.289062 149.796875 C 44.820312 147.507812 38.667969 146.542969 32.960938 146.457031 C 32.804688 146.457031 32.679688 146.457031 32.558594 146.457031 C 25.160156 146.414062 18.527344 147.824219 12.984375 149.753906 C 9.691406 143.398438 7.839844 136.210938 7.839844 128.566406 C 7.839844 104.332031 26.527344 84.46875 50.289062 82.585938 C 58.851562 91.105469 72.238281 98.78125 92.257812 96.695312 C 94.589844 96.453125 96.316406 94.320312 96.078125 91.988281 C 95.835938 89.613281 93.703125 87.929688 91.371094 88.167969 C 73.167969 90.0625 61.464844 82.339844 54.429688 74.539062 C 53.824219 71.480469 53.464844 68.351562 53.464844 65.132812 C 53.464844 40.574219 72.640625 20.519531 96.835938 19.066406 C 97.597656 27.023438 99.085938 34.175781 101.015625 40.769531 C 93.617188 42.496094 80.355469 47.761719 71.308594 63.800781 C 70.144531 65.890625 70.871094 68.507812 72.957031 69.632812 C 75.007812 70.796875 77.621094 70.070312 78.785156 68.027344 C 86.746094 53.914062 98.246094 49.980469 103.671875 48.890625 C 106.527344 56.648438 109.824219 63.644531 112.953125 70.234375 C 115.082031 74.699219 117.132812 79.035156 118.824219 83.101562 C 123.566406 94.679688 126.425781 105.332031 124.53125 115.015625 C 115.164062 114.894531 89.761719 116.261719 74.402344 132.664062 C 69.820312 131.777344 58.488281 127.917969 49.640625 110.3125 C 48.597656 108.179688 46.023438 107.339844 43.9375 108.382812 C 41.804688 109.46875 40.964844 112.003906 42.007812 114.132812 C 50.492188 131.09375 61.667969 137.527344 68.941406 139.9375 C 64.121094 148.054688 61.421875 158.746094 62.351562 172.894531 C 62.507812 175.269531 64.558594 177.078125 66.933594 176.917969 C 69.308594 176.761719 71.074219 174.707031 70.914062 172.335938 C 68.019531 129.199219 106.324219 123.976562 121.523438 123.617188 C 117.222656 131.699219 108.699219 139.410156 94.195312 147.011719 C 92.105469 148.097656 91.300781 150.667969 92.386719 152.761719 C 93.472656 154.847656 96.042969 155.695312 98.171875 154.566406 C 118.027344 144.199219 128.078125 133.066406 131.902344 120.960938 C 131.945312 120.804688 132.023438 120.601562 132.058594 120.398438 C 132.136719 120.15625 132.183594 119.917969 132.261719 119.671875 C 135.757812 107.050781 132.542969 93.945312 126.757812 79.835938 C 124.949219 75.375 122.855469 71.070312 120.726562 66.574219 C 113.925781 52.261719 106.289062 36.140625 105.082031 13.753906 Z M 105.082031 13.753906 " fill-opacity="1" fill-rule="evenodd"/></g><g clip-path="url(#a6153d538a)"><g clip-path="url(#792fd05a66)"><g transform="matrix(1, 0, 0, 1, 205, 6)"><g clip-path="url(#0c5ecb9cf5)"><g clip-path="url(#701badbaae)"><g clip-path="url(#74b2d6f2b3)"><path fill="url(#e8e3bc27e8)" d="M 167.480469 0.148438 L 0.929688 0.148438 L 0.929688 326.742188 L 167.480469 326.742188 Z M 167.480469 0.148438 " fill-rule="nonzero"/></g></g></g></g></g></g><g clip-path="url(#593f0850a4)"><g clip-path="url(#a878bd1712)"><g transform="matrix(1, 0, 0, 1, 90, 98)"><g clip-path="url(#44429463b5)"><g clip-path="url(#77e89cbaf8)"><g clip-path="url(#d2f91c4ee6)"><path fill="#7a9e7e" d="M 0.441406 0.230469 L 77.488281 0.230469 L 77.488281 79.984375 L 0.441406 79.984375 Z M 0.441406 0.230469 " fill-opacity="1" fill-rule="nonzero"/></g></g></g></g></g></g><g clip-path="url(#cb3176105b)"><g clip-path="url(#3858354106)"><g transform="matrix(1, 0, 0, 1, 102, 111)"><g clip-path="url(#5090cd071f)"><g clip-path="url(#3159d04c15)"><g clip-path="url(#d94335134e)"><path fill="#ffffff" d="M 0.414062 0.152344 L 174.761719 0.152344 L 174.761719 38.074219 L 0.414062 38.074219 Z M 0.414062 0.152344 " fill-opacity="1" fill-rule="nonzero"/></g></g></g></g></g></g></g></g></svg>